G04 #@! TF.GenerationSoftware,KiCad,Pcbnew,7.0.1*
G04 #@! TF.CreationDate,2023-05-22T16:21:23+08:00*
G04 #@! TF.ProjectId,jetson-nano-baseboard,6a657473-6f6e-42d6-9e61-6e6f2d626173,1.6.1*
G04 #@! TF.SameCoordinates,Original*
G04 #@! TF.FileFunction,Copper,L3,Inr*
G04 #@! TF.FilePolarity,Positive*
%FSLAX46Y46*%
G04 Gerber Fmt 4.6, Leading zero omitted, Abs format (unit mm)*
G04 Created by KiCad (PCBNEW 7.0.1) date 2023-05-22 16:21:23*
%MOMM*%
%LPD*%
G01*
G04 APERTURE LIST*
G04 #@! TA.AperFunction,ComponentPad*
%ADD10C,0.650000*%
G04 #@! TD*
G04 #@! TA.AperFunction,ComponentPad*
%ADD11O,1.400000X2.850000*%
G04 #@! TD*
G04 #@! TA.AperFunction,ComponentPad*
%ADD12O,1.200000X2.250000*%
G04 #@! TD*
G04 #@! TA.AperFunction,ComponentPad*
%ADD13O,4.500000X2.000000*%
G04 #@! TD*
G04 #@! TA.AperFunction,ComponentPad*
%ADD14O,1.990000X4.000000*%
G04 #@! TD*
G04 #@! TA.AperFunction,ComponentPad*
%ADD15O,4.000000X2.000000*%
G04 #@! TD*
G04 #@! TA.AperFunction,ComponentPad*
%ADD16O,1.000000X1.600000*%
G04 #@! TD*
G04 #@! TA.AperFunction,ComponentPad*
%ADD17O,1.500000X2.550000*%
G04 #@! TD*
G04 #@! TA.AperFunction,ComponentPad*
%ADD18R,1.700000X1.700000*%
G04 #@! TD*
G04 #@! TA.AperFunction,ComponentPad*
%ADD19C,1.700000*%
G04 #@! TD*
G04 #@! TA.AperFunction,ComponentPad*
%ADD20C,1.650000*%
G04 #@! TD*
G04 #@! TA.AperFunction,ComponentPad*
%ADD21C,2.600000*%
G04 #@! TD*
G04 #@! TA.AperFunction,ComponentPad*
%ADD22C,6.000000*%
G04 #@! TD*
G04 #@! TA.AperFunction,ViaPad*
%ADD23C,0.500000*%
G04 #@! TD*
G04 #@! TA.AperFunction,Conductor*
%ADD24C,0.500000*%
G04 #@! TD*
G04 #@! TA.AperFunction,Conductor*
%ADD25C,0.400000*%
G04 #@! TD*
G04 #@! TA.AperFunction,Conductor*
%ADD26C,0.300000*%
G04 #@! TD*
G04 #@! TA.AperFunction,Conductor*
%ADD27C,0.150000*%
G04 #@! TD*
G04 #@! TA.AperFunction,Conductor*
%ADD28C,0.180000*%
G04 #@! TD*
G04 #@! TA.AperFunction,Conductor*
%ADD29C,0.200000*%
G04 #@! TD*
G04 #@! TA.AperFunction,Conductor*
%ADD30C,0.125000*%
G04 #@! TD*
G04 #@! TA.AperFunction,Conductor*
%ADD31C,0.160000*%
G04 #@! TD*
G04 #@! TA.AperFunction,Conductor*
%ADD32C,0.152400*%
G04 #@! TD*
G04 APERTURE END LIST*
D10*
X133960000Y-121955000D03*
X133960000Y-118605000D03*
X134410000Y-121180000D03*
X134410000Y-117830000D03*
X135310000Y-121180000D03*
X135310000Y-117830000D03*
X135760000Y-121955000D03*
X135760000Y-118605000D03*
X136210000Y-121180000D03*
X136210000Y-117830000D03*
X137110000Y-121180000D03*
X137110000Y-117830000D03*
X137568000Y-121955000D03*
X137568000Y-118605000D03*
X138009990Y-121180000D03*
X138009990Y-117830000D03*
X138909990Y-121180000D03*
X138909990Y-117830000D03*
X139360000Y-121955000D03*
X139360000Y-118605000D03*
D11*
X131160000Y-120955000D03*
D12*
X131460000Y-126455000D03*
X141860000Y-126455000D03*
D11*
X142160000Y-120955000D03*
D13*
X169057400Y-116030000D03*
D14*
X173937000Y-118980000D03*
D15*
X169057400Y-122030000D03*
D10*
X125259920Y-119645000D03*
X124859920Y-120345000D03*
X124059920Y-120345000D03*
X123659920Y-119645000D03*
X123259920Y-120345000D03*
X122859920Y-119645000D03*
X122059920Y-119645000D03*
X121659920Y-120345000D03*
X121259920Y-119645000D03*
X120859920Y-120345000D03*
X120059920Y-120345000D03*
X119659920Y-119645000D03*
D16*
X126729920Y-125525000D03*
X118189920Y-120795000D03*
X126729920Y-120795000D03*
D10*
X124459920Y-119645000D03*
X120459920Y-119645000D03*
D16*
X118189920Y-125525000D03*
D17*
X111308400Y-127406010D03*
X111308400Y-124046010D03*
X105108400Y-124046010D03*
X105108400Y-127406010D03*
D18*
X90140000Y-113010010D03*
D19*
X88870000Y-110470010D03*
X87600000Y-113010010D03*
X86330000Y-110470010D03*
X85060000Y-113010010D03*
X83790000Y-110470010D03*
X82520000Y-113010010D03*
X81250000Y-110470010D03*
X79980000Y-113010010D03*
X78710000Y-110470010D03*
D20*
X89894000Y-105640010D03*
X87354000Y-105640010D03*
X81504000Y-105640010D03*
X78964000Y-105640010D03*
D21*
X92303180Y-116310010D03*
X76546830Y-116310010D03*
D22*
X80408250Y-98918050D03*
D23*
X136296600Y-81500000D03*
X130000000Y-94200000D03*
X128800000Y-94200000D03*
X129400000Y-94200000D03*
X135700000Y-81500000D03*
X85600000Y-98200000D03*
X86500000Y-97600000D03*
X86800000Y-98200000D03*
X167250000Y-119800000D03*
X167250000Y-118600000D03*
X86200000Y-98200000D03*
X87100000Y-97600000D03*
X166050000Y-119200000D03*
X87400000Y-98200000D03*
X166650000Y-118600000D03*
X167250000Y-119200000D03*
X166050000Y-119800000D03*
X166650000Y-119800000D03*
X85900000Y-97600000D03*
X87000000Y-77200000D03*
X87000000Y-76600000D03*
X88000000Y-98200000D03*
X87600000Y-77200000D03*
X86400000Y-77200000D03*
X166650000Y-119200000D03*
X87700000Y-97600000D03*
X86400000Y-76600000D03*
X166050000Y-118600000D03*
X87600000Y-76600000D03*
X130551990Y-111188360D03*
X145094000Y-124146010D03*
X117450000Y-123500000D03*
X137668200Y-81468210D03*
X136982400Y-81468210D03*
X117500000Y-107700000D03*
X126238200Y-106766610D03*
X131292800Y-103490010D03*
X132250000Y-104200000D03*
X130950000Y-98200000D03*
X168326000Y-86827610D03*
X144424600Y-119466610D03*
X100891200Y-114793010D03*
X138912800Y-98562410D03*
X136423600Y-101483410D03*
X122824502Y-100350000D03*
X88700000Y-101400000D03*
X139179979Y-111529226D03*
X97100000Y-114075000D03*
X89300000Y-100500000D03*
X93800000Y-127400000D03*
X109758400Y-98006010D03*
X84425000Y-121700000D03*
X164100000Y-85300000D03*
X88700000Y-100800000D03*
X114300000Y-106400000D03*
X165000000Y-111800000D03*
X163550825Y-85300000D03*
X88700000Y-102000000D03*
X92200000Y-85600000D03*
X97800000Y-114075000D03*
X123400000Y-100350000D03*
X141400000Y-99600000D03*
X89300000Y-101700000D03*
X136370000Y-110630000D03*
X165800000Y-111800000D03*
X89300000Y-102300000D03*
X109758400Y-96506010D03*
X152300000Y-128800000D03*
X109758400Y-97306010D03*
X164200000Y-111800000D03*
X89300000Y-101100000D03*
X168605400Y-88050000D03*
X116850000Y-107700000D03*
X142700000Y-109900000D03*
X122128461Y-106071539D03*
X120269200Y-106258610D03*
X116916400Y-116723410D03*
X150525000Y-113700000D03*
X151000000Y-114200000D03*
X150525000Y-114700000D03*
X151016800Y-115174990D03*
X151000000Y-113244590D03*
X144300000Y-124200000D03*
X150525000Y-115675000D03*
X151016800Y-117149990D03*
X162800000Y-111400000D03*
X113358400Y-95706010D03*
X154800000Y-104000000D03*
X110958400Y-103641600D03*
X150525000Y-116675000D03*
X159700000Y-91200000D03*
X110958400Y-102141600D03*
X162200000Y-117200000D03*
X151000000Y-116175000D03*
X143550000Y-119175000D03*
X97650000Y-83500000D03*
X154800000Y-104600000D03*
X110958400Y-103041600D03*
X110958400Y-101506010D03*
X110958400Y-100841600D03*
X163020000Y-83160000D03*
X107558400Y-121706010D03*
X108458400Y-125356010D03*
X108858400Y-121756010D03*
X109820039Y-124800496D03*
X95682000Y-120508010D03*
X124351990Y-108106010D03*
X122151990Y-108106010D03*
X123251990Y-108106010D03*
X95978200Y-119897610D03*
X96003600Y-118881610D03*
X123775800Y-87107010D03*
X126085800Y-87665810D03*
X173482200Y-110119410D03*
X83024410Y-101525910D03*
X77800400Y-101534210D03*
X161061600Y-90993210D03*
X161264800Y-89596210D03*
X161061600Y-90307410D03*
X127889200Y-88250010D03*
X141046400Y-76362810D03*
X155778380Y-84660150D03*
X144025790Y-78907010D03*
X160121800Y-109408210D03*
X170993000Y-103947210D03*
X170993000Y-102474010D03*
X145288200Y-117637810D03*
X145288200Y-116494810D03*
X117400000Y-105500000D03*
X116321990Y-114281506D03*
X104165600Y-114589810D03*
X96545600Y-114564410D03*
X98425200Y-116494810D03*
X114020800Y-96784410D03*
X113128890Y-99498010D03*
X130632400Y-115402610D03*
X125247600Y-114031010D03*
X127711400Y-115936010D03*
X127711400Y-117002810D03*
X126099960Y-81361400D03*
X117099980Y-81523930D03*
X127609800Y-81315810D03*
X119025800Y-78907010D03*
X120525780Y-78907010D03*
X122025800Y-78907010D03*
X127025780Y-78907010D03*
X128525780Y-78907010D03*
X131025780Y-78907010D03*
X117525800Y-78907010D03*
X129006800Y-103337610D03*
X129718000Y-103337610D03*
X162915800Y-94317810D03*
X162909390Y-95844890D03*
X162915800Y-97317810D03*
X166979800Y-91577410D03*
X131496000Y-93990410D03*
X128900000Y-94900000D03*
X129277100Y-88134940D03*
X159025820Y-78907010D03*
X160525820Y-78907010D03*
X172443400Y-95948810D03*
X174193400Y-92720410D03*
X174193400Y-89012010D03*
X152694380Y-87965940D03*
X151295590Y-87233370D03*
X149795600Y-87233370D03*
X148295600Y-87233370D03*
X158778380Y-84660150D03*
X157278390Y-84660150D03*
X140386000Y-88656410D03*
X138894000Y-97536010D03*
X145295600Y-87233370D03*
X122275800Y-87107010D03*
X154358790Y-83907900D03*
X130025780Y-78907010D03*
X143865800Y-87234010D03*
X146795600Y-87233370D03*
X165875850Y-107827120D03*
X172826080Y-107623920D03*
X172826080Y-105173920D03*
X162929010Y-104831030D03*
X162915800Y-103317810D03*
X162909630Y-98849560D03*
X162960680Y-100317490D03*
X162960680Y-101849550D03*
X165160640Y-106337990D03*
X110417470Y-113386560D03*
X108917470Y-113386560D03*
X107417470Y-113386560D03*
X105917470Y-113386560D03*
X111497420Y-107615140D03*
X135525790Y-78907010D03*
X134025790Y-78907010D03*
X132525790Y-78907010D03*
X116025790Y-78907010D03*
X162025810Y-78907010D03*
X157525830Y-78907010D03*
X156025820Y-78907010D03*
X154525790Y-78907010D03*
X153025800Y-78907010D03*
X151525780Y-78907010D03*
X147025790Y-78907010D03*
X145525790Y-78907010D03*
X142525790Y-78907010D03*
X94818400Y-120685810D03*
X106013490Y-76284600D03*
X140251990Y-121906010D03*
X132651990Y-121906010D03*
X102300000Y-117300000D03*
X136782080Y-115296040D03*
X173467770Y-115765830D03*
X102484000Y-76150700D03*
X110017080Y-76261070D03*
X91700000Y-92855410D03*
X98291380Y-76200000D03*
X160275870Y-87050280D03*
X161775860Y-87050280D03*
X123525790Y-78907010D03*
X148525790Y-78907010D03*
X150025790Y-78907010D03*
X135293800Y-115304380D03*
X139811520Y-115332510D03*
X113614400Y-117206010D03*
X103175000Y-114615210D03*
X129200000Y-106900000D03*
X135407600Y-103642410D03*
X119278600Y-87109010D03*
X120777000Y-87105810D03*
X117823640Y-87082020D03*
X99692620Y-76200000D03*
X121596370Y-81523930D03*
X120087600Y-81523930D03*
X98550000Y-81900000D03*
X99700000Y-81900000D03*
X92700000Y-91900000D03*
X92697600Y-92900000D03*
X91700000Y-91900000D03*
X102700000Y-80635500D03*
X98300000Y-83000000D03*
X99700000Y-84100000D03*
X98318760Y-84100000D03*
X99700000Y-83000000D03*
X118335680Y-108555380D03*
X170777240Y-97953800D03*
X90716800Y-92874990D03*
X90700000Y-91900000D03*
X90200000Y-92400000D03*
X91200000Y-92400000D03*
X155355410Y-121200000D03*
X154900000Y-120800000D03*
X153900000Y-120800000D03*
X154400000Y-120300000D03*
X155400000Y-120302400D03*
X154400000Y-121200000D03*
X153425010Y-120300000D03*
X153425010Y-121216800D03*
X147699600Y-120482610D03*
X146886800Y-120482610D03*
X76400000Y-84000000D03*
X76400000Y-83400000D03*
X77600000Y-84000000D03*
X77000000Y-84000000D03*
X77000000Y-83400000D03*
X77600000Y-83400000D03*
X100700000Y-92400000D03*
X99000000Y-83600000D03*
X146500000Y-114400000D03*
X126200000Y-101400000D03*
X109058400Y-98906010D03*
X138280000Y-115390000D03*
X84500000Y-76600000D03*
X85100000Y-76600000D03*
X129958400Y-128506010D03*
X119951990Y-113806010D03*
X100350000Y-124150000D03*
X149600000Y-113900000D03*
X131350000Y-113800000D03*
X155455410Y-110300000D03*
X100500000Y-127400000D03*
X153525010Y-109400000D03*
X114393990Y-99450000D03*
X166300000Y-107500000D03*
X99000000Y-82500000D03*
X154150000Y-104250000D03*
X126800000Y-102000000D03*
X92200000Y-81600000D03*
X84350000Y-91350000D03*
X156300000Y-125000000D03*
X110300000Y-84650000D03*
X83900000Y-77200000D03*
X88320722Y-124088819D03*
X120353092Y-101793452D03*
X152950000Y-105200000D03*
X99800000Y-111600000D03*
X92200000Y-92400000D03*
X155000000Y-109900000D03*
X92700000Y-123500000D03*
X81800000Y-84800000D03*
X100700000Y-88200000D03*
X130358400Y-124706010D03*
X154500000Y-110300000D03*
X83000000Y-84800000D03*
X83000000Y-84200000D03*
X109058400Y-99506010D03*
X85700000Y-88000000D03*
X109758400Y-98906010D03*
X84500000Y-77200000D03*
X87125000Y-124225000D03*
X83900000Y-76600000D03*
X164900000Y-76000000D03*
X100700000Y-90000000D03*
X120000000Y-89200000D03*
X95500000Y-110808484D03*
X100700000Y-91800000D03*
X82400000Y-83600000D03*
X100700000Y-91200000D03*
X114300000Y-111700000D03*
X109758400Y-99506010D03*
X93600000Y-99500000D03*
X158958400Y-83156010D03*
X80100000Y-90600000D03*
X154000000Y-109900000D03*
X162305593Y-115305593D03*
X100700000Y-88800000D03*
X164500000Y-124000000D03*
X169400000Y-83800000D03*
X119100000Y-101200000D03*
X121700000Y-101800000D03*
X122850000Y-101800000D03*
X110391639Y-103949500D03*
X96300000Y-128000000D03*
X118750000Y-81450000D03*
X126200000Y-102000000D03*
X81300000Y-122300000D03*
X120700000Y-88500000D03*
X121100000Y-93800000D03*
X81800000Y-84200000D03*
X120000000Y-88500000D03*
X152100000Y-120800000D03*
X166675000Y-107125000D03*
X119300000Y-88500000D03*
X168800000Y-83800000D03*
X85100000Y-77200000D03*
X91700000Y-78600000D03*
X168558400Y-82137500D03*
X154500000Y-123500000D03*
X117900000Y-96500000D03*
X152950000Y-104500000D03*
X119450000Y-101850000D03*
X155500000Y-109402400D03*
X153900000Y-123500000D03*
X100450000Y-128950000D03*
X95200000Y-111800000D03*
X90000000Y-76100000D03*
X154500000Y-109400000D03*
X113650000Y-111700000D03*
X100700000Y-90600000D03*
X85100000Y-88000000D03*
X100700000Y-89400000D03*
X127758400Y-124306010D03*
X148100000Y-105200000D03*
X151450000Y-108800000D03*
X153525010Y-110316800D03*
X82400000Y-84800000D03*
X120700000Y-89200000D03*
X131975000Y-107750000D03*
X81800000Y-83600000D03*
X119300000Y-89200000D03*
X82400000Y-84200000D03*
X142700000Y-98075000D03*
X83000000Y-83600000D03*
X112800000Y-121300000D03*
X169500000Y-84400000D03*
X143650004Y-108550000D03*
X112700000Y-103700000D03*
X113050000Y-111700000D03*
X112573000Y-118806210D03*
X106530000Y-117500000D03*
X101346200Y-118120410D03*
X110020000Y-117550000D03*
X148400000Y-120400000D03*
X151435000Y-109800000D03*
X116886350Y-108413650D03*
X123698000Y-116890800D03*
X117765330Y-117221800D03*
X116549500Y-108900000D03*
X124200000Y-102850000D03*
X144600000Y-105600000D03*
X146100000Y-118200000D03*
X113157200Y-96809810D03*
X100050800Y-116977410D03*
X109758400Y-100606010D03*
X103450000Y-88600000D03*
X109758400Y-101206010D03*
X102900000Y-94500000D03*
X129958400Y-127106010D03*
X142316400Y-111567210D03*
X134930170Y-107750000D03*
X101900000Y-122256010D03*
X103708400Y-122256010D03*
X139555440Y-119383840D03*
X90400000Y-124000000D03*
X83060000Y-121685000D03*
X124387858Y-106093428D03*
X130800000Y-106900000D03*
X124455120Y-105355120D03*
X127384000Y-105206010D03*
X115036800Y-128153410D03*
X111785600Y-104937810D03*
X115196548Y-104396548D03*
X154400000Y-106200000D03*
X142800000Y-128900000D03*
X160020200Y-80528410D03*
X158801000Y-80503010D03*
X131826200Y-92060010D03*
X132461200Y-92060010D03*
X102106920Y-83556920D03*
X94772175Y-98820826D03*
X140098850Y-106022020D03*
X148964491Y-80919500D03*
X139772373Y-117714864D03*
X140723850Y-106022020D03*
X149599895Y-80919500D03*
X140397373Y-117714864D03*
X147421800Y-82154010D03*
X142052360Y-106022020D03*
X139489480Y-116191830D03*
X148089480Y-82162620D03*
X142677360Y-106022020D03*
X140114480Y-116191830D03*
X149750000Y-119100000D03*
X148361351Y-117938648D03*
X136071480Y-106022020D03*
X151964500Y-79432400D03*
X132664400Y-120355610D03*
X136696480Y-106022020D03*
X152589500Y-79432400D03*
X132976980Y-119732610D03*
X138144650Y-106002020D03*
X150464490Y-80135110D03*
X136346500Y-120190660D03*
X138769650Y-106002020D03*
X151089490Y-80135110D03*
X136973500Y-120190660D03*
X139214490Y-87728460D03*
X133080160Y-107533540D03*
X139839490Y-87728460D03*
X133705160Y-107533540D03*
X145964490Y-79368670D03*
X111720971Y-110120971D03*
X146589490Y-79368670D03*
X111279029Y-109679029D03*
X144464490Y-79368670D03*
X109720971Y-110120971D03*
X142964490Y-79368670D03*
X107670971Y-110070971D03*
X145089490Y-79368670D03*
X109279029Y-109679029D03*
X141464490Y-79368670D03*
X105620971Y-110120971D03*
X143589490Y-79368670D03*
X107229029Y-109629029D03*
X142089490Y-79368670D03*
X105179029Y-109679029D03*
X126924000Y-102778810D03*
X123291600Y-115011200D03*
X124917400Y-102855010D03*
X125933400Y-102778810D03*
X127914600Y-102778810D03*
X102000000Y-123200000D03*
X105896761Y-122067649D03*
X106508400Y-125106010D03*
X112807205Y-125007205D03*
X101300000Y-119100000D03*
X112000000Y-121600000D03*
X129724800Y-120306010D03*
X163958400Y-84506010D03*
X161654479Y-76245521D03*
X126416550Y-108192440D03*
X128016000Y-113588800D03*
X112369600Y-107594400D03*
X126851764Y-109898236D03*
X127002664Y-111073733D03*
X129205880Y-107926440D03*
X120157540Y-107906010D03*
X134400000Y-107400000D03*
X127958400Y-127106010D03*
X105829371Y-120685039D03*
X107920900Y-125956010D03*
X105387429Y-121126981D03*
X107295900Y-125956010D03*
X109628812Y-120633688D03*
X109574662Y-125953233D03*
X108949662Y-125953233D03*
X108987500Y-120650000D03*
X130251400Y-116621810D03*
X132626410Y-115326410D03*
X124892000Y-87996010D03*
X133121600Y-81569810D03*
X115650000Y-103751500D03*
X120650200Y-91272610D03*
X124257000Y-87996010D03*
X132486600Y-81569810D03*
X114474470Y-103751500D03*
X119964400Y-91272610D03*
X154714500Y-80235210D03*
X125527000Y-87996010D03*
X116272088Y-103806357D03*
X133756600Y-81569810D03*
X120650200Y-91933010D03*
X124557240Y-87096020D03*
X131851600Y-81569810D03*
X113474470Y-103751500D03*
X119278600Y-91272610D03*
X151229200Y-82681410D03*
X157597710Y-81397440D03*
X153319500Y-83161770D03*
X153944500Y-83161770D03*
X142048990Y-87750500D03*
X142087800Y-88377010D03*
X143850300Y-88278700D03*
X143846910Y-88938950D03*
X140716200Y-89240610D03*
X140709690Y-89871370D03*
X156972710Y-81397440D03*
X151854200Y-82681410D03*
X156421850Y-80722970D03*
X155796850Y-80722970D03*
X155339500Y-80235210D03*
X170850000Y-110994010D03*
X146355000Y-88707210D03*
X170850000Y-110369010D03*
X145714500Y-88710440D03*
X170825000Y-109033430D03*
X147839490Y-89725000D03*
X170825000Y-108408430D03*
X147214490Y-89725000D03*
X145952270Y-89335440D03*
X171566240Y-110033430D03*
X146577270Y-89335440D03*
X171566240Y-109408430D03*
X168860000Y-108040000D03*
X150839490Y-89188110D03*
X168873750Y-107408430D03*
X150214490Y-89188110D03*
X168914190Y-106533440D03*
X149339490Y-88505070D03*
X168914190Y-105908440D03*
X148714490Y-88505070D03*
X158589530Y-79436880D03*
X173838370Y-102033450D03*
X157964530Y-79436880D03*
X173971570Y-101407210D03*
X161589510Y-80150650D03*
X172365790Y-101033450D03*
X160964510Y-80150650D03*
X172365790Y-100408450D03*
X125603200Y-92263210D03*
X124003000Y-92364810D03*
X117691733Y-104258182D03*
X123190200Y-92364810D03*
X118135600Y-103818880D03*
X122555200Y-92263210D03*
X159214520Y-84190790D03*
X171551480Y-96908450D03*
X159839520Y-84190790D03*
X171551480Y-97533450D03*
X171551480Y-98408450D03*
X160714510Y-84679850D03*
X171551480Y-99033450D03*
X161339510Y-84679850D03*
X170980970Y-99408450D03*
X157714530Y-87117670D03*
X170980970Y-100033450D03*
X158339530Y-87117670D03*
X111303000Y-95717610D03*
X106985000Y-79639410D03*
X112293600Y-95717610D03*
X107721600Y-79639410D03*
X135864800Y-93838010D03*
X122200000Y-101200000D03*
X113970000Y-113675410D03*
X134950400Y-92898210D03*
X124600000Y-101200000D03*
X134467800Y-92390210D03*
X113233400Y-113675410D03*
X124100000Y-100700000D03*
X133030160Y-110422270D03*
X133655160Y-110422270D03*
X115299620Y-91239079D03*
X111899996Y-90500004D03*
X114681200Y-90536010D03*
X114750000Y-79258410D03*
X114935200Y-89951810D03*
X115400000Y-79300000D03*
X114935200Y-89316810D03*
X109200670Y-79107140D03*
X113400000Y-79150000D03*
X129150000Y-108950000D03*
X124600000Y-79000000D03*
X165300000Y-79000000D03*
X154950000Y-79525000D03*
X108266060Y-79122840D03*
X155625000Y-79500000D03*
X129150000Y-109900000D03*
X114100000Y-79250000D03*
X166758400Y-81706010D03*
X125350000Y-79000000D03*
X162860000Y-78880000D03*
X129641098Y-98187520D03*
X103600000Y-81100000D03*
X100500000Y-76000000D03*
X160030000Y-111450000D03*
X128100000Y-98600000D03*
X165400000Y-91300000D03*
X112300000Y-92500000D03*
X109700000Y-95800000D03*
X168200000Y-114400000D03*
X162100000Y-91400000D03*
X113538200Y-91882210D03*
X109652000Y-92500000D03*
X135280600Y-98206810D03*
X103600000Y-80000000D03*
X97650000Y-84350000D03*
X100784000Y-84206010D03*
X100838200Y-115859810D03*
X135433000Y-93355410D03*
X122000000Y-100300000D03*
X134464490Y-79368670D03*
X90068544Y-121629304D03*
X135089490Y-79368670D03*
X90068544Y-122254304D03*
X132964480Y-79368670D03*
X122105110Y-117462090D03*
X133589480Y-79368670D03*
X122732110Y-117506040D03*
X94291840Y-78845290D03*
X128214480Y-87645560D03*
X167820400Y-96270800D03*
X128839480Y-87645560D03*
X167820400Y-96895800D03*
X167820400Y-99290310D03*
X126714480Y-87645560D03*
X167820400Y-99915310D03*
X127339480Y-87645560D03*
X122714490Y-87563600D03*
X167820400Y-102356580D03*
X123339490Y-87563600D03*
X167820400Y-102981580D03*
X167820400Y-105275890D03*
X121214500Y-87563600D03*
X167820400Y-105900890D03*
X121839500Y-87563600D03*
X121589500Y-79368670D03*
X162457790Y-107393530D03*
X120964500Y-79368670D03*
X162457790Y-106768530D03*
X162457790Y-104393530D03*
X123089500Y-79368670D03*
X162457790Y-103768530D03*
X122464500Y-79368670D03*
X162457790Y-101393530D03*
X128089480Y-79368670D03*
X162457790Y-100768530D03*
X127464480Y-79368670D03*
X129589480Y-79368670D03*
X162457790Y-98393530D03*
X128964480Y-79368670D03*
X162457790Y-97768530D03*
X162457790Y-95393530D03*
X120339490Y-87563600D03*
X162457790Y-94768530D03*
X119714490Y-87563600D03*
X101989460Y-81898910D03*
X118589500Y-76208570D03*
X101254150Y-82056110D03*
X117964500Y-76208570D03*
X112236480Y-81567720D03*
X105904220Y-79444470D03*
X114527270Y-76178930D03*
X101300000Y-76100000D03*
X117089490Y-76179190D03*
X99892690Y-79407390D03*
X116464490Y-76179190D03*
X99267690Y-79407390D03*
X101052880Y-79609690D03*
X117873910Y-88391090D03*
X100610940Y-79167750D03*
X117839420Y-89055290D03*
X122575000Y-102417570D03*
X118214490Y-87574230D03*
X121950000Y-102417570D03*
X118839490Y-87574230D03*
X119464490Y-79368670D03*
X120375000Y-102417570D03*
X120089490Y-79368670D03*
X119750000Y-102417570D03*
X114339505Y-87706117D03*
X113714505Y-87706117D03*
X112920971Y-87596729D03*
X112479029Y-88038671D03*
X113300000Y-84679979D03*
X111800000Y-84650000D03*
X110120971Y-87379029D03*
X109679029Y-87820971D03*
X111119386Y-88038671D03*
X111561328Y-87596729D03*
X147300000Y-102600000D03*
X100750000Y-87400000D03*
X127600000Y-102000000D03*
X146600000Y-102600000D03*
X127600000Y-101000000D03*
X101410878Y-87389125D03*
X106527800Y-81061810D03*
X129133800Y-81569810D03*
X113831370Y-81556130D03*
X131165800Y-81570010D03*
X168605400Y-94473010D03*
X131496000Y-93355410D03*
X150927000Y-94523810D03*
X133096200Y-92034610D03*
X168605000Y-95463610D03*
X152222400Y-94523810D03*
X129845000Y-93355410D03*
X120524799Y-98093096D03*
X129550000Y-100750000D03*
X109000000Y-95600000D03*
X87450000Y-80050000D03*
X93500000Y-88700000D03*
X169088000Y-112989610D03*
X111200000Y-90500000D03*
X82400000Y-82000000D03*
X85750000Y-77400000D03*
X81800000Y-82000000D03*
X83000000Y-82600000D03*
X88700000Y-80500000D03*
X81800000Y-82600000D03*
X82400000Y-82600000D03*
X83000000Y-82000000D03*
X156700000Y-119300000D03*
X157200000Y-118800000D03*
X157600000Y-111200000D03*
X157600000Y-119300000D03*
X157600000Y-118300000D03*
X156600000Y-111200000D03*
X157600000Y-112200000D03*
X157100000Y-111700000D03*
X159600000Y-115900000D03*
X162200000Y-118200000D03*
X87600000Y-91100000D03*
X84700000Y-86700000D03*
X173400000Y-87200000D03*
X143900000Y-90000000D03*
X173400000Y-86500000D03*
X135000000Y-88200000D03*
X128700000Y-93500000D03*
X108917000Y-94200000D03*
X166600000Y-111000000D03*
X101400000Y-94600000D03*
X148200000Y-101400000D03*
X108675000Y-81625000D03*
X103200000Y-83600000D03*
X109500000Y-93896309D03*
X148200000Y-100700000D03*
X165700000Y-110700000D03*
X168681600Y-92187010D03*
X116494141Y-88906100D03*
X104700000Y-83900000D03*
X168605400Y-93558610D03*
X113950000Y-89500000D03*
X124750000Y-93576310D03*
X173900000Y-84000000D03*
X91700000Y-79550000D03*
X88500000Y-77850000D03*
X86800000Y-80100000D03*
X94600000Y-127000000D03*
X112400000Y-76205510D03*
X79000000Y-84400000D03*
X79000000Y-83400000D03*
X113150000Y-76205510D03*
X126500000Y-76450500D03*
X86164494Y-91521304D03*
X130500000Y-76300000D03*
X110500000Y-98300000D03*
X124100000Y-76450500D03*
X86700000Y-91200000D03*
X140300000Y-76200000D03*
X131210000Y-88190000D03*
X84400000Y-118500000D03*
X130537000Y-88100000D03*
X98400000Y-110810000D03*
X157900000Y-127600000D03*
X147345600Y-124343410D03*
X155900000Y-129000000D03*
D24*
X133842799Y-90532201D02*
X136091628Y-88283372D01*
X133289771Y-92730409D02*
X133842799Y-92177381D01*
X130200600Y-93990410D02*
X130657800Y-93533210D01*
X136091628Y-81891628D02*
X135700000Y-81500000D01*
X136091628Y-88283372D02*
X136091628Y-82066628D01*
X130657800Y-93050610D02*
X130978001Y-92730409D01*
X129991010Y-94200000D02*
X130495505Y-93695505D01*
X130657800Y-93533210D02*
X130657800Y-93050610D01*
X133842799Y-92177381D02*
X133842799Y-90532201D01*
X136025608Y-81500000D02*
X135700000Y-81500000D01*
X128800000Y-94200000D02*
X129991010Y-94200000D01*
D25*
X136296600Y-81500000D02*
X136178800Y-81586010D01*
X130495505Y-93695505D02*
X130657800Y-93533210D01*
X130200600Y-93990410D02*
X130495505Y-93695505D01*
D24*
X136091628Y-81673182D02*
X136296600Y-81500000D01*
X130978001Y-92730409D02*
X133289771Y-92730409D01*
X136091628Y-82066628D02*
X136091628Y-81673182D01*
X136091628Y-82066628D02*
X136091628Y-81891628D01*
X111150000Y-103050000D02*
X111150000Y-101697610D01*
X96950000Y-92950000D02*
X107325000Y-103325000D01*
X107325000Y-103325000D02*
X110875000Y-103325000D01*
X111150000Y-101697610D02*
X110958400Y-101506010D01*
X97650000Y-83500000D02*
X97250000Y-83500000D01*
X110875000Y-103325000D02*
X111150000Y-103050000D01*
X97250000Y-83500000D02*
X96950000Y-83800000D01*
X96950000Y-83800000D02*
X96950000Y-92950000D01*
D25*
X130826400Y-118126400D02*
X131722110Y-119022110D01*
X130632400Y-115402610D02*
X130826400Y-115596610D01*
X131722110Y-119022110D02*
X133079660Y-119022110D01*
X133079660Y-119022110D02*
X133397160Y-119339610D01*
X133397160Y-119339610D02*
X135025380Y-119339610D01*
X135025380Y-119339610D02*
X135760000Y-118605000D01*
X130826400Y-115596610D02*
X130826400Y-118126400D01*
D26*
X111303000Y-117536210D02*
X112573000Y-118806210D01*
X104109590Y-118120410D02*
X104693790Y-117536210D01*
X101346200Y-118120410D02*
X104109590Y-118120410D01*
X104693790Y-117536210D02*
X111303000Y-117536210D01*
D27*
X103450000Y-88600000D02*
X103450000Y-93950000D01*
X103450000Y-93950000D02*
X102900000Y-94500000D01*
D26*
X142316400Y-111567210D02*
X144375000Y-109508610D01*
X143770860Y-107445860D02*
X144375000Y-108050000D01*
X135234310Y-107445860D02*
X134930170Y-107750000D01*
X135234310Y-107445860D02*
X143770860Y-107445860D01*
X144375000Y-108050000D02*
X144375000Y-109508610D01*
D28*
X129879240Y-105979240D02*
X124502046Y-105979240D01*
X130800000Y-106900000D02*
X129879240Y-105979240D01*
X124387858Y-106093428D02*
X124393428Y-106093428D01*
X124502046Y-105979240D02*
X124387858Y-106093428D01*
D29*
X127316060Y-105273950D02*
X127384000Y-105206010D01*
X124520260Y-105289980D02*
X127300030Y-105289980D01*
X124455120Y-105355120D02*
X124520260Y-105289980D01*
X113741200Y-107441200D02*
X113741200Y-109788800D01*
X111785600Y-105485600D02*
X113741200Y-107441200D01*
X113741200Y-109788800D02*
X112400000Y-111130000D01*
X111785600Y-104937810D02*
X111785600Y-105485600D01*
X115036800Y-119974610D02*
X115036800Y-128153410D01*
X112400000Y-111130000D02*
X112400000Y-117337810D01*
X112400000Y-117337810D02*
X115036800Y-119974610D01*
D30*
X143144369Y-95155247D02*
X143133275Y-95186950D01*
X143063215Y-91657010D02*
X143031512Y-91668104D01*
X143143870Y-100263870D02*
X143148130Y-100301676D01*
X147990011Y-80858771D02*
X147962195Y-80861905D01*
X142473125Y-94448756D02*
X142473125Y-94544983D01*
X148964491Y-80919500D02*
X148953991Y-80930000D01*
X142482574Y-96764890D02*
X142473125Y-96848756D01*
X142615028Y-91754090D02*
X142555350Y-91813768D01*
X142686489Y-92484551D02*
X142766150Y-92512425D01*
X147837739Y-81112925D02*
X147817947Y-81132717D01*
X143084161Y-99244701D02*
X143051947Y-99264942D01*
X143111063Y-99217799D02*
X143084161Y-99244701D01*
X142850016Y-91671865D02*
X142766150Y-91681314D01*
X143091655Y-92554599D02*
X143115405Y-92578349D01*
X143148130Y-93921870D02*
X143144369Y-93955247D01*
X142850016Y-92871865D02*
X142766150Y-92881314D01*
X142615028Y-96039649D02*
X142686489Y-96084551D01*
X142555350Y-93013768D02*
X142510448Y-93085229D01*
X142510448Y-94285229D02*
X142482574Y-94364890D01*
X143031512Y-97325635D02*
X143063215Y-97336729D01*
X143091655Y-97354599D02*
X143115405Y-97378349D01*
X143144369Y-91555247D02*
X143133275Y-91586950D01*
X142850016Y-96471865D02*
X142766150Y-96481314D01*
X142850016Y-93721875D02*
X142998135Y-93721875D01*
X143016037Y-99277508D02*
X142978232Y-99281768D01*
X142998135Y-95271865D02*
X142850016Y-95271865D01*
X143031512Y-96125635D02*
X143063215Y-96136729D01*
X142473125Y-96944983D02*
X142482574Y-97028849D01*
X143031512Y-96468104D02*
X142998135Y-96471865D01*
X143115405Y-91615390D02*
X143091655Y-91639140D01*
X143115405Y-92815390D02*
X143091655Y-92839140D01*
X142850016Y-94921875D02*
X142998135Y-94921875D01*
X142686489Y-94884551D02*
X142766150Y-94912425D01*
X143133275Y-97406789D02*
X143144369Y-97438492D01*
X148118145Y-81062804D02*
X148115011Y-81034989D01*
X147740011Y-81159989D02*
X145500011Y-81159989D01*
X143144369Y-92638492D02*
X143148130Y-92671870D01*
X148185775Y-81147610D02*
X148162074Y-81132717D01*
X142510448Y-91885229D02*
X142482574Y-91964890D01*
X143148130Y-96321870D02*
X143144369Y-96355247D01*
X147868145Y-80955955D02*
X147865011Y-80983771D01*
X143115405Y-92578349D02*
X143133275Y-92606789D01*
X143133275Y-92786950D02*
X143115405Y-92815390D01*
X142850016Y-95271865D02*
X142766150Y-95281314D01*
X143148130Y-92671870D02*
X143148130Y-92721870D01*
X142555350Y-91813768D02*
X142510448Y-91885229D01*
X148017826Y-80861905D02*
X147990011Y-80858771D01*
X142615028Y-93639649D02*
X142686489Y-93684551D01*
X142766150Y-97312425D02*
X142850016Y-97321875D01*
X143091655Y-95239140D02*
X143063215Y-95257010D01*
X142482574Y-95828849D02*
X142510448Y-95908510D01*
X148067947Y-80886042D02*
X148044246Y-80871149D01*
X142615028Y-92439649D02*
X142686489Y-92484551D01*
X142686489Y-94109188D02*
X142615028Y-94154090D01*
X140286350Y-105036872D02*
X140286350Y-105834520D01*
X143111063Y-100195746D02*
X143131304Y-100227960D01*
X142473125Y-92144983D02*
X142482574Y-92228849D01*
X142998135Y-94921875D02*
X143031512Y-94925635D01*
X142482574Y-92228849D02*
X142510448Y-92308510D01*
X143051947Y-100148603D02*
X143084161Y-100168844D01*
X143148130Y-95121870D02*
X143144369Y-95155247D01*
X143143870Y-99149675D02*
X143131304Y-99185585D01*
X142555350Y-94779971D02*
X142615028Y-94839649D01*
X143063215Y-92536729D02*
X143091655Y-92554599D01*
X143115405Y-95215390D02*
X143091655Y-95239140D01*
X143031512Y-92868104D02*
X142998135Y-92871865D01*
X142555350Y-95413768D02*
X142510448Y-95485229D01*
X148212195Y-81156854D02*
X148185775Y-81147610D01*
X142482574Y-95564890D02*
X142473125Y-95648756D01*
X143084161Y-100168844D02*
X143111063Y-100195746D01*
X143031512Y-94925635D02*
X143063215Y-94936729D01*
X142473125Y-93344983D02*
X142482574Y-93428849D01*
X148087739Y-80905834D02*
X148067947Y-80886042D01*
X143148130Y-102175092D02*
X140286350Y-105036872D01*
X147962195Y-80861905D02*
X147935775Y-80871149D01*
X142472500Y-99505748D02*
X142443238Y-99589373D01*
X143063215Y-97336729D02*
X143091655Y-97354599D01*
X142482574Y-94364890D02*
X142473125Y-94448756D01*
X148142282Y-81112925D02*
X148127389Y-81089224D01*
X143131304Y-99185585D02*
X143111063Y-99217799D01*
X147865011Y-80983771D02*
X147865011Y-81034989D01*
X142686489Y-92909188D02*
X142615028Y-92954090D01*
X142998135Y-96471865D02*
X142850016Y-96471865D01*
X148111876Y-80955955D02*
X148102632Y-80929535D01*
X147794246Y-81147610D02*
X147767826Y-81156854D01*
X142828963Y-99281768D02*
X142740924Y-99291687D01*
X143063215Y-96457010D02*
X143031512Y-96468104D01*
X147892282Y-80905834D02*
X147877389Y-80929535D01*
X143016037Y-100136037D02*
X143051947Y-100148603D01*
X143063215Y-94057010D02*
X143031512Y-94068104D01*
X142686489Y-93684551D02*
X142766150Y-93712425D01*
X142766150Y-94912425D02*
X142850016Y-94921875D01*
X142473125Y-92048756D02*
X142473125Y-92144983D01*
X142850016Y-94071865D02*
X142766150Y-94081314D01*
X142473125Y-93248756D02*
X142473125Y-93344983D01*
X143063215Y-94936729D02*
X143091655Y-94954599D01*
X143144369Y-92755247D02*
X143133275Y-92786950D01*
X143031512Y-94068104D02*
X142998135Y-94071865D01*
X143148130Y-100301676D02*
X143148130Y-102175092D01*
X142582283Y-99368085D02*
X142519636Y-99430732D01*
X143063215Y-96136729D02*
X143091655Y-96154599D01*
X142657299Y-100092596D02*
X142740924Y-100121858D01*
X143115405Y-97378349D02*
X143133275Y-97406789D01*
X143148130Y-99111870D02*
X143143870Y-99149675D01*
X142473125Y-95648756D02*
X142473125Y-95744983D01*
X143133275Y-92606789D02*
X143144369Y-92638492D01*
X142473125Y-94544983D02*
X142482574Y-94628849D01*
X142766150Y-92512425D02*
X142850016Y-92521875D01*
X142482574Y-94628849D02*
X142510448Y-94708510D01*
X142998135Y-91671865D02*
X142850016Y-91671865D01*
X142510448Y-94708510D02*
X142555350Y-94779971D01*
X147865011Y-81034989D02*
X147861876Y-81062804D01*
X143091655Y-92839140D02*
X143063215Y-92857010D01*
X143091655Y-93754599D02*
X143115405Y-93778349D01*
X142998135Y-96121875D02*
X143031512Y-96125635D01*
X143133275Y-96386950D02*
X143115405Y-96415390D01*
X142686489Y-96509188D02*
X142615028Y-96554090D01*
X142473125Y-95744983D02*
X142482574Y-95828849D01*
X142766150Y-96112425D02*
X142850016Y-96121875D01*
X147852632Y-81089224D02*
X147837739Y-81112925D01*
X142686489Y-95309188D02*
X142615028Y-95354090D01*
X142850016Y-96121875D02*
X142998135Y-96121875D01*
X147935775Y-80871149D02*
X147912074Y-80886042D01*
X142740924Y-99291687D02*
X142657299Y-99320949D01*
X143091655Y-91639140D02*
X143063215Y-91657010D01*
X143091655Y-96154599D02*
X143115405Y-96178349D01*
X143148130Y-96271870D02*
X143148130Y-96321870D01*
X142998135Y-92521875D02*
X143031512Y-92525635D01*
X142850016Y-92521875D02*
X142998135Y-92521875D01*
X143091655Y-94039140D02*
X143063215Y-94057010D01*
X143133275Y-95006789D02*
X143144369Y-95038492D01*
X142978232Y-100131778D02*
X143016037Y-100136037D01*
X143133275Y-93806789D02*
X143144369Y-93838492D01*
X142766150Y-93712425D02*
X142850016Y-93721875D01*
X143148130Y-95071870D02*
X143148130Y-95121870D01*
X143091655Y-94954599D02*
X143115405Y-94978349D01*
X142482574Y-91964890D02*
X142473125Y-92048756D01*
X142510448Y-95908510D02*
X142555350Y-95979971D01*
X142998135Y-92871865D02*
X142850016Y-92871865D01*
X142510448Y-95485229D02*
X142482574Y-95564890D01*
X142828963Y-100131778D02*
X142978232Y-100131778D01*
X142555350Y-97179971D02*
X142615028Y-97239649D01*
X142473125Y-96848756D02*
X142473125Y-96944983D01*
X148240011Y-81159989D02*
X148212195Y-81156854D01*
X142686489Y-91709188D02*
X142615028Y-91754090D01*
X143144369Y-96238492D02*
X143148130Y-96271870D01*
X142766150Y-94081314D02*
X142686489Y-94109188D01*
X142555350Y-94213768D02*
X142510448Y-94285229D01*
X148127389Y-81089224D02*
X148118145Y-81062804D01*
X142510448Y-93085229D02*
X142482574Y-93164890D01*
X143063215Y-93736729D02*
X143091655Y-93754599D01*
X143031512Y-91668104D02*
X142998135Y-91671865D01*
X142615028Y-94839649D02*
X142686489Y-94884551D01*
X143031512Y-92525635D02*
X143063215Y-92536729D01*
X142433319Y-99677412D02*
X142433319Y-99736133D01*
X148430011Y-81159989D02*
X148240011Y-81159989D01*
X143148130Y-93871870D02*
X143148130Y-93921870D01*
X142519636Y-99982813D02*
X142582283Y-100045460D01*
X143148130Y-97471870D02*
X143148130Y-99111870D01*
X143115405Y-96415390D02*
X143091655Y-96439140D01*
X143063215Y-95257010D02*
X143031512Y-95268104D01*
X142850016Y-97321875D02*
X142998135Y-97321875D01*
X143063215Y-92857010D02*
X143031512Y-92868104D01*
X142443238Y-99824172D02*
X142472500Y-99907797D01*
X147817947Y-81132717D02*
X147794246Y-81147610D01*
X142686489Y-96084551D02*
X142766150Y-96112425D01*
X142555350Y-96613768D02*
X142510448Y-96685229D01*
X148162074Y-81132717D02*
X148142282Y-81112925D01*
X142657299Y-99320949D02*
X142582283Y-99368085D01*
X143144369Y-97438492D02*
X143148130Y-97471870D01*
X148115011Y-80983771D02*
X148111876Y-80955955D01*
X142510448Y-96685229D02*
X142482574Y-96764890D01*
X142555350Y-92379971D02*
X142615028Y-92439649D01*
X143115405Y-93778349D02*
X143133275Y-93806789D01*
X148660000Y-80930000D02*
X148430011Y-81159989D01*
X148115011Y-81034989D02*
X148115011Y-80983771D01*
X142443238Y-99589373D02*
X142433319Y-99677412D01*
X142482574Y-93428849D02*
X142510448Y-93508510D01*
X142998135Y-94071865D02*
X142850016Y-94071865D01*
X143144369Y-93838492D02*
X143148130Y-93871870D01*
X143148130Y-92721870D02*
X143144369Y-92755247D01*
X143133275Y-91586950D02*
X143115405Y-91615390D01*
X148044246Y-80871149D02*
X148017826Y-80861905D01*
X142766150Y-91681314D02*
X142686489Y-91709188D01*
X143031512Y-95268104D02*
X142998135Y-95271865D01*
X142998135Y-93721875D02*
X143031512Y-93725635D01*
X142510448Y-93508510D02*
X142555350Y-93579971D01*
X142615028Y-94154090D02*
X142555350Y-94213768D01*
X143115405Y-94978349D02*
X143133275Y-95006789D01*
X142978232Y-99281768D02*
X142828963Y-99281768D01*
X147767826Y-81156854D02*
X147740011Y-81159989D01*
X142766150Y-92881314D02*
X142686489Y-92909188D01*
X142766150Y-96481314D02*
X142686489Y-96509188D01*
X142482574Y-93164890D02*
X142473125Y-93248756D01*
X142740924Y-100121858D02*
X142828963Y-100131778D01*
X142582283Y-100045460D02*
X142657299Y-100092596D01*
X147877389Y-80929535D02*
X147868145Y-80955955D01*
X142615028Y-92954090D02*
X142555350Y-93013768D01*
X142555350Y-95979971D02*
X142615028Y-96039649D01*
X142615028Y-96554090D02*
X142555350Y-96613768D01*
X143148130Y-91521870D02*
X143144369Y-91555247D01*
X140286350Y-105834520D02*
X140098850Y-106022020D01*
X142686489Y-97284551D02*
X142766150Y-97312425D01*
X143091655Y-96439140D02*
X143063215Y-96457010D01*
X147912074Y-80886042D02*
X147892282Y-80905834D01*
X143144369Y-95038492D02*
X143148130Y-95071870D01*
X143051947Y-99264942D02*
X143016037Y-99277508D01*
X148953991Y-80930000D02*
X148660000Y-80930000D01*
X143131304Y-100227960D02*
X143143870Y-100263870D01*
X142433319Y-99736133D02*
X142443238Y-99824172D01*
X143133275Y-96206789D02*
X143144369Y-96238492D01*
X143148130Y-83511870D02*
X143148130Y-91521870D01*
X142766150Y-95281314D02*
X142686489Y-95309188D01*
X143144369Y-96355247D02*
X143133275Y-96386950D01*
X142510448Y-97108510D02*
X142555350Y-97179971D01*
X143031512Y-93725635D02*
X143063215Y-93736729D01*
X148102632Y-80929535D02*
X148087739Y-80905834D01*
X143144369Y-93955247D02*
X143133275Y-93986950D01*
X147861876Y-81062804D02*
X147852632Y-81089224D01*
X143115405Y-96178349D02*
X143133275Y-96206789D01*
X142998135Y-97321875D02*
X143031512Y-97325635D01*
X145500011Y-81159989D02*
X143148130Y-83511870D01*
X142519636Y-99430732D02*
X142472500Y-99505748D01*
X143115405Y-94015390D02*
X143091655Y-94039140D01*
X142615028Y-97239649D02*
X142686489Y-97284551D01*
X143133275Y-95186950D02*
X143115405Y-95215390D01*
X142615028Y-95354090D02*
X142555350Y-95413768D01*
X143133275Y-93986950D02*
X143115405Y-94015390D01*
X142472500Y-99907797D02*
X142519636Y-99982813D01*
X142482574Y-97028849D02*
X142510448Y-97108510D01*
X142510448Y-92308510D02*
X142555350Y-92379971D01*
X142555350Y-93579971D02*
X142615028Y-93639649D01*
X142808049Y-94657010D02*
X142839752Y-94668104D01*
X142737989Y-92006789D02*
X142726895Y-92038492D01*
X143360816Y-92485229D02*
X143388690Y-92564890D01*
X142815421Y-99536037D02*
X142779511Y-99548603D01*
X142779609Y-96754599D02*
X142755859Y-96778349D01*
X143388690Y-96428849D02*
X143360816Y-96508510D01*
X143315914Y-94179971D02*
X143256236Y-94239649D01*
X143184775Y-92309188D02*
X143256236Y-92354090D01*
X142873130Y-95521875D02*
X142839752Y-95525635D01*
X143174159Y-99920949D02*
X143249175Y-99968085D01*
X142808049Y-91936729D02*
X142779609Y-91954599D01*
X142726895Y-92038492D02*
X142723135Y-92071870D01*
X142726895Y-94555247D02*
X142737989Y-94586950D01*
X143256236Y-95439649D02*
X143184775Y-95484551D01*
X143002495Y-99881768D02*
X143090534Y-99891687D01*
X142755859Y-94615390D02*
X142779609Y-94639140D01*
X143256236Y-93039649D02*
X143184775Y-93084551D01*
X142737989Y-96986950D02*
X142755859Y-97015390D01*
X143249175Y-99445460D02*
X143174159Y-99492596D01*
X143315914Y-92413768D02*
X143360816Y-92485229D01*
X142723135Y-95671870D02*
X142723135Y-95721870D01*
X142808049Y-94336729D02*
X142779609Y-94354599D01*
X143256236Y-91839649D02*
X143184775Y-91884551D01*
X143184775Y-93509188D02*
X143256236Y-93554090D01*
X143398140Y-92648756D02*
X143398140Y-92744983D01*
X142779609Y-92239140D02*
X142808049Y-92257010D01*
X143398140Y-97448756D02*
X143398140Y-99136133D01*
X143388690Y-92828849D02*
X143360816Y-92908510D01*
X143388690Y-95228849D02*
X143360816Y-95308510D01*
X142726895Y-96955247D02*
X142737989Y-96986950D01*
X143398140Y-95048756D02*
X143398140Y-95144983D01*
X142808049Y-96736729D02*
X142779609Y-96754599D01*
X142726895Y-93238492D02*
X142723135Y-93271870D01*
X142873130Y-95871865D02*
X143021248Y-95871865D01*
X143021248Y-95871865D02*
X143105114Y-95881314D01*
X143002495Y-99531778D02*
X142853227Y-99531778D01*
X143398140Y-96248756D02*
X143398140Y-96344983D01*
X143311822Y-99382813D02*
X143249175Y-99445460D01*
X143021248Y-95521875D02*
X142873130Y-95521875D01*
X142839752Y-97068104D02*
X142873130Y-97071865D01*
X143256236Y-97154090D02*
X143315914Y-97213768D01*
X142755859Y-95815390D02*
X142779609Y-95839140D01*
X143021248Y-97071865D02*
X143105114Y-97081314D01*
X142808049Y-92257010D02*
X142839752Y-92268104D01*
X142723135Y-93271870D02*
X142723135Y-93321870D01*
X142873130Y-93121875D02*
X142839752Y-93125635D01*
X142737989Y-93386950D02*
X142755859Y-93415390D01*
X142808049Y-93457010D02*
X142839752Y-93468104D01*
X142737989Y-96806789D02*
X142726895Y-96838492D01*
X143360816Y-93685229D02*
X143388690Y-93764890D01*
X142873130Y-93471865D02*
X143021248Y-93471865D01*
X143256236Y-94754090D02*
X143315914Y-94813768D01*
X143315914Y-91779971D02*
X143256236Y-91839649D01*
X143398140Y-92744983D02*
X143388690Y-92828849D01*
X142873130Y-96721875D02*
X142839752Y-96725635D01*
X143105114Y-92281314D02*
X143184775Y-92309188D01*
X142873130Y-94321875D02*
X142839752Y-94325635D01*
X142723135Y-95721870D02*
X142726895Y-95755247D01*
X143090534Y-99891687D02*
X143174159Y-99920949D01*
X143184775Y-97109188D02*
X143256236Y-97154090D01*
X142808049Y-93136729D02*
X142779609Y-93154599D01*
X142723135Y-92121870D02*
X142726895Y-92155247D01*
X143360816Y-96508510D02*
X143315914Y-96579971D01*
X142853227Y-99881768D02*
X143002495Y-99881768D01*
X142700154Y-99627960D02*
X142687588Y-99663870D01*
X142755859Y-95578349D02*
X142737989Y-95606789D01*
X142755859Y-92215390D02*
X142779609Y-92239140D01*
X143360816Y-95308510D02*
X143315914Y-95379971D01*
X143398140Y-91544983D02*
X143388690Y-91628849D01*
X142726895Y-96838492D02*
X142723135Y-96871870D01*
X143184775Y-95484551D02*
X143105114Y-95512425D01*
X142839752Y-94668104D02*
X142873130Y-94671865D01*
X143105114Y-97081314D02*
X143184775Y-97109188D01*
X142873130Y-91921875D02*
X142839752Y-91925635D01*
X143021248Y-94321875D02*
X142873130Y-94321875D01*
X143388690Y-94028849D02*
X143360816Y-94108510D01*
X149109395Y-81410000D02*
X145603568Y-81410000D01*
X142839752Y-92268104D02*
X142873130Y-92271865D01*
X143388690Y-96164890D02*
X143398140Y-96248756D01*
X143315914Y-96013768D02*
X143360816Y-96085229D01*
X142726895Y-94438492D02*
X142723135Y-94471870D01*
X143174159Y-99492596D02*
X143090534Y-99521858D01*
X143315914Y-92979971D02*
X143256236Y-93039649D01*
X143090534Y-99521858D02*
X143002495Y-99531778D01*
X142723135Y-94471870D02*
X142723135Y-94521870D01*
X143256236Y-96639649D02*
X143184775Y-96684551D01*
X142726895Y-92155247D02*
X142737989Y-92186950D01*
X143315914Y-97213768D02*
X143360816Y-97285229D01*
X142737989Y-93206789D02*
X142726895Y-93238492D01*
X143105114Y-95512425D02*
X143021248Y-95521875D01*
X142723135Y-96921870D02*
X142726895Y-96955247D01*
X142808049Y-97057010D02*
X142839752Y-97068104D01*
X143021248Y-92271865D02*
X143105114Y-92281314D01*
X143256236Y-94239649D02*
X143184775Y-94284551D01*
X142737989Y-95786950D02*
X142755859Y-95815390D01*
X142723135Y-94521870D02*
X142726895Y-94555247D01*
X142779609Y-94639140D02*
X142808049Y-94657010D01*
X142839752Y-94325635D02*
X142808049Y-94336729D01*
X142873130Y-94671865D02*
X143021248Y-94671865D01*
X143105114Y-96712425D02*
X143021248Y-96721875D01*
X142779609Y-95839140D02*
X142808049Y-95857010D01*
X142755859Y-93178349D02*
X142737989Y-93206789D01*
X143398140Y-93944983D02*
X143388690Y-94028849D01*
X143105114Y-93481314D02*
X143184775Y-93509188D01*
X143315914Y-94813768D02*
X143360816Y-94885229D01*
X142779609Y-95554599D02*
X142755859Y-95578349D01*
X142853227Y-99531778D02*
X142815421Y-99536037D01*
X142779609Y-93439140D02*
X142808049Y-93457010D01*
X143021248Y-91921875D02*
X142873130Y-91921875D01*
X142839752Y-93125635D02*
X142808049Y-93136729D01*
X140536350Y-105834520D02*
X140723850Y-106022020D01*
X142779609Y-94354599D02*
X142755859Y-94378349D01*
X142839752Y-96725635D02*
X142808049Y-96736729D01*
X142839752Y-93468104D02*
X142873130Y-93471865D01*
X142755859Y-91978349D02*
X142737989Y-92006789D01*
X143315914Y-93613768D02*
X143360816Y-93685229D01*
X142726895Y-95755247D02*
X142737989Y-95786950D01*
X142720395Y-99817799D02*
X142747297Y-99844701D01*
X143398140Y-99136133D02*
X143388220Y-99224172D01*
X142687588Y-99749675D02*
X142700154Y-99785585D01*
X143388690Y-97364890D02*
X143398140Y-97448756D01*
X143105114Y-93112425D02*
X143021248Y-93121875D01*
X142737989Y-94586950D02*
X142755859Y-94615390D01*
X143021248Y-94671865D02*
X143105114Y-94681314D01*
X142737989Y-92186950D02*
X142755859Y-92215390D01*
X143398141Y-83615427D02*
X143398140Y-91544983D01*
X142687588Y-99663870D02*
X142683329Y-99701676D01*
X143398140Y-93848756D02*
X143398140Y-93944983D01*
X143021248Y-93121875D02*
X142873130Y-93121875D01*
X143398141Y-102278637D02*
X140536350Y-105140428D01*
X149599895Y-80919500D02*
X149109395Y-81410000D01*
X145603568Y-81410000D02*
X143398141Y-83615427D01*
X143315914Y-96579971D02*
X143256236Y-96639649D01*
X143398140Y-95144983D02*
X143388690Y-95228849D01*
X143249175Y-99968085D02*
X143311822Y-100030732D01*
X143358958Y-99307797D02*
X143311822Y-99382813D01*
X143358958Y-100105748D02*
X143388220Y-100189373D01*
X142779511Y-99548603D02*
X142747297Y-99568844D01*
X142720395Y-99595746D02*
X142700154Y-99627960D01*
X142737989Y-95606789D02*
X142726895Y-95638492D01*
X143256236Y-92354090D02*
X143315914Y-92413768D01*
X142700154Y-99785585D02*
X142720395Y-99817799D01*
X142723135Y-96871870D02*
X142723135Y-96921870D01*
X142683329Y-99711870D02*
X142687588Y-99749675D01*
X142726895Y-95638492D02*
X142723135Y-95671870D01*
X142873130Y-92271865D02*
X143021248Y-92271865D01*
X142873130Y-97071865D02*
X143021248Y-97071865D01*
X142815421Y-99877508D02*
X142853227Y-99881768D01*
X143360816Y-91708510D02*
X143315914Y-91779971D01*
X143398140Y-96344983D02*
X143388690Y-96428849D01*
X142755859Y-93415390D02*
X142779609Y-93439140D01*
X143184775Y-95909188D02*
X143256236Y-95954090D01*
X143360816Y-94885229D02*
X143388690Y-94964890D01*
X143388220Y-99224172D02*
X143358958Y-99307797D01*
X142755859Y-97015390D02*
X142779609Y-97039140D01*
X142779609Y-91954599D02*
X142755859Y-91978349D01*
X143105114Y-94312425D02*
X143021248Y-94321875D01*
X143388690Y-92564890D02*
X143398140Y-92648756D01*
X143388690Y-93764890D02*
X143398140Y-93848756D01*
X143105114Y-91912425D02*
X143021248Y-91921875D01*
X142808049Y-95536729D02*
X142779609Y-95554599D01*
X143256236Y-93554090D02*
X143315914Y-93613768D01*
X143388690Y-91628849D02*
X143360816Y-91708510D01*
X143105114Y-94681314D02*
X143184775Y-94709188D01*
X143184775Y-94284551D02*
X143105114Y-94312425D01*
X142683329Y-99701676D02*
X142683329Y-99711870D01*
X142755859Y-96778349D02*
X142737989Y-96806789D01*
X143398140Y-100277412D02*
X143398141Y-102278637D01*
X142779511Y-99864942D02*
X142815421Y-99877508D01*
X143184775Y-94709188D02*
X143256236Y-94754090D01*
X142747297Y-99844701D02*
X142779511Y-99864942D01*
X143311822Y-100030732D02*
X143358958Y-100105748D01*
X142839752Y-95525635D02*
X142808049Y-95536729D01*
X143388220Y-100189373D02*
X143398140Y-100277412D01*
X143184775Y-96684551D02*
X143105114Y-96712425D01*
X142839752Y-95868104D02*
X142873130Y-95871865D01*
X142755859Y-94378349D02*
X142737989Y-94406789D01*
X143360816Y-94108510D02*
X143315914Y-94179971D01*
X143021248Y-93471865D02*
X143105114Y-93481314D01*
X142779609Y-97039140D02*
X142808049Y-97057010D01*
X143021248Y-96721875D02*
X142873130Y-96721875D01*
X143315914Y-95379971D02*
X143256236Y-95439649D01*
X142737989Y-94406789D02*
X142726895Y-94438492D01*
X143184775Y-93084551D02*
X143105114Y-93112425D01*
X142723135Y-93321870D02*
X142726895Y-93355247D01*
X143360816Y-97285229D02*
X143388690Y-97364890D01*
X140536350Y-105140428D02*
X140536350Y-105834520D01*
X143360816Y-92908510D02*
X143315914Y-92979971D01*
X142808049Y-95857010D02*
X142839752Y-95868104D01*
X142747297Y-99568844D02*
X142720395Y-99595746D01*
X143105114Y-95881314D02*
X143184775Y-95909188D01*
X143256236Y-95954090D02*
X143315914Y-96013768D01*
X142839752Y-91925635D02*
X142808049Y-91936729D01*
X143184775Y-91884551D02*
X143105114Y-91912425D01*
X143360816Y-96085229D02*
X143388690Y-96164890D01*
X143388690Y-94964890D02*
X143398140Y-95048756D01*
X142779609Y-93154599D02*
X142755859Y-93178349D01*
X142723135Y-92071870D02*
X142723135Y-92121870D01*
X142726895Y-93355247D02*
X142737989Y-93386950D01*
X145230059Y-94244860D02*
X144900582Y-94244860D01*
X145339169Y-98156680D02*
X145366879Y-98128970D01*
X144539796Y-98818163D02*
X144510179Y-98733524D01*
X145387728Y-99143930D02*
X145366879Y-99110749D01*
X145230059Y-99044860D02*
X144900582Y-99044860D01*
X145230059Y-99394860D02*
X145269000Y-99390472D01*
X145387728Y-94343930D02*
X145366879Y-94310749D01*
X144726836Y-95834516D02*
X144811475Y-95804899D01*
X144650910Y-97082223D02*
X144726836Y-97034516D01*
X144510179Y-98506195D02*
X144539796Y-98421556D01*
X145400671Y-99180918D02*
X145387728Y-99143930D01*
X144510179Y-94906195D02*
X144539796Y-94821556D01*
X145339169Y-97883039D02*
X145305988Y-97862190D01*
X144900582Y-94594860D02*
X145230059Y-94594860D01*
X144500140Y-83859860D02*
X146197380Y-82162620D01*
X144811475Y-99404899D02*
X144900582Y-99394860D01*
X144650910Y-94682223D02*
X144726836Y-94634516D01*
X145405059Y-93219860D02*
X145400671Y-93180918D01*
X145366879Y-94310749D02*
X145339169Y-94283039D01*
X144587503Y-93545630D02*
X144650910Y-93482223D01*
X145387728Y-98095789D02*
X145400671Y-98058801D01*
X146716380Y-82045999D02*
X146727474Y-82077703D01*
X144587503Y-97145630D02*
X144650910Y-97082223D01*
X145305988Y-94577529D02*
X145339169Y-94556680D01*
X144811475Y-93404899D02*
X144900582Y-93394860D01*
X144510179Y-99706195D02*
X144539796Y-99621556D01*
X144650910Y-99482223D02*
X144726836Y-99434516D01*
X144510179Y-93706195D02*
X144539796Y-93621556D01*
X144900582Y-98194860D02*
X145230059Y-98194860D01*
X144500140Y-99795302D02*
X144510179Y-99706195D01*
X146379894Y-82106144D02*
X146397765Y-82077703D01*
X145400671Y-97980918D02*
X145387728Y-97943930D01*
X146408859Y-82045999D02*
X146412620Y-82012620D01*
X145305988Y-95777529D02*
X145339169Y-95756680D01*
X144811475Y-98204899D02*
X144900582Y-98194860D01*
X145269000Y-93049247D02*
X145230059Y-93044860D01*
X144587503Y-99545630D02*
X144650910Y-99482223D01*
X146412620Y-81996577D02*
X146416380Y-81963199D01*
X144900582Y-99394860D02*
X145230059Y-99394860D01*
X145305988Y-98177529D02*
X145339169Y-98156680D01*
X144539796Y-94821556D02*
X144587503Y-94745630D01*
X145269000Y-93390472D02*
X145305988Y-93377529D01*
X144500140Y-92644417D02*
X144500140Y-83859860D01*
X145230059Y-93044860D02*
X144900582Y-93044860D01*
X145400671Y-96780918D02*
X145387728Y-96743930D01*
X144900582Y-99044860D02*
X144811475Y-99034820D01*
X144539796Y-93621556D02*
X144587503Y-93545630D01*
X144726836Y-93005203D02*
X144650910Y-92957496D01*
X144587503Y-96494089D02*
X144539796Y-96418163D01*
X146356143Y-82129895D02*
X146379894Y-82106144D01*
X144650910Y-95882223D02*
X144726836Y-95834516D01*
X145366879Y-95510749D02*
X145339169Y-95483039D01*
X144650910Y-95357496D02*
X144587503Y-95294089D01*
X146829241Y-82158860D02*
X146862620Y-82162620D01*
X144650910Y-93482223D02*
X144726836Y-93434516D01*
X144650910Y-98282223D02*
X144726836Y-98234516D01*
X146427474Y-81931495D02*
X146445345Y-81903054D01*
X145405059Y-95619860D02*
X145400671Y-95580918D01*
X146769096Y-82129895D02*
X146797537Y-82147766D01*
X145400671Y-93258801D02*
X145405059Y-93219860D01*
X145230059Y-96994860D02*
X145269000Y-96990472D01*
X145339169Y-96683039D02*
X145305988Y-96662190D01*
X144900582Y-93394860D02*
X145230059Y-93394860D01*
X145400671Y-94458801D02*
X145405059Y-94419860D01*
X145387728Y-93295789D02*
X145400671Y-93258801D01*
X147455870Y-82154010D02*
X147421800Y-82154010D01*
X145387728Y-96895789D02*
X145400671Y-96858801D01*
X144811475Y-99034820D02*
X144726836Y-99005203D01*
X144510179Y-98733524D02*
X144500140Y-98644417D01*
X144726836Y-97805203D02*
X144650910Y-97757496D01*
X144587503Y-98345630D02*
X144650910Y-98282223D01*
X145230059Y-98194860D02*
X145269000Y-98190472D01*
X144650910Y-98957496D02*
X144587503Y-98894089D01*
X145305988Y-95462190D02*
X145269000Y-95449247D01*
X146416380Y-81963199D02*
X146427474Y-81931495D01*
X146679894Y-81903054D02*
X146697765Y-81931495D01*
X145366879Y-99328970D02*
X145387728Y-99295789D01*
X145405059Y-99219860D02*
X145400671Y-99180918D01*
X144539796Y-96021556D02*
X144587503Y-95945630D01*
X145387728Y-94495789D02*
X145400671Y-94458801D01*
X144726836Y-99434516D02*
X144811475Y-99404899D01*
X144500140Y-98644417D02*
X144500140Y-98595302D01*
X144539796Y-98421556D02*
X144587503Y-98345630D01*
X145305988Y-96662190D02*
X145269000Y-96649247D01*
X146197380Y-82162620D02*
X146262620Y-82162620D01*
X144539796Y-96418163D02*
X144510179Y-96333524D01*
X145339169Y-93083039D02*
X145305988Y-93062190D01*
X145366879Y-96928970D02*
X145387728Y-96895789D01*
X145339169Y-95483039D02*
X145305988Y-95462190D01*
X142239860Y-104783362D02*
X144500140Y-102523082D01*
X144587503Y-94094089D02*
X144539796Y-94018163D01*
X145269000Y-99390472D02*
X145305988Y-99377529D01*
X145269000Y-99049247D02*
X145230059Y-99044860D01*
X146697765Y-81931495D02*
X146708859Y-81963199D01*
X144587503Y-97694089D02*
X144539796Y-97618163D01*
X146745345Y-82106144D02*
X146769096Y-82129895D01*
X146562620Y-81846577D02*
X146595998Y-81850338D01*
X146497537Y-81861432D02*
X146529241Y-81850338D01*
X146327702Y-82147766D02*
X146356143Y-82129895D01*
X145269000Y-98190472D02*
X145305988Y-98177529D01*
X145305988Y-99062190D02*
X145269000Y-99049247D01*
X145366879Y-98128970D02*
X145387728Y-98095789D01*
X145366879Y-97910749D02*
X145339169Y-97883039D01*
X144900582Y-94244860D02*
X144811475Y-94234820D01*
X144811475Y-94234820D02*
X144726836Y-94205203D01*
X146469096Y-81879303D02*
X146497537Y-81861432D01*
X145230059Y-93394860D02*
X145269000Y-93390472D01*
X145387728Y-95695789D02*
X145400671Y-95658801D01*
X145366879Y-95728970D02*
X145387728Y-95695789D01*
X144500140Y-97395302D02*
X144510179Y-97306195D01*
X142239860Y-105834520D02*
X142239860Y-104783362D01*
X145387728Y-93143930D02*
X145366879Y-93110749D01*
X145405059Y-94419860D02*
X145400671Y-94380918D01*
X145339169Y-93356680D02*
X145366879Y-93328970D01*
X144811475Y-94604899D02*
X144900582Y-94594860D01*
X144539796Y-99621556D02*
X144587503Y-99545630D01*
X145400671Y-98058801D02*
X145405059Y-98019860D01*
X144510179Y-97306195D02*
X144539796Y-97221556D01*
X145387728Y-96743930D02*
X145366879Y-96710749D01*
X144587503Y-92894089D02*
X144539796Y-92818163D01*
X144726836Y-95405203D02*
X144650910Y-95357496D01*
X146445345Y-81903054D02*
X146469096Y-81879303D01*
X142052360Y-106022020D02*
X142239860Y-105834520D01*
X146595998Y-81850338D02*
X146627702Y-81861432D01*
X145387728Y-99295789D02*
X145400671Y-99258801D01*
X144650910Y-92957496D02*
X144587503Y-92894089D01*
X144726836Y-97034516D02*
X144811475Y-97004899D01*
X146797537Y-82147766D02*
X146829241Y-82158860D01*
X145366879Y-96710749D02*
X145339169Y-96683039D01*
X146712620Y-81996577D02*
X146712620Y-82012620D01*
X145269000Y-94590472D02*
X145305988Y-94577529D01*
X145366879Y-93328970D02*
X145387728Y-93295789D01*
X144539796Y-94018163D02*
X144510179Y-93933524D01*
X144500140Y-93844417D02*
X144500140Y-93795302D01*
X144726836Y-94205203D02*
X144650910Y-94157496D01*
X144811475Y-97834820D02*
X144726836Y-97805203D01*
X144587503Y-95294089D02*
X144539796Y-95218163D01*
X144500140Y-94995302D02*
X144510179Y-94906195D01*
X145305988Y-97862190D02*
X145269000Y-97849247D01*
X145366879Y-93110749D02*
X145339169Y-93083039D01*
X145269000Y-95449247D02*
X145230059Y-95444860D01*
X145405059Y-98019860D02*
X145400671Y-97980918D01*
X144900582Y-95794860D02*
X145230059Y-95794860D01*
X145339169Y-95756680D02*
X145366879Y-95728970D01*
X145230059Y-94594860D02*
X145269000Y-94590472D01*
X144510179Y-92733524D02*
X144500140Y-92644417D01*
X146529241Y-81850338D02*
X146562620Y-81846577D01*
X145230059Y-96644860D02*
X144900582Y-96644860D01*
X144726836Y-94634516D02*
X144811475Y-94604899D01*
X144650910Y-94157496D02*
X144587503Y-94094089D01*
X144587503Y-95945630D02*
X144650910Y-95882223D01*
X144587503Y-94745630D02*
X144650910Y-94682223D01*
X145305988Y-93377529D02*
X145339169Y-93356680D01*
X144510179Y-96333524D02*
X144500140Y-96244417D01*
X144900582Y-95444860D02*
X144811475Y-95434820D01*
X144900582Y-96644860D02*
X144811475Y-96634820D01*
X146712620Y-82012620D02*
X146716380Y-82045999D01*
X144510179Y-93933524D02*
X144500140Y-93844417D01*
X145400671Y-95580918D02*
X145387728Y-95543930D01*
X144650910Y-97757496D02*
X144587503Y-97694089D01*
X146627702Y-81861432D02*
X146656143Y-81879303D01*
X144726836Y-98234516D02*
X144811475Y-98204899D01*
X144726836Y-99005203D02*
X144650910Y-98957496D01*
X144811475Y-96634820D02*
X144726836Y-96605203D01*
X144539796Y-92818163D02*
X144510179Y-92733524D01*
X144500140Y-97444417D02*
X144500140Y-97395302D01*
X144650910Y-96557496D02*
X144587503Y-96494089D01*
X145269000Y-96990472D02*
X145305988Y-96977529D01*
X145400671Y-95658801D02*
X145405059Y-95619860D01*
X145339169Y-94283039D02*
X145305988Y-94262190D01*
X145339169Y-99083039D02*
X145305988Y-99062190D01*
X144500140Y-93795302D02*
X144510179Y-93706195D01*
X145305988Y-99377529D02*
X145339169Y-99356680D01*
X144500140Y-96244417D02*
X144500140Y-96195302D01*
X146397765Y-82077703D02*
X146408859Y-82045999D01*
X144726836Y-93434516D02*
X144811475Y-93404899D01*
X144500140Y-98595302D02*
X144510179Y-98506195D01*
X144510179Y-95133524D02*
X144500140Y-95044417D01*
X144811475Y-93034820D02*
X144726836Y-93005203D01*
X146262620Y-82162620D02*
X146295998Y-82158860D01*
X145269000Y-97849247D02*
X145230059Y-97844860D01*
X145366879Y-99110749D02*
X145339169Y-99083039D01*
X146727474Y-82077703D02*
X146745345Y-82106144D01*
X144510179Y-97533524D02*
X144500140Y-97444417D01*
X146708859Y-81963199D02*
X146712620Y-81996577D01*
X144900582Y-93044860D02*
X144811475Y-93034820D01*
X144900582Y-97844860D02*
X144811475Y-97834820D01*
X144500140Y-95044417D02*
X144500140Y-94995302D01*
X145269000Y-96649247D02*
X145230059Y-96644860D01*
X144539796Y-97221556D02*
X144587503Y-97145630D01*
X145400671Y-96858801D02*
X145405059Y-96819860D01*
X144510179Y-96106195D02*
X144539796Y-96021556D01*
X147464480Y-82162620D02*
X147455870Y-82154010D01*
X146656143Y-81879303D02*
X146679894Y-81903054D01*
X145405059Y-96819860D02*
X145400671Y-96780918D01*
X145305988Y-96977529D02*
X145339169Y-96956680D01*
X144539796Y-97618163D02*
X144510179Y-97533524D01*
X144811475Y-97004899D02*
X144900582Y-96994860D01*
X145400671Y-99258801D02*
X145405059Y-99219860D01*
X144900582Y-96994860D02*
X145230059Y-96994860D01*
X145230059Y-95794860D02*
X145269000Y-95790472D01*
X145400671Y-93180918D02*
X145387728Y-93143930D01*
X145387728Y-97943930D02*
X145366879Y-97910749D01*
X146295998Y-82158860D02*
X146327702Y-82147766D01*
X144811475Y-95434820D02*
X144726836Y-95405203D01*
X144811475Y-95804899D02*
X144900582Y-95794860D01*
X145339169Y-99356680D02*
X145366879Y-99328970D01*
X145230059Y-95444860D02*
X144900582Y-95444860D01*
X145387728Y-95543930D02*
X145366879Y-95510749D01*
X146412620Y-82012620D02*
X146412620Y-81996577D01*
X145269000Y-95790472D02*
X145305988Y-95777529D01*
X145305988Y-93062190D02*
X145269000Y-93049247D01*
X145339169Y-94556680D02*
X145366879Y-94528970D01*
X144539796Y-95218163D02*
X144510179Y-95133524D01*
X146862620Y-82162620D02*
X147464480Y-82162620D01*
X144500140Y-102523082D02*
X144500140Y-99795302D01*
X144726836Y-96605203D02*
X144650910Y-96557496D01*
X145339169Y-96956680D02*
X145366879Y-96928970D01*
X145269000Y-94249247D02*
X145230059Y-94244860D01*
X145366879Y-94528970D02*
X145387728Y-94495789D01*
X145230059Y-97844860D02*
X144900582Y-97844860D01*
X144500140Y-96195302D02*
X144510179Y-96106195D01*
X145400671Y-94380918D02*
X145387728Y-94343930D01*
X145305988Y-94262190D02*
X145269000Y-94249247D01*
X144587503Y-98894089D02*
X144539796Y-98818163D01*
X144754527Y-93858801D02*
X144750140Y-93819860D01*
X144925140Y-98794860D02*
X144886198Y-98790472D01*
X145645019Y-93106195D02*
X145615402Y-93021556D01*
X145428362Y-96005203D02*
X145504288Y-95957496D01*
X144767470Y-97495789D02*
X144754527Y-97458801D01*
X144925140Y-93994860D02*
X144886198Y-93990472D01*
X144767470Y-94943930D02*
X144788319Y-94910749D01*
X144849210Y-96062190D02*
X144886198Y-96049247D01*
X144886198Y-95190472D02*
X144849210Y-95177529D01*
X144886198Y-96049247D02*
X144925140Y-96044860D01*
X145655059Y-97995302D02*
X145645019Y-97906195D01*
X145343723Y-94834820D02*
X145428362Y-94805203D01*
X145504288Y-95282223D02*
X145428362Y-95234516D01*
X144767470Y-99743930D02*
X144788319Y-99710749D01*
X145428362Y-94034516D02*
X145343723Y-94004899D01*
X142489860Y-105834520D02*
X142489860Y-104886918D01*
X145567695Y-92945630D02*
X145504288Y-92882223D01*
X145567695Y-97745630D02*
X145504288Y-97682223D01*
X144886198Y-94849247D02*
X144925140Y-94844860D01*
X145504288Y-95957496D02*
X145567695Y-95894089D01*
X145615402Y-97821556D02*
X145567695Y-97745630D01*
X144925140Y-95194860D02*
X144886198Y-95190472D01*
X145615402Y-93418163D02*
X145645019Y-93333524D01*
X145567695Y-99494089D02*
X145615402Y-99418163D01*
X145343723Y-93634820D02*
X145428362Y-93605203D01*
X145567695Y-95894089D02*
X145615402Y-95818163D01*
X144750140Y-93819860D02*
X144754527Y-93780918D01*
X144849210Y-92777529D02*
X144816029Y-92756680D01*
X145254616Y-97244860D02*
X145343723Y-97234820D01*
X144886198Y-93990472D02*
X144849210Y-93977529D01*
X147061690Y-82412620D02*
X147240580Y-82591520D01*
X145343723Y-99634820D02*
X145428362Y-99605203D01*
X144816029Y-98483039D02*
X144849210Y-98462190D01*
X144816029Y-97283039D02*
X144849210Y-97262190D01*
X144925140Y-97594860D02*
X144886198Y-97590472D01*
X145645019Y-97906195D02*
X145615402Y-97821556D01*
X144849210Y-98777529D02*
X144816029Y-98756680D01*
X144767470Y-93743930D02*
X144788319Y-93710749D01*
X144788319Y-93710749D02*
X144816029Y-93683039D01*
X145567695Y-94694089D02*
X145615402Y-94618163D01*
X145428362Y-97634516D02*
X145343723Y-97604899D01*
X145655059Y-93195302D02*
X145645019Y-93106195D01*
X145254616Y-93644860D02*
X145343723Y-93634820D01*
X144849210Y-99662190D02*
X144886198Y-99649247D01*
X147274650Y-82591520D02*
X147283260Y-82600120D01*
X145645019Y-95733524D02*
X145655059Y-95644417D01*
X145254616Y-98794860D02*
X144925140Y-98794860D01*
X145645019Y-96933524D02*
X145655059Y-96844417D01*
X145567695Y-93494089D02*
X145615402Y-93418163D01*
X144849210Y-97262190D02*
X144886198Y-97249247D01*
X145343723Y-97234820D02*
X145428362Y-97205203D01*
X144816029Y-92756680D02*
X144788319Y-92728970D01*
X144886198Y-92790472D02*
X144849210Y-92777529D01*
X145615402Y-94221556D02*
X145567695Y-94145630D01*
X148083200Y-82162620D02*
X148089480Y-82162620D01*
X145645019Y-93333524D02*
X145655059Y-93244417D01*
X144750140Y-95019860D02*
X144754527Y-94980918D01*
X145343723Y-95204899D02*
X145254616Y-95194860D01*
X144788319Y-92728970D02*
X144767470Y-92695789D01*
X145567695Y-98294089D02*
X145615402Y-98218163D01*
X145655059Y-93244417D02*
X145655059Y-93195302D01*
X145343723Y-96404899D02*
X145254616Y-96394860D01*
X144750140Y-102626638D02*
X144750140Y-99819860D01*
X144816029Y-94883039D02*
X144849210Y-94862190D01*
X144750140Y-83971280D02*
X146308800Y-82412620D01*
X145428362Y-97205203D02*
X145504288Y-97157496D01*
X144849210Y-96377529D02*
X144816029Y-96356680D01*
X145615402Y-97018163D02*
X145645019Y-96933524D01*
X145343723Y-92804899D02*
X145254616Y-92794860D01*
X145615402Y-95818163D02*
X145645019Y-95733524D01*
X144925140Y-94844860D02*
X145254616Y-94844860D01*
X145567695Y-94145630D02*
X145504288Y-94082223D01*
X144754527Y-96258801D02*
X144750140Y-96219860D01*
X144816029Y-98756680D02*
X144788319Y-98728970D01*
X145428362Y-95234516D02*
X145343723Y-95204899D01*
X144754527Y-96180918D02*
X144767470Y-96143930D01*
X144750140Y-98619860D02*
X144754527Y-98580918D01*
X144788319Y-97310749D02*
X144816029Y-97283039D01*
X144767470Y-98695789D02*
X144754527Y-98658801D01*
X145655059Y-94444417D02*
X145655059Y-94395302D01*
X145655059Y-99244417D02*
X145655059Y-99195302D01*
X145645019Y-99333524D02*
X145655059Y-99244417D01*
X144849210Y-95177529D02*
X144816029Y-95156680D01*
X144886198Y-93649247D02*
X144925140Y-93644860D01*
X145567695Y-95345630D02*
X145504288Y-95282223D01*
X145645019Y-94306195D02*
X145615402Y-94221556D01*
X145615402Y-94618163D02*
X145645019Y-94533524D01*
X144886198Y-98449247D02*
X144925140Y-98444860D01*
X145428362Y-99605203D02*
X145504288Y-99557496D01*
X144849210Y-93662190D02*
X144886198Y-93649247D01*
X144754527Y-93780918D02*
X144767470Y-93743930D01*
X145655059Y-96844417D02*
X145655059Y-96795302D01*
X147283260Y-82600120D02*
X147645700Y-82600120D01*
X145254616Y-96394860D02*
X144925140Y-96394860D01*
X145645019Y-94533524D02*
X145655059Y-94444417D01*
X144754527Y-98580918D02*
X144767470Y-98543930D01*
X144788319Y-99710749D02*
X144816029Y-99683039D01*
X144886198Y-99649247D02*
X144925140Y-99644860D01*
X145428362Y-92834516D02*
X145343723Y-92804899D01*
X144816029Y-97556680D02*
X144788319Y-97528970D01*
X145504288Y-97157496D02*
X145567695Y-97094089D01*
X144925140Y-96044860D02*
X145254616Y-96044860D01*
X145343723Y-96034820D02*
X145428362Y-96005203D01*
X145567695Y-97094089D02*
X145615402Y-97018163D01*
X144886198Y-98790472D02*
X144849210Y-98777529D01*
X142489860Y-104886918D02*
X144750140Y-102626638D01*
X145254616Y-94844860D02*
X145343723Y-94834820D01*
X144767470Y-97343930D02*
X144788319Y-97310749D01*
X142677360Y-106022020D02*
X142489860Y-105834520D01*
X144849210Y-94862190D02*
X144886198Y-94849247D01*
X145343723Y-94004899D02*
X145254616Y-93994860D01*
X144886198Y-97249247D02*
X144925140Y-97244860D01*
X144750140Y-92619860D02*
X144750140Y-83971280D01*
X145655059Y-95595302D02*
X145645019Y-95506195D01*
X144788319Y-93928970D02*
X144767470Y-93895789D01*
X145504288Y-94757496D02*
X145567695Y-94694089D01*
X144754527Y-97380918D02*
X144767470Y-97343930D01*
X145615402Y-96621556D02*
X145567695Y-96545630D01*
X145343723Y-98434820D02*
X145428362Y-98405203D01*
X145615402Y-99418163D02*
X145645019Y-99333524D01*
X144816029Y-96083039D02*
X144849210Y-96062190D01*
X145655059Y-98044417D02*
X145655059Y-97995302D01*
X144788319Y-95128970D02*
X144767470Y-95095789D01*
X144849210Y-97577529D02*
X144816029Y-97556680D01*
X144816029Y-93683039D02*
X144849210Y-93662190D01*
X144754527Y-95058801D02*
X144750140Y-95019860D01*
X144925140Y-92794860D02*
X144886198Y-92790472D01*
X144754527Y-99780918D02*
X144767470Y-99743930D01*
X145254616Y-98444860D02*
X145343723Y-98434820D01*
X145504288Y-99557496D02*
X145567695Y-99494089D01*
X144767470Y-96295789D02*
X144754527Y-96258801D01*
X144816029Y-99683039D02*
X144849210Y-99662190D01*
X144750140Y-97419860D02*
X144754527Y-97380918D01*
X144925140Y-96394860D02*
X144886198Y-96390472D01*
X144788319Y-97528970D02*
X144767470Y-97495789D01*
X145428362Y-98834516D02*
X145343723Y-98804899D01*
X145254616Y-92794860D02*
X144925140Y-92794860D01*
X147240580Y-82591520D02*
X147274650Y-82591520D01*
X144849210Y-93977529D02*
X144816029Y-93956680D01*
X144750140Y-96219860D02*
X144754527Y-96180918D01*
X147645700Y-82600120D02*
X148083200Y-82162620D01*
X145615402Y-93021556D02*
X145567695Y-92945630D01*
X144754527Y-98658801D02*
X144750140Y-98619860D01*
X145567695Y-98945630D02*
X145504288Y-98882223D01*
X145428362Y-98405203D02*
X145504288Y-98357496D01*
X145655059Y-94395302D02*
X145645019Y-94306195D01*
X144816029Y-96356680D02*
X144788319Y-96328970D01*
X144849210Y-98462190D02*
X144886198Y-98449247D01*
X144788319Y-98728970D02*
X144767470Y-98695789D01*
X144767470Y-92695789D02*
X144754527Y-92658801D01*
X144750140Y-99819860D02*
X144754527Y-99780918D01*
X145504288Y-98357496D02*
X145567695Y-98294089D01*
X144816029Y-93956680D02*
X144788319Y-93928970D01*
X145254616Y-97594860D02*
X144925140Y-97594860D01*
X144767470Y-95095789D02*
X144754527Y-95058801D01*
X145254616Y-96044860D02*
X145343723Y-96034820D01*
X144925140Y-97244860D02*
X145254616Y-97244860D01*
X145504288Y-96482223D02*
X145428362Y-96434516D01*
X145254616Y-99644860D02*
X145343723Y-99634820D01*
X145645019Y-99106195D02*
X145615402Y-99021556D01*
X145645019Y-95506195D02*
X145615402Y-95421556D01*
X145343723Y-98804899D02*
X145254616Y-98794860D01*
X144925140Y-93644860D02*
X145254616Y-93644860D01*
X145504288Y-94082223D02*
X145428362Y-94034516D01*
X145428362Y-96434516D02*
X145343723Y-96404899D01*
X145504288Y-98882223D02*
X145428362Y-98834516D01*
X145655059Y-95644417D02*
X145655059Y-95595302D01*
X145567695Y-96545630D02*
X145504288Y-96482223D01*
X144788319Y-98510749D02*
X144816029Y-98483039D01*
X145645019Y-98133524D02*
X145655059Y-98044417D01*
X144788319Y-96328970D02*
X144767470Y-96295789D01*
X145504288Y-92882223D02*
X145428362Y-92834516D01*
X145428362Y-94805203D02*
X145504288Y-94757496D01*
X145254616Y-95194860D02*
X144925140Y-95194860D01*
X144788319Y-96110749D02*
X144816029Y-96083039D01*
X144886198Y-96390472D02*
X144849210Y-96377529D01*
X145645019Y-96706195D02*
X145615402Y-96621556D01*
X145615402Y-95421556D02*
X145567695Y-95345630D01*
X145504288Y-97682223D02*
X145428362Y-97634516D01*
X145254616Y-93994860D02*
X144925140Y-93994860D01*
X145615402Y-98218163D02*
X145645019Y-98133524D01*
X145615402Y-99021556D02*
X145567695Y-98945630D01*
X144754527Y-97458801D02*
X144750140Y-97419860D01*
X144886198Y-97590472D02*
X144849210Y-97577529D01*
X144767470Y-96143930D02*
X144788319Y-96110749D01*
X145655059Y-96795302D02*
X145645019Y-96706195D01*
X144925140Y-98444860D02*
X145254616Y-98444860D01*
X144816029Y-95156680D02*
X144788319Y-95128970D01*
X144767470Y-93895789D02*
X144754527Y-93858801D01*
X144788319Y-94910749D02*
X144816029Y-94883039D01*
X144754527Y-94980918D02*
X144767470Y-94943930D01*
X144925140Y-99644860D02*
X145254616Y-99644860D01*
X144767470Y-98543930D02*
X144788319Y-98510749D01*
X146308800Y-82412620D02*
X147061690Y-82412620D01*
X145343723Y-97604899D02*
X145254616Y-97594860D01*
X145655059Y-99195302D02*
X145645019Y-99106195D01*
X145504288Y-93557496D02*
X145567695Y-93494089D01*
X144754527Y-92658801D02*
X144750140Y-92619860D01*
X145428362Y-93605203D02*
X145504288Y-93557496D01*
X150890236Y-79013501D02*
X150928157Y-79037328D01*
X136071480Y-106022020D02*
X136258980Y-105834520D01*
X150998445Y-79149190D02*
X151003460Y-79193694D01*
X150608474Y-79149190D02*
X150623266Y-79106918D01*
X151047093Y-79321238D02*
X151078762Y-79352907D01*
X150678762Y-79037328D02*
X150716683Y-79013501D01*
X150623266Y-79106918D02*
X150647093Y-79068997D01*
X151116683Y-79376734D02*
X151158955Y-79391526D01*
X151078762Y-79352907D02*
X151116683Y-79376734D01*
X150559826Y-79321238D02*
X150583653Y-79283317D01*
X150758955Y-78998709D02*
X150803460Y-78993694D01*
X150603460Y-79193694D02*
X150608474Y-79149190D01*
X150583653Y-79283317D02*
X150598445Y-79241045D01*
X150647093Y-79068997D02*
X150678762Y-79037328D01*
X151023266Y-79283317D02*
X151047093Y-79321238D01*
X150598445Y-79241045D02*
X150603460Y-79196540D01*
X151158955Y-79391526D02*
X151203460Y-79396540D01*
X150847964Y-78998709D02*
X150890236Y-79013501D01*
X150959826Y-79068997D02*
X150983653Y-79106918D01*
X144274450Y-79875550D02*
X146970882Y-79875550D01*
X140375000Y-91425000D02*
X141219600Y-90580400D01*
X150447964Y-79391526D02*
X150490236Y-79376734D01*
X136258980Y-105834520D02*
X136258980Y-105421540D01*
X150603460Y-79196540D02*
X150603460Y-79193694D01*
X136258980Y-105421540D02*
X140375000Y-101305520D01*
X147449892Y-79396540D02*
X150403460Y-79396540D01*
X151203460Y-79396540D02*
X151928630Y-79396540D01*
X141219600Y-90580400D02*
X141219600Y-82930400D01*
X151008474Y-79241045D02*
X151023266Y-79283317D01*
X151003460Y-79193694D02*
X151003460Y-79196540D01*
X151003460Y-79196540D02*
X151008474Y-79241045D01*
X146970882Y-79875550D02*
X147449892Y-79396540D01*
X150490236Y-79376734D02*
X150528157Y-79352907D01*
X151928630Y-79396540D02*
X151964500Y-79432400D01*
X140375000Y-101305520D02*
X140375000Y-91425000D01*
X150716683Y-79013501D02*
X150758955Y-78998709D01*
X150983653Y-79106918D02*
X150998445Y-79149190D01*
X141219600Y-82930400D02*
X144274450Y-79875550D01*
X150528157Y-79352907D02*
X150559826Y-79321238D01*
X150928157Y-79037328D02*
X150959826Y-79068997D01*
X150403460Y-79396540D02*
X150447964Y-79391526D01*
X150803460Y-78993694D02*
X150847964Y-78998709D01*
X152150000Y-79870000D02*
X152587600Y-79432400D01*
X141469611Y-90683957D02*
X140625000Y-91528568D01*
X151763240Y-79870000D02*
X152150000Y-79870000D01*
X140625000Y-101409088D02*
X136508980Y-105525108D01*
X147074439Y-80125561D02*
X147553449Y-79646551D01*
X141469611Y-90683957D02*
X141469611Y-83051126D01*
X151539791Y-79646551D02*
X151763240Y-79870000D01*
X152587600Y-79432400D02*
X152589500Y-79432400D01*
X140625000Y-91528568D02*
X140625000Y-101409088D01*
X136508980Y-105525108D02*
X136508980Y-105834520D01*
X136508980Y-105834520D02*
X136696480Y-106022020D01*
X144395176Y-80125561D02*
X147074439Y-80125561D01*
X147553449Y-79646551D02*
X151539791Y-79646551D01*
X141469611Y-83051126D02*
X144395176Y-80125561D01*
X142498363Y-87297717D02*
X142478812Y-87278166D01*
X149304062Y-80128023D02*
X149319186Y-80133315D01*
X148941994Y-80135110D02*
X148957917Y-80133315D01*
X149011757Y-80079475D02*
X149015346Y-80047628D01*
X142513073Y-86381320D02*
X142522205Y-86355222D01*
X142455402Y-86163456D02*
X142429304Y-86154324D01*
X142478812Y-86424281D02*
X142498363Y-86404730D01*
X149069186Y-79993788D02*
X149085110Y-79991994D01*
X142455402Y-85338991D02*
X142478812Y-85324281D01*
X142176938Y-85360041D02*
X142255244Y-85351219D01*
X142429304Y-86154324D02*
X142401829Y-86151229D01*
X149236609Y-80007605D02*
X149247940Y-80018936D01*
X142513073Y-85281320D02*
X142522205Y-85255222D01*
X149029163Y-80018936D02*
X149040494Y-80007605D01*
X138332150Y-105814520D02*
X138332150Y-105191072D01*
X141912166Y-84524813D02*
X141938193Y-84450435D01*
X148585110Y-79991994D02*
X148691994Y-79991994D01*
X148515346Y-80047628D02*
X148520638Y-80032504D01*
X142498363Y-86404730D02*
X142513073Y-86381320D01*
X149691994Y-79991994D02*
X149707917Y-79993788D01*
X147811322Y-80135110D02*
X148441994Y-80135110D01*
X149191994Y-79991994D02*
X149207917Y-79993788D01*
X141912166Y-86977634D02*
X141903343Y-86899328D01*
X149511757Y-80079475D02*
X149515346Y-80047628D01*
X142478812Y-86178166D02*
X142455402Y-86163456D01*
X142035837Y-87174455D02*
X141980117Y-87118735D01*
X142522205Y-86355222D02*
X142525300Y-86327748D01*
X142522205Y-85255222D02*
X142525300Y-85227748D01*
X148736609Y-80007605D02*
X148747940Y-80018936D01*
X142522205Y-84155222D02*
X142525300Y-84127748D01*
X148486609Y-80119498D02*
X148497940Y-80108167D01*
X148554062Y-79999080D02*
X148569186Y-79993788D01*
X142478812Y-84224281D02*
X142498363Y-84204730D01*
X142102560Y-85386068D02*
X142176938Y-85360041D01*
X148957917Y-80133315D02*
X148973041Y-80128023D01*
X141903343Y-85703119D02*
X141912166Y-85624813D01*
X148779163Y-80108167D02*
X148790494Y-80119498D01*
X141903343Y-84699328D02*
X141903343Y-84603119D01*
X141938193Y-85550435D02*
X141980117Y-85483712D01*
X149473041Y-80128023D02*
X149486609Y-80119498D01*
X142401829Y-86451219D02*
X142429304Y-86448123D01*
X142401829Y-87251229D02*
X142255244Y-87251229D01*
X141980117Y-84383712D02*
X142035837Y-84327992D01*
X149054062Y-79999080D02*
X149069186Y-79993788D01*
X149319186Y-80133315D02*
X149335110Y-80135110D01*
X149006465Y-80094599D02*
X149011757Y-80079475D01*
X148761757Y-80047628D02*
X148765346Y-80079475D01*
X142176938Y-86460041D02*
X142255244Y-86451219D01*
X141903343Y-85799328D02*
X141903343Y-85703119D01*
X141912166Y-85877634D02*
X141903343Y-85799328D01*
X142255244Y-86451219D02*
X142401829Y-86451219D01*
X149261757Y-80047628D02*
X149265346Y-80079475D01*
X148691994Y-79991994D02*
X148707917Y-79993788D01*
X148506465Y-80094599D02*
X148511757Y-80079475D01*
X148441994Y-80135110D02*
X148457917Y-80133315D01*
X149223041Y-79999080D02*
X149236609Y-80007605D01*
X149247940Y-80018936D02*
X149256465Y-80032504D01*
X142455402Y-87263456D02*
X142429304Y-87254324D01*
X141938193Y-84852012D02*
X141912166Y-84777634D01*
X148765346Y-80079475D02*
X148770638Y-80094599D01*
X142102560Y-84286068D02*
X142176938Y-84260041D01*
X148723041Y-79999080D02*
X148736609Y-80007605D01*
X142401829Y-86151229D02*
X142255244Y-86151229D01*
X142525300Y-90604700D02*
X142525300Y-87374700D01*
X148986609Y-80119498D02*
X148997940Y-80108167D01*
X142429304Y-87254324D02*
X142401829Y-87251229D01*
X142429304Y-85054324D02*
X142401829Y-85051229D01*
X142455402Y-84238991D02*
X142478812Y-84224281D01*
X148707917Y-79993788D02*
X148723041Y-79999080D01*
X142102560Y-87216379D02*
X142035837Y-87174455D01*
X149265346Y-80079475D02*
X149270638Y-80094599D01*
X142255244Y-87251229D02*
X142176938Y-87242406D01*
X142513073Y-84181320D02*
X142522205Y-84155222D01*
X148770638Y-80094599D02*
X148779163Y-80108167D01*
X148497940Y-80108167D02*
X148506465Y-80094599D01*
X142035837Y-86074455D02*
X141980117Y-86018735D01*
X142478812Y-85324281D02*
X142498363Y-85304730D01*
X138332150Y-105191072D02*
X141875000Y-101648222D01*
X149765346Y-80079475D02*
X149770638Y-80094599D01*
X147369432Y-80577000D02*
X147811322Y-80135110D01*
X142401829Y-85051229D02*
X142255244Y-85051229D01*
X149270638Y-80094599D02*
X149279163Y-80108167D01*
X142102560Y-85016379D02*
X142035837Y-84974455D01*
X148473041Y-80128023D02*
X148486609Y-80119498D01*
X149486609Y-80119498D02*
X149497940Y-80108167D01*
X141980117Y-86018735D02*
X141938193Y-85952012D01*
X149290494Y-80119498D02*
X149304062Y-80128023D01*
X141912166Y-84777634D02*
X141903343Y-84699328D01*
X148747940Y-80018936D02*
X148756465Y-80032504D01*
X149529163Y-80018936D02*
X149540494Y-80007605D01*
X149085110Y-79991994D02*
X149191994Y-79991994D01*
X142455402Y-86438991D02*
X142478812Y-86424281D01*
X148520638Y-80032504D02*
X148529163Y-80018936D01*
X144456110Y-80577000D02*
X147369432Y-80577000D01*
X142522205Y-87347225D02*
X142513073Y-87321127D01*
X142513073Y-85121127D02*
X142498363Y-85097717D01*
X141903343Y-84603119D02*
X141912166Y-84524813D01*
X149707917Y-79993788D02*
X149723041Y-79999080D01*
X142525300Y-85227748D02*
X142525300Y-85174700D01*
X142429304Y-85348123D02*
X142455402Y-85338991D01*
X148511757Y-80079475D02*
X148515346Y-80047628D01*
X142478812Y-87278166D02*
X142455402Y-87263456D01*
X148756465Y-80032504D02*
X148761757Y-80047628D01*
X142513073Y-86221127D02*
X142498363Y-86197717D01*
X138144650Y-106002020D02*
X138332150Y-105814520D01*
X142498363Y-85097717D02*
X142478812Y-85078166D01*
X142255244Y-85351219D02*
X142401829Y-85351219D01*
X148457917Y-80133315D02*
X148473041Y-80128023D01*
X142176938Y-86142406D02*
X142102560Y-86116379D01*
X149819186Y-80133315D02*
X149835110Y-80135110D01*
X149779163Y-80108167D02*
X149790494Y-80119498D01*
X141980117Y-84918735D02*
X141938193Y-84852012D01*
X149040494Y-80007605D02*
X149054062Y-79999080D01*
X142176938Y-87242406D02*
X142102560Y-87216379D01*
X141980117Y-85483712D02*
X142035837Y-85427992D01*
X142525300Y-82507810D02*
X144456110Y-80577000D01*
X141938193Y-87052012D02*
X141912166Y-86977634D01*
X149441994Y-80135110D02*
X149457917Y-80133315D01*
X142176938Y-84260041D02*
X142255244Y-84251219D01*
X141912166Y-85624813D02*
X141938193Y-85550435D01*
X142525300Y-86274700D02*
X142522205Y-86247225D01*
X142522205Y-85147225D02*
X142513073Y-85121127D01*
X148819186Y-80133315D02*
X148835110Y-80135110D01*
X149804062Y-80128023D02*
X149819186Y-80133315D01*
X148569186Y-79993788D02*
X148585110Y-79991994D01*
X142176938Y-85042406D02*
X142102560Y-85016379D01*
X141912166Y-86724813D02*
X141938193Y-86650435D01*
X148973041Y-80128023D02*
X148986609Y-80119498D01*
X148790494Y-80119498D02*
X148804062Y-80128023D01*
X142498363Y-84204730D02*
X142513073Y-84181320D01*
X148540494Y-80007605D02*
X148554062Y-79999080D01*
X148529163Y-80018936D02*
X148540494Y-80007605D01*
X148835110Y-80135110D02*
X148941994Y-80135110D01*
X142525300Y-85174700D02*
X142522205Y-85147225D01*
X142035837Y-85427992D02*
X142102560Y-85386068D01*
X142525300Y-84127748D02*
X142525300Y-82507810D01*
X149335110Y-80135110D02*
X149441994Y-80135110D01*
X149569186Y-79993788D02*
X149585110Y-79991994D01*
X142429304Y-86448123D02*
X142455402Y-86438991D01*
X141980117Y-86583712D02*
X142035837Y-86527992D01*
X149497940Y-80108167D02*
X149506465Y-80094599D01*
X142498363Y-85304730D02*
X142513073Y-85281320D01*
X142035837Y-84974455D02*
X141980117Y-84918735D01*
X142102560Y-86486068D02*
X142176938Y-86460041D01*
X149279163Y-80108167D02*
X149290494Y-80119498D01*
X141875000Y-91255000D02*
X142525300Y-90604700D01*
X149554062Y-79999080D02*
X149569186Y-79993788D01*
X142513073Y-87321127D02*
X142498363Y-87297717D01*
X142525300Y-87374700D02*
X142522205Y-87347225D01*
X149457917Y-80133315D02*
X149473041Y-80128023D01*
X142522205Y-86247225D02*
X142513073Y-86221127D01*
X142255244Y-84251219D02*
X142401829Y-84251219D01*
X142255244Y-86151229D02*
X142176938Y-86142406D01*
X149835110Y-80135110D02*
X150464490Y-80135110D01*
X141938193Y-84450435D02*
X141980117Y-84383712D01*
X149736609Y-80007605D02*
X149747940Y-80018936D01*
X142035837Y-84327992D02*
X142102560Y-84286068D01*
X142102560Y-86116379D02*
X142035837Y-86074455D01*
X149207917Y-79993788D02*
X149223041Y-79999080D01*
X142455402Y-85063456D02*
X142429304Y-85054324D01*
X149015346Y-80047628D02*
X149020638Y-80032504D01*
X142525300Y-86327748D02*
X142525300Y-86274700D01*
X142401829Y-84251219D02*
X142429304Y-84248123D01*
X149756465Y-80032504D02*
X149761757Y-80047628D01*
X149256465Y-80032504D02*
X149261757Y-80047628D01*
X149540494Y-80007605D02*
X149554062Y-79999080D01*
X149585110Y-79991994D02*
X149691994Y-79991994D01*
X148997940Y-80108167D02*
X149006465Y-80094599D01*
X149723041Y-79999080D02*
X149736609Y-80007605D01*
X149790494Y-80119498D02*
X149804062Y-80128023D01*
X141875000Y-101648222D02*
X141875000Y-91255000D01*
X142478812Y-85078166D02*
X142455402Y-85063456D01*
X142255244Y-85051229D02*
X142176938Y-85042406D01*
X149520638Y-80032504D02*
X149529163Y-80018936D01*
X141980117Y-87118735D02*
X141938193Y-87052012D01*
X142035837Y-86527992D02*
X142102560Y-86486068D01*
X142498363Y-86197717D02*
X142478812Y-86178166D01*
X149515346Y-80047628D02*
X149520638Y-80032504D01*
X142401829Y-85351219D02*
X142429304Y-85348123D01*
X149770638Y-80094599D02*
X149779163Y-80108167D01*
X141903343Y-86899328D02*
X141903343Y-86803119D01*
X149747940Y-80018936D02*
X149756465Y-80032504D01*
X141938193Y-85952012D02*
X141912166Y-85877634D01*
X141938193Y-86650435D02*
X141980117Y-86583712D01*
X149020638Y-80032504D02*
X149029163Y-80018936D01*
X142429304Y-84248123D02*
X142455402Y-84238991D01*
X148804062Y-80128023D02*
X148819186Y-80133315D01*
X149506465Y-80094599D02*
X149511757Y-80079475D01*
X141903343Y-86803119D02*
X141912166Y-86724813D01*
X149761757Y-80047628D02*
X149765346Y-80079475D01*
X142165581Y-84731320D02*
X142156449Y-84705222D01*
X142501716Y-85910041D02*
X142423410Y-85901219D01*
X142249350Y-85898123D02*
X142223252Y-85888991D01*
X142199842Y-85874281D02*
X142180291Y-85854730D01*
X142276824Y-84501229D02*
X142423410Y-84501229D01*
X147914581Y-80385419D02*
X150096069Y-80385419D01*
X142199842Y-86728166D02*
X142223252Y-86713456D01*
X142165581Y-85671127D02*
X142180291Y-85647717D01*
X142223252Y-86713456D02*
X142249350Y-86704324D01*
X142156449Y-86797225D02*
X142165581Y-86771127D01*
X142766488Y-87274813D02*
X142740461Y-87200435D01*
X144559667Y-80827011D02*
X147472989Y-80827011D01*
X142775310Y-86349328D02*
X142775310Y-86253119D01*
X142165581Y-86931320D02*
X142156449Y-86905222D01*
X142698537Y-86568735D02*
X142740461Y-86502012D01*
X142501716Y-87010041D02*
X142423410Y-87001219D01*
X138582150Y-105814520D02*
X138582150Y-105294628D01*
X142153353Y-86877748D02*
X142153353Y-86824700D01*
X142165581Y-84571127D02*
X142180291Y-84547717D01*
X142276824Y-85601229D02*
X142423410Y-85601229D01*
X142423410Y-85601229D02*
X142501716Y-85592406D01*
X142125011Y-91358557D02*
X142775311Y-90708257D01*
X142423410Y-86701229D02*
X142501716Y-86692406D01*
X142775311Y-82611367D02*
X144559667Y-80827011D01*
X142249350Y-86998123D02*
X142223252Y-86988991D01*
X142501716Y-84492406D02*
X142576094Y-84466379D01*
X142249350Y-84798123D02*
X142223252Y-84788991D01*
X142642817Y-86624455D02*
X142698537Y-86568735D01*
X142576094Y-87036068D02*
X142501716Y-87010041D01*
X142249350Y-85604324D02*
X142276824Y-85601229D01*
X142740461Y-86100435D02*
X142698537Y-86033712D01*
X150096069Y-80385419D02*
X150283270Y-80572620D01*
X142775311Y-90708257D02*
X142775310Y-87353119D01*
X142698537Y-87133712D02*
X142642817Y-87077992D01*
X142199842Y-84774281D02*
X142180291Y-84754730D01*
X142180291Y-84754730D02*
X142165581Y-84731320D01*
X142125011Y-101751767D02*
X142125011Y-91358557D01*
X142642817Y-87077992D02*
X142576094Y-87036068D01*
X142153353Y-85724700D02*
X142156449Y-85697225D01*
X142698537Y-84933712D02*
X142642817Y-84877992D01*
X142642817Y-84424455D02*
X142698537Y-84368735D01*
X142180291Y-86954730D02*
X142165581Y-86931320D01*
X142249350Y-86704324D02*
X142276824Y-86701229D01*
X142423410Y-84801219D02*
X142276824Y-84801219D01*
X142775310Y-85249328D02*
X142775310Y-85153119D01*
X142223252Y-84788991D02*
X142199842Y-84774281D01*
X142423410Y-85901219D02*
X142276824Y-85901219D01*
X142740461Y-86502012D02*
X142766488Y-86427634D01*
X142766488Y-85074813D02*
X142740461Y-85000435D01*
X142199842Y-85628166D02*
X142223252Y-85613456D01*
X142165581Y-85831320D02*
X142156449Y-85805222D01*
X142180291Y-84547717D02*
X142199842Y-84528166D01*
X142740461Y-85402012D02*
X142766488Y-85327634D01*
X142766488Y-85327634D02*
X142775310Y-85249328D01*
X142698537Y-84368735D02*
X142740461Y-84302012D01*
X142276824Y-86701229D02*
X142423410Y-86701229D01*
X142153353Y-84624700D02*
X142156449Y-84597225D01*
X142740461Y-85000435D02*
X142698537Y-84933712D01*
X142276824Y-87001219D02*
X142249350Y-86998123D01*
X142165581Y-86771127D02*
X142180291Y-86747717D01*
X142423410Y-84501229D02*
X142501716Y-84492406D01*
X142180291Y-85647717D02*
X142199842Y-85628166D01*
X150283270Y-80572620D02*
X150651980Y-80572620D01*
X142775310Y-86253119D02*
X142766488Y-86174813D01*
X142766488Y-86174813D02*
X142740461Y-86100435D01*
X142642817Y-85524455D02*
X142698537Y-85468735D01*
X147472989Y-80827011D02*
X147914581Y-80385419D01*
X142276824Y-85901219D02*
X142249350Y-85898123D01*
X142180291Y-86747717D02*
X142199842Y-86728166D01*
X142698537Y-86033712D02*
X142642817Y-85977992D01*
X142156449Y-84597225D02*
X142165581Y-84571127D01*
X142775310Y-87353119D02*
X142766488Y-87274813D01*
X138582150Y-105294628D02*
X142125011Y-101751767D01*
X142576094Y-84836068D02*
X142501716Y-84810041D01*
X142766488Y-86427634D02*
X142775310Y-86349328D01*
X142153353Y-86824700D02*
X142156449Y-86797225D01*
X142501716Y-85592406D02*
X142576094Y-85566379D01*
X142501716Y-86692406D02*
X142576094Y-86666379D01*
X142775310Y-84149328D02*
X142775311Y-82611367D01*
X142199842Y-84528166D02*
X142223252Y-84513456D01*
X142740461Y-84302012D02*
X142766488Y-84227634D01*
X142698537Y-85468735D02*
X142740461Y-85402012D01*
X142156449Y-85697225D02*
X142165581Y-85671127D01*
X150651980Y-80572620D02*
X151089490Y-80135110D01*
X142740461Y-87200435D02*
X142698537Y-87133712D01*
X142223252Y-85888991D02*
X142199842Y-85874281D01*
X142642817Y-84877992D02*
X142576094Y-84836068D01*
X142223252Y-84513456D02*
X142249350Y-84504324D01*
X142180291Y-85854730D02*
X142165581Y-85831320D01*
X142642817Y-85977992D02*
X142576094Y-85936068D01*
X142156449Y-85805222D02*
X142153353Y-85777748D01*
X142223252Y-85613456D02*
X142249350Y-85604324D01*
X142199842Y-86974281D02*
X142180291Y-86954730D01*
X142775310Y-85153119D02*
X142766488Y-85074813D01*
X142276824Y-84801219D02*
X142249350Y-84798123D01*
X142153353Y-84677748D02*
X142153353Y-84624700D01*
X142153353Y-85777748D02*
X142153353Y-85724700D01*
X142156449Y-84705222D02*
X142153353Y-84677748D01*
X142223252Y-86988991D02*
X142199842Y-86974281D01*
X142576094Y-85566379D02*
X142642817Y-85524455D01*
X142423410Y-87001219D02*
X142276824Y-87001219D01*
X142576094Y-84466379D02*
X142642817Y-84424455D01*
X142501716Y-84810041D02*
X142423410Y-84801219D01*
X142576094Y-85936068D02*
X142501716Y-85910041D01*
X142249350Y-84504324D02*
X142276824Y-84501229D01*
X138769650Y-106002020D02*
X138582150Y-105814520D01*
X142576094Y-86666379D02*
X142642817Y-86624455D01*
X142156449Y-86905222D02*
X142153353Y-86877748D01*
X142766488Y-84227634D02*
X142775310Y-84149328D01*
X139336101Y-95934830D02*
X139363811Y-95907120D01*
X139302920Y-93555679D02*
X139336101Y-93534830D01*
X138057130Y-94022567D02*
X138057130Y-93973452D01*
X139384660Y-92122080D02*
X139363811Y-92088899D01*
X139265932Y-95968622D02*
X139302920Y-95955679D01*
X139397603Y-93359068D02*
X139384660Y-93322080D01*
X138096787Y-94196313D02*
X138067170Y-94111674D01*
X139265932Y-93568622D02*
X139302920Y-93555679D01*
X138207901Y-96060373D02*
X138283827Y-96012666D01*
X138207901Y-96735646D02*
X138144494Y-96672239D01*
X139265932Y-91168622D02*
X139302920Y-91155679D01*
X139397603Y-89836951D02*
X139401990Y-89798010D01*
X139302920Y-90840340D02*
X139265932Y-90827397D01*
X139363811Y-93507120D02*
X139384660Y-93473939D01*
X138457573Y-88773010D02*
X139226990Y-88773010D01*
X138057130Y-90422567D02*
X138057130Y-90373452D01*
X139302920Y-88755679D02*
X139336101Y-88734830D01*
X139336101Y-92061189D02*
X139302920Y-92040340D01*
X138283827Y-93612666D02*
X138368466Y-93583049D01*
X139336101Y-93261189D02*
X139302920Y-93240340D01*
X139336101Y-96861189D02*
X139302920Y-96840340D01*
X138067170Y-92684345D02*
X138096787Y-92599706D01*
X138144494Y-94923780D02*
X138207901Y-94860373D01*
X138067170Y-91484345D02*
X138096787Y-91399706D01*
X138457573Y-91173010D02*
X139226990Y-91173010D01*
X133080160Y-107533540D02*
X133267660Y-107346040D01*
X138096787Y-95396313D02*
X138067170Y-95311674D01*
X139226990Y-89623010D02*
X138457573Y-89623010D01*
X138457573Y-94423010D02*
X138368466Y-94412970D01*
X138096787Y-88999706D02*
X138144494Y-88923780D01*
X138283827Y-91983353D02*
X138207901Y-91935646D01*
X139397603Y-90959068D02*
X139384660Y-90922080D01*
X139226990Y-91173010D02*
X139265932Y-91168622D01*
X139259831Y-87773801D02*
X139214490Y-87728460D01*
X138096787Y-94999706D02*
X138144494Y-94923780D01*
X138283827Y-95583353D02*
X138207901Y-95535646D01*
X139397603Y-94636951D02*
X139401990Y-94598010D01*
X139226990Y-95973010D02*
X139265932Y-95968622D01*
X133267660Y-107346040D02*
X133267660Y-106615562D01*
X138207901Y-88860373D02*
X138283827Y-88812666D01*
X139363811Y-93288899D02*
X139336101Y-93261189D01*
X138283827Y-88812666D02*
X138368466Y-88783049D01*
X138144494Y-93072239D02*
X138096787Y-92996313D01*
X138457573Y-92373010D02*
X139226990Y-92373010D01*
X138457573Y-89973010D02*
X139226990Y-89973010D01*
X138368466Y-88783049D02*
X138457573Y-88773010D01*
X138057130Y-95222567D02*
X138057130Y-95173452D01*
X138067170Y-89084345D02*
X138096787Y-88999706D01*
X138057130Y-91622567D02*
X138057130Y-91573452D01*
X138067170Y-91711674D02*
X138057130Y-91622567D01*
X138207901Y-90735646D02*
X138144494Y-90672239D01*
X138096787Y-93799706D02*
X138144494Y-93723780D01*
X138368466Y-93212970D02*
X138283827Y-93183353D01*
X139363811Y-94488899D02*
X139336101Y-94461189D01*
X138096787Y-89396313D02*
X138067170Y-89311674D01*
X139363811Y-88707120D02*
X139384660Y-88673939D01*
X138067170Y-90511674D02*
X138057130Y-90422567D01*
X139336101Y-89661189D02*
X139302920Y-89640340D01*
X139397603Y-95759068D02*
X139384660Y-95722080D01*
X138207901Y-93135646D02*
X138144494Y-93072239D01*
X139226990Y-92023010D02*
X138457573Y-92023010D01*
X138368466Y-89983049D02*
X138457573Y-89973010D01*
X139384660Y-88673939D02*
X139397603Y-88636951D01*
X138096787Y-92996313D02*
X138067170Y-92911674D01*
X138144494Y-93723780D02*
X138207901Y-93660373D01*
X139226990Y-93573010D02*
X139265932Y-93568622D01*
X139336101Y-92334830D02*
X139363811Y-92307120D01*
X139384660Y-92273939D02*
X139397603Y-92236951D01*
X139397603Y-95836951D02*
X139401990Y-95798010D01*
X139265932Y-96827397D02*
X139226990Y-96823010D01*
X138067170Y-89311674D02*
X138057130Y-89222567D01*
X139401990Y-93398010D02*
X139397603Y-93359068D01*
X139226990Y-94773010D02*
X139265932Y-94768622D01*
X138144494Y-91323780D02*
X138207901Y-91260373D01*
X138057130Y-93973452D02*
X138067170Y-93884345D01*
X139397603Y-88636951D02*
X139401990Y-88598010D01*
X138057130Y-96422567D02*
X138057130Y-96373452D01*
X139302920Y-94440340D02*
X139265932Y-94427397D01*
X138057130Y-95173452D02*
X138067170Y-95084345D01*
X139401990Y-87915960D02*
X139259831Y-87773801D01*
X139401990Y-90998010D02*
X139397603Y-90959068D01*
X138144494Y-90123780D02*
X138207901Y-90060373D01*
X138067170Y-93884345D02*
X138096787Y-93799706D01*
X139384660Y-94673939D02*
X139397603Y-94636951D01*
X138096787Y-91796313D02*
X138067170Y-91711674D01*
X139265932Y-90827397D02*
X139226990Y-90823010D01*
X138457573Y-89623010D02*
X138368466Y-89612970D01*
X138096787Y-96596313D02*
X138067170Y-96511674D01*
X139363811Y-95907120D02*
X139384660Y-95873939D01*
X139302920Y-93240340D02*
X139265932Y-93227397D01*
X139384660Y-90922080D02*
X139363811Y-90888899D01*
X139226990Y-89973010D02*
X139265932Y-89968622D01*
X139363811Y-91107120D02*
X139384660Y-91073939D01*
X139363811Y-89688899D02*
X139336101Y-89661189D01*
X139302920Y-92355679D02*
X139336101Y-92334830D01*
X138096787Y-90199706D02*
X138144494Y-90123780D01*
X138144494Y-95472239D02*
X138096787Y-95396313D01*
X139336101Y-93534830D02*
X139363811Y-93507120D01*
X138283827Y-96012666D02*
X138368466Y-95983049D01*
X139265932Y-93227397D02*
X139226990Y-93223010D01*
X139336101Y-94461189D02*
X139302920Y-94440340D01*
X139265932Y-92368622D02*
X139302920Y-92355679D01*
X139384660Y-91073939D02*
X139397603Y-91036951D01*
X138283827Y-93183353D02*
X138207901Y-93135646D01*
X139363811Y-92088899D02*
X139336101Y-92061189D01*
X139401990Y-100481232D02*
X139401990Y-96998010D01*
X139226990Y-90823010D02*
X138457573Y-90823010D01*
X139265932Y-92027397D02*
X139226990Y-92023010D01*
X139226990Y-94423010D02*
X138457573Y-94423010D01*
X139384660Y-93322080D02*
X139363811Y-93288899D01*
X139384660Y-96922080D02*
X139363811Y-96888899D01*
X138057130Y-91573452D02*
X138067170Y-91484345D01*
X139336101Y-90861189D02*
X139302920Y-90840340D01*
X138067170Y-96284345D02*
X138096787Y-96199706D01*
X139397603Y-89759068D02*
X139384660Y-89722080D01*
X139363811Y-96888899D02*
X139336101Y-96861189D01*
X138283827Y-90012666D02*
X138368466Y-89983049D01*
X138144494Y-94272239D02*
X138096787Y-94196313D01*
X139384660Y-89722080D02*
X139363811Y-89688899D01*
X138067170Y-90284345D02*
X138096787Y-90199706D01*
X138457573Y-93223010D02*
X138368466Y-93212970D01*
X138283827Y-90783353D02*
X138207901Y-90735646D01*
X139226990Y-88773010D02*
X139265932Y-88768622D01*
X139302920Y-95955679D02*
X139336101Y-95934830D01*
X139384660Y-89873939D02*
X139397603Y-89836951D01*
X138057130Y-89222567D02*
X138057130Y-89173452D01*
X139397603Y-94559068D02*
X139384660Y-94522080D01*
X138207901Y-94335646D02*
X138144494Y-94272239D01*
X133267660Y-106615562D02*
X139401990Y-100481232D01*
X139397603Y-92236951D02*
X139401990Y-92198010D01*
X139302920Y-96840340D02*
X139265932Y-96827397D01*
X139336101Y-88734830D02*
X139363811Y-88707120D01*
X139226990Y-93223010D02*
X138457573Y-93223010D01*
X138067170Y-95311674D02*
X138057130Y-95222567D01*
X139401990Y-95798010D02*
X139397603Y-95759068D01*
X139226990Y-92373010D02*
X139265932Y-92368622D01*
X139265932Y-89968622D02*
X139302920Y-89955679D01*
X138457573Y-94773010D02*
X139226990Y-94773010D01*
X139397603Y-93436951D02*
X139401990Y-93398010D01*
X138144494Y-89472239D02*
X138096787Y-89396313D01*
X138207901Y-92460373D02*
X138283827Y-92412666D01*
X138457573Y-95623010D02*
X138368466Y-95612970D01*
X138368466Y-91183049D02*
X138457573Y-91173010D01*
X138283827Y-96783353D02*
X138207901Y-96735646D01*
X138057130Y-92773452D02*
X138067170Y-92684345D01*
X138457573Y-93573010D02*
X139226990Y-93573010D01*
X138457573Y-92023010D02*
X138368466Y-92012970D01*
X138057130Y-96373452D02*
X138067170Y-96284345D01*
X139401990Y-88598010D02*
X139401990Y-87915960D01*
X139384660Y-95722080D02*
X139363811Y-95688899D01*
X139336101Y-94734830D02*
X139363811Y-94707120D01*
X139226990Y-96823010D02*
X138457573Y-96823010D01*
X138368466Y-93583049D02*
X138457573Y-93573010D01*
X138144494Y-91872239D02*
X138096787Y-91796313D01*
X138144494Y-90672239D02*
X138096787Y-90596313D01*
X138057130Y-89173452D02*
X138067170Y-89084345D01*
X139336101Y-89934830D02*
X139363811Y-89907120D01*
X138283827Y-89583353D02*
X138207901Y-89535646D01*
X138368466Y-92012970D02*
X138283827Y-91983353D01*
X138096787Y-91399706D02*
X138144494Y-91323780D01*
X139265932Y-94427397D02*
X139226990Y-94423010D01*
X139401990Y-92198010D02*
X139397603Y-92159068D01*
X138368466Y-90812970D02*
X138283827Y-90783353D01*
X138368466Y-95612970D02*
X138283827Y-95583353D01*
X139384660Y-95873939D02*
X139397603Y-95836951D01*
X138207901Y-91935646D02*
X138144494Y-91872239D01*
X138207901Y-94860373D02*
X138283827Y-94812666D01*
X139363811Y-92307120D02*
X139384660Y-92273939D01*
X138283827Y-94383353D02*
X138207901Y-94335646D01*
X139384660Y-93473939D02*
X139397603Y-93436951D01*
X139397603Y-92159068D02*
X139384660Y-92122080D01*
X138457573Y-96823010D02*
X138368466Y-96812970D01*
X138067170Y-96511674D02*
X138057130Y-96422567D01*
X139336101Y-95661189D02*
X139302920Y-95640340D01*
X139265932Y-95627397D02*
X139226990Y-95623010D01*
X138144494Y-96123780D02*
X138207901Y-96060373D01*
X139384660Y-94522080D02*
X139363811Y-94488899D01*
X138067170Y-95084345D02*
X138096787Y-94999706D01*
X139302920Y-94755679D02*
X139336101Y-94734830D01*
X138067170Y-92911674D02*
X138057130Y-92822567D01*
X139336101Y-91134830D02*
X139363811Y-91107120D01*
X138283827Y-91212666D02*
X138368466Y-91183049D01*
X138067170Y-94111674D02*
X138057130Y-94022567D01*
X138457573Y-90823010D02*
X138368466Y-90812970D01*
X138207901Y-95535646D02*
X138144494Y-95472239D01*
X139302920Y-91155679D02*
X139336101Y-91134830D01*
X138457573Y-95973010D02*
X139226990Y-95973010D01*
X138144494Y-96672239D02*
X138096787Y-96596313D01*
X138368466Y-94783049D02*
X138457573Y-94773010D01*
X138368466Y-89612970D02*
X138283827Y-89583353D01*
X138207901Y-90060373D02*
X138283827Y-90012666D01*
X139363811Y-95688899D02*
X139336101Y-95661189D01*
X139226990Y-95623010D02*
X138457573Y-95623010D01*
X139401990Y-89798010D02*
X139397603Y-89759068D01*
X138368466Y-95983049D02*
X138457573Y-95973010D01*
X138096787Y-90596313D02*
X138067170Y-90511674D01*
X138144494Y-92523780D02*
X138207901Y-92460373D01*
X138207901Y-93660373D02*
X138283827Y-93612666D01*
X138096787Y-92599706D02*
X138144494Y-92523780D01*
X138368466Y-92383049D02*
X138457573Y-92373010D01*
X139397603Y-96959068D02*
X139384660Y-96922080D01*
X139401990Y-94598010D02*
X139397603Y-94559068D01*
X138144494Y-88923780D02*
X138207901Y-88860373D01*
X138283827Y-92412666D02*
X138368466Y-92383049D01*
X138368466Y-94412970D02*
X138283827Y-94383353D01*
X139401990Y-96998010D02*
X139397603Y-96959068D01*
X139363811Y-90888899D02*
X139336101Y-90861189D01*
X138057130Y-92822567D02*
X138057130Y-92773452D01*
X139363811Y-94707120D02*
X139384660Y-94673939D01*
X139302920Y-89955679D02*
X139336101Y-89934830D01*
X138096787Y-96199706D02*
X138144494Y-96123780D01*
X139363811Y-89907120D02*
X139384660Y-89873939D01*
X138368466Y-96812970D02*
X138283827Y-96783353D01*
X138207901Y-89535646D02*
X138144494Y-89472239D01*
X139265932Y-94768622D02*
X139302920Y-94755679D01*
X139265932Y-88768622D02*
X139302920Y-88755679D01*
X138283827Y-94812666D02*
X138368466Y-94783049D01*
X139265932Y-89627397D02*
X139226990Y-89623010D01*
X138207901Y-91260373D02*
X138283827Y-91212666D01*
X139302920Y-95640340D02*
X139265932Y-95627397D01*
X138057130Y-90373452D02*
X138067170Y-90284345D01*
X139302920Y-92040340D02*
X139265932Y-92027397D01*
X139302920Y-89640340D02*
X139265932Y-89627397D01*
X139397603Y-91036951D02*
X139401990Y-90998010D01*
X138373020Y-92934830D02*
X138345310Y-92907120D01*
X138482130Y-91773010D02*
X138443189Y-91768622D01*
X138311518Y-91636951D02*
X138307130Y-91598010D01*
X139612334Y-89599706D02*
X139564627Y-89523780D01*
X139425294Y-94212666D02*
X139340655Y-94183049D01*
X139501220Y-96660373D02*
X139425294Y-96612666D01*
X139612334Y-89996313D02*
X139641951Y-89911674D01*
X139612334Y-93199706D02*
X139564627Y-93123780D01*
X139501220Y-94260373D02*
X139425294Y-94212666D01*
X138324461Y-92722080D02*
X138345310Y-92688899D01*
X139564627Y-90072239D02*
X139612334Y-89996313D01*
X139425294Y-93012666D02*
X139340655Y-92983049D01*
X139612334Y-94399706D02*
X139564627Y-94323780D01*
X139340655Y-91783049D02*
X139251548Y-91773010D01*
X139340655Y-89383049D02*
X139251548Y-89373010D01*
X138373020Y-96261189D02*
X138406201Y-96240340D01*
X138443189Y-90568622D02*
X138406201Y-90555679D01*
X138373020Y-90261189D02*
X138406201Y-90240340D01*
X139251548Y-89373010D02*
X138482130Y-89373010D01*
X138482130Y-92973010D02*
X138443189Y-92968622D01*
X139612334Y-90799706D02*
X139564627Y-90723780D01*
X139251548Y-90223010D02*
X139340655Y-90212970D01*
X139612334Y-88796313D02*
X139641951Y-88711674D01*
X138373020Y-92661189D02*
X138406201Y-92640340D01*
X139425294Y-94983353D02*
X139501220Y-94935646D01*
X138324461Y-93922080D02*
X138345310Y-93888899D01*
X138406201Y-90555679D02*
X138373020Y-90534830D01*
X139340655Y-96212970D02*
X139425294Y-96183353D01*
X139651990Y-95822567D02*
X139651990Y-95773452D01*
X139340655Y-96583049D02*
X139251548Y-96573010D01*
X139425294Y-91383353D02*
X139501220Y-91335646D01*
X139641951Y-91111674D02*
X139651990Y-91022567D01*
X139564627Y-89523780D02*
X139501220Y-89460373D01*
X139612334Y-93596313D02*
X139641951Y-93511674D01*
X139251548Y-96573010D02*
X138482130Y-96573010D01*
X138373020Y-93861189D02*
X138406201Y-93840340D01*
X139651990Y-89822567D02*
X139651990Y-89773452D01*
X138345310Y-90288899D02*
X138373020Y-90261189D01*
X139251548Y-95023010D02*
X139340655Y-95012970D01*
X138406201Y-89355679D02*
X138373020Y-89334830D01*
X139641951Y-95684345D02*
X139612334Y-95599706D01*
X139251548Y-95373010D02*
X138482130Y-95373010D01*
X133517660Y-107346040D02*
X133517660Y-106719118D01*
X139425294Y-90183353D02*
X139501220Y-90135646D01*
X139641951Y-89684345D02*
X139612334Y-89599706D01*
X138311518Y-96359068D02*
X138324461Y-96322080D01*
X138311518Y-92759068D02*
X138324461Y-92722080D01*
X138373020Y-91461189D02*
X138406201Y-91440340D01*
X138482130Y-94173010D02*
X138443189Y-94168622D01*
X139251548Y-92623010D02*
X139340655Y-92612970D01*
X139641951Y-92084345D02*
X139612334Y-91999706D01*
X138345310Y-91488899D02*
X138373020Y-91461189D01*
X138324461Y-90322080D02*
X138345310Y-90288899D01*
X138443189Y-96568622D02*
X138406201Y-96555679D01*
X139651990Y-100584788D02*
X139651990Y-96973452D01*
X139651990Y-87915960D02*
X139839490Y-87728460D01*
X139340655Y-90583049D02*
X139251548Y-90573010D01*
X138311518Y-96436951D02*
X138307130Y-96398010D01*
X138345310Y-89088899D02*
X138373020Y-89061189D01*
X138311518Y-89236951D02*
X138307130Y-89198010D01*
X139425294Y-90612666D02*
X139340655Y-90583049D01*
X138307130Y-89198010D02*
X138311518Y-89159068D01*
X138406201Y-91440340D02*
X138443189Y-91427397D01*
X139564627Y-95523780D02*
X139501220Y-95460373D01*
X139641951Y-93511674D02*
X139651990Y-93422567D01*
X139501220Y-95460373D02*
X139425294Y-95412666D01*
X139651990Y-88622567D02*
X139651990Y-87915960D01*
X139564627Y-94872239D02*
X139612334Y-94796313D01*
X139425294Y-93783353D02*
X139501220Y-93735646D01*
X139641951Y-89911674D02*
X139651990Y-89822567D01*
X139425294Y-92583353D02*
X139501220Y-92535646D01*
X139651990Y-89773452D02*
X139641951Y-89684345D01*
X139564627Y-94323780D02*
X139501220Y-94260373D01*
X139612334Y-92396313D02*
X139641951Y-92311674D01*
X139564627Y-92472239D02*
X139612334Y-92396313D01*
X139251548Y-92973010D02*
X138482130Y-92973010D01*
X139641951Y-90884345D02*
X139612334Y-90799706D01*
X138345310Y-94107120D02*
X138324461Y-94073939D01*
X138482130Y-95373010D02*
X138443189Y-95368622D01*
X139501220Y-91860373D02*
X139425294Y-91812666D01*
X138373020Y-89334830D02*
X138345310Y-89307120D01*
X138345310Y-90507120D02*
X138324461Y-90473939D01*
X138324461Y-89122080D02*
X138345310Y-89088899D01*
X138324461Y-91522080D02*
X138345310Y-91488899D01*
X138307130Y-96398010D02*
X138311518Y-96359068D01*
X138406201Y-95040340D02*
X138443189Y-95027397D01*
X139612334Y-94796313D02*
X139641951Y-94711674D01*
X139501220Y-94935646D02*
X139564627Y-94872239D01*
X138373020Y-91734830D02*
X138345310Y-91707120D01*
X139340655Y-93812970D02*
X139425294Y-93783353D01*
X139564627Y-90723780D02*
X139501220Y-90660373D01*
X138311518Y-94036951D02*
X138307130Y-93998010D01*
X138307130Y-91598010D02*
X138311518Y-91559068D01*
X138311518Y-90436951D02*
X138307130Y-90398010D01*
X139641951Y-92311674D02*
X139651990Y-92222567D01*
X138373020Y-89061189D02*
X138406201Y-89040340D01*
X139651990Y-91022567D02*
X139651990Y-90973452D01*
X138345310Y-92907120D02*
X138324461Y-92873939D01*
X139651990Y-93373452D02*
X139641951Y-93284345D01*
X138324461Y-95273939D02*
X138311518Y-95236951D01*
X138345310Y-91707120D02*
X138324461Y-91673939D01*
X139612334Y-95599706D02*
X139564627Y-95523780D01*
X138406201Y-89040340D02*
X138443189Y-89027397D01*
X139641951Y-94711674D02*
X139651990Y-94622567D01*
X138345310Y-93888899D02*
X138373020Y-93861189D01*
X139564627Y-93123780D02*
X139501220Y-93060373D01*
X139651990Y-92173452D02*
X139641951Y-92084345D01*
X139651990Y-90973452D02*
X139641951Y-90884345D01*
X138482130Y-89373010D02*
X138443189Y-89368622D01*
X139641951Y-94484345D02*
X139612334Y-94399706D01*
X138324461Y-91673939D02*
X138311518Y-91636951D01*
X138443189Y-90227397D02*
X138482130Y-90223010D01*
X138345310Y-95088899D02*
X138373020Y-95061189D01*
X138307130Y-93998010D02*
X138311518Y-93959068D01*
X138482130Y-91423010D02*
X139251548Y-91423010D01*
X139340655Y-91412970D02*
X139425294Y-91383353D01*
X139425294Y-95412666D02*
X139340655Y-95383049D01*
X138324461Y-96322080D02*
X138345310Y-96288899D01*
X138443189Y-96227397D02*
X138482130Y-96223010D01*
X139564627Y-96072239D02*
X139612334Y-95996313D01*
X139501220Y-93060373D02*
X139425294Y-93012666D01*
X138406201Y-92955679D02*
X138373020Y-92934830D01*
X139340655Y-90212970D02*
X139425294Y-90183353D01*
X139340655Y-92612970D02*
X139425294Y-92583353D01*
X138443189Y-92627397D02*
X138482130Y-92623010D01*
X138406201Y-93840340D02*
X138443189Y-93827397D01*
X139501220Y-96135646D02*
X139564627Y-96072239D01*
X138324461Y-94073939D02*
X138311518Y-94036951D01*
X138443189Y-95027397D02*
X138482130Y-95023010D01*
X138406201Y-92640340D02*
X138443189Y-92627397D01*
X139251548Y-96223010D02*
X139340655Y-96212970D01*
X139425294Y-96183353D02*
X139501220Y-96135646D01*
X133517660Y-106719118D02*
X139651990Y-100584788D01*
X139641951Y-93284345D02*
X139612334Y-93199706D01*
X139651990Y-95773452D02*
X139641951Y-95684345D01*
X138443189Y-91768622D02*
X138406201Y-91755679D01*
X138443189Y-91427397D02*
X138482130Y-91423010D01*
X139501220Y-90660373D02*
X139425294Y-90612666D01*
X138345310Y-96288899D02*
X138373020Y-96261189D01*
X138324461Y-92873939D02*
X138311518Y-92836951D01*
X138373020Y-95334830D02*
X138345310Y-95307120D01*
X138482130Y-89023010D02*
X139251548Y-89023010D01*
X139612334Y-95996313D02*
X139641951Y-95911674D01*
X138345310Y-96507120D02*
X138324461Y-96473939D01*
X139612334Y-91999706D02*
X139564627Y-91923780D01*
X138482130Y-90223010D02*
X139251548Y-90223010D01*
X139501220Y-91335646D02*
X139564627Y-91272239D01*
X138482130Y-92623010D02*
X139251548Y-92623010D01*
X139425294Y-89412666D02*
X139340655Y-89383049D01*
X139251548Y-91423010D02*
X139340655Y-91412970D01*
X138443189Y-92968622D02*
X138406201Y-92955679D01*
X139501220Y-92535646D02*
X139564627Y-92472239D01*
X139251548Y-90573010D02*
X138482130Y-90573010D01*
X139340655Y-95012970D02*
X139425294Y-94983353D01*
X138443189Y-93827397D02*
X138482130Y-93823010D01*
X138443189Y-89368622D02*
X138406201Y-89355679D01*
X138311518Y-89159068D02*
X138324461Y-89122080D01*
X138373020Y-90534830D02*
X138345310Y-90507120D01*
X138311518Y-95159068D02*
X138324461Y-95122080D01*
X138311518Y-95236951D02*
X138307130Y-95198010D01*
X138311518Y-91559068D02*
X138324461Y-91522080D01*
X139340655Y-92983049D02*
X139251548Y-92973010D01*
X138345310Y-89307120D02*
X138324461Y-89273939D01*
X138406201Y-96555679D02*
X138373020Y-96534830D01*
X138324461Y-89273939D02*
X138311518Y-89236951D01*
X138324461Y-96473939D02*
X138311518Y-96436951D01*
X139641951Y-95911674D02*
X139651990Y-95822567D01*
X138482130Y-90573010D02*
X138443189Y-90568622D01*
X138443189Y-95368622D02*
X138406201Y-95355679D01*
X139340655Y-89012970D02*
X139425294Y-88983353D01*
X139340655Y-94183049D02*
X139251548Y-94173010D01*
X139251548Y-89023010D02*
X139340655Y-89012970D01*
X138406201Y-95355679D02*
X138373020Y-95334830D01*
X139501220Y-90135646D02*
X139564627Y-90072239D01*
X138443189Y-94168622D02*
X138406201Y-94155679D01*
X138482130Y-96223010D02*
X139251548Y-96223010D01*
X138311518Y-92836951D02*
X138307130Y-92798010D01*
X139425294Y-96612666D02*
X139340655Y-96583049D01*
X139425294Y-88983353D02*
X139501220Y-88935646D01*
X139251548Y-91773010D02*
X138482130Y-91773010D01*
X133705160Y-107533540D02*
X133517660Y-107346040D01*
X138307130Y-90398010D02*
X138311518Y-90359068D01*
X139651990Y-94622567D02*
X139651990Y-94573452D01*
X138406201Y-90240340D02*
X138443189Y-90227397D01*
X138373020Y-96534830D02*
X138345310Y-96507120D01*
X139651990Y-93422567D02*
X139651990Y-93373452D01*
X139251548Y-93823010D02*
X139340655Y-93812970D01*
X138324461Y-90473939D02*
X138311518Y-90436951D01*
X138373020Y-94134830D02*
X138345310Y-94107120D01*
X139501220Y-88935646D02*
X139564627Y-88872239D01*
X138406201Y-91755679D02*
X138373020Y-91734830D01*
X138482130Y-96573010D02*
X138443189Y-96568622D01*
X139564627Y-88872239D02*
X139612334Y-88796313D01*
X139564627Y-93672239D02*
X139612334Y-93596313D01*
X139251548Y-94173010D02*
X138482130Y-94173010D01*
X138307130Y-92798010D02*
X138311518Y-92759068D01*
X138406201Y-94155679D02*
X138373020Y-94134830D01*
X138345310Y-92688899D02*
X138373020Y-92661189D01*
X139564627Y-96723780D02*
X139501220Y-96660373D01*
X139651990Y-92222567D02*
X139651990Y-92173452D01*
X139501220Y-93735646D02*
X139564627Y-93672239D01*
X139340655Y-95383049D02*
X139251548Y-95373010D01*
X139564627Y-91923780D02*
X139501220Y-91860373D01*
X138373020Y-95061189D02*
X138406201Y-95040340D01*
X139425294Y-91812666D02*
X139340655Y-91783049D01*
X138482130Y-93823010D02*
X139251548Y-93823010D01*
X138406201Y-96240340D02*
X138443189Y-96227397D01*
X138311518Y-93959068D02*
X138324461Y-93922080D01*
X138324461Y-95122080D02*
X138345310Y-95088899D01*
X139612334Y-91196313D02*
X139641951Y-91111674D01*
X139612334Y-96799706D02*
X139564627Y-96723780D01*
X139501220Y-89460373D02*
X139425294Y-89412666D01*
X138307130Y-95198010D02*
X138311518Y-95159068D01*
X139564627Y-91272239D02*
X139612334Y-91196313D01*
X138345310Y-95307120D02*
X138324461Y-95273939D01*
X138482130Y-95023010D02*
X139251548Y-95023010D01*
X139641951Y-96884345D02*
X139612334Y-96799706D01*
X139651990Y-96973452D02*
X139641951Y-96884345D01*
X138443189Y-89027397D02*
X138482130Y-89023010D01*
X139651990Y-94573452D02*
X139641951Y-94484345D01*
X138311518Y-90359068D02*
X138324461Y-90322080D01*
X139641951Y-88711674D02*
X139651990Y-88622567D01*
D28*
X126296800Y-103406020D02*
X126924000Y-102778810D01*
X125468400Y-103406020D02*
X126296800Y-103406020D01*
X124917400Y-102855010D02*
X125468400Y-103406020D01*
D27*
X125300000Y-107200000D02*
X120863550Y-107200000D01*
X128779440Y-107500000D02*
X129205880Y-107926440D01*
X120863550Y-107200000D02*
X120157540Y-107906010D01*
X125600000Y-107500000D02*
X125300000Y-107200000D01*
X125600000Y-107500000D02*
X128779440Y-107500000D01*
X131550000Y-110603553D02*
X134400000Y-107753553D01*
X127958400Y-127106010D02*
X129000000Y-126064410D01*
X131550000Y-111450000D02*
X131550000Y-110603553D01*
X129000000Y-126064410D02*
X129000000Y-114000000D01*
X129000000Y-114000000D02*
X131550000Y-111450000D01*
X134400000Y-107753553D02*
X134400000Y-107400000D01*
D29*
X132626410Y-116476410D02*
X132626410Y-115326410D01*
X133350000Y-117200000D02*
X132626410Y-116476410D01*
X135310000Y-117830000D02*
X135310000Y-117658250D01*
X134851750Y-117200000D02*
X133350000Y-117200000D01*
X135310000Y-117658250D02*
X134851750Y-117200000D01*
D27*
X111303000Y-95717610D02*
X110200000Y-94614610D01*
X110200000Y-94614610D02*
X110200000Y-92200000D01*
X110200000Y-92200000D02*
X107543800Y-89543800D01*
X107543800Y-89543800D02*
X107543800Y-80198210D01*
X107543800Y-80198210D02*
X106985000Y-79639410D01*
X107924800Y-79842610D02*
X107721600Y-79639410D01*
X112293600Y-95717610D02*
X110600000Y-94024010D01*
X110600000Y-94024010D02*
X110600000Y-92100000D01*
X107924800Y-89424800D02*
X107924800Y-79842610D01*
X110600000Y-92100000D02*
X107924800Y-89424800D01*
D30*
X137448222Y-116225000D02*
X138334990Y-117111768D01*
X138334990Y-117111768D02*
X138334990Y-117505000D01*
X133217660Y-114994438D02*
X134448222Y-116225000D01*
X133217660Y-110609770D02*
X133217660Y-114994438D01*
X138334990Y-117505000D02*
X138009990Y-117830000D01*
X134448222Y-116225000D02*
X137448222Y-116225000D01*
X133030160Y-110422270D02*
X133217660Y-110609770D01*
X133467660Y-114890882D02*
X134551778Y-115975000D01*
X134551778Y-115975000D02*
X137551778Y-115975000D01*
X133655160Y-110422270D02*
X133467660Y-110609770D01*
X137551778Y-115975000D02*
X138584990Y-117008212D01*
X138584990Y-117505000D02*
X138909990Y-117830000D01*
X138584990Y-117008212D02*
X138584990Y-117505000D01*
X133467660Y-110609770D02*
X133467660Y-114890882D01*
D27*
X112639071Y-91239079D02*
X111899996Y-90500004D01*
X115299620Y-91239079D02*
X112639071Y-91239079D01*
X114431201Y-88868799D02*
X114800000Y-88500000D01*
X114431201Y-90286011D02*
X114431201Y-88868799D01*
X114800000Y-88500000D02*
X114800000Y-79308410D01*
X114800000Y-79308410D02*
X114750000Y-79258410D01*
X114681200Y-90536010D02*
X114431201Y-90286011D01*
X115100000Y-79600000D02*
X115100000Y-88776005D01*
X114935200Y-88940805D02*
X114935200Y-89316810D01*
X115100000Y-88776005D02*
X114935200Y-88940805D01*
X115400000Y-79300000D02*
X115100000Y-79600000D01*
X155100000Y-79375000D02*
X154950000Y-79525000D01*
D30*
X130350000Y-101100000D02*
X130100000Y-100849999D01*
X129850000Y-88550000D02*
X129850000Y-87600000D01*
X124850000Y-82600000D02*
X124850000Y-79250000D01*
X130100000Y-100849999D02*
X130100000Y-97900000D01*
X129850000Y-87600000D02*
X124850000Y-82600000D01*
D27*
X165300000Y-79000000D02*
X164000000Y-77700000D01*
D30*
X126600000Y-91800000D02*
X129850000Y-88550000D01*
X129781802Y-108950000D02*
X131250000Y-107481802D01*
X131250000Y-107481802D02*
X131250000Y-106343198D01*
X130350000Y-105443198D02*
X130350000Y-101100000D01*
D27*
X164000000Y-77700000D02*
X155700000Y-77700000D01*
D30*
X124850000Y-79250000D02*
X124600000Y-79000000D01*
X126850000Y-97600000D02*
X126600000Y-97350000D01*
X126600000Y-97350000D02*
X126600000Y-91800000D01*
X131250000Y-106343198D02*
X130350000Y-105443198D01*
X129150000Y-108950000D02*
X129781802Y-108950000D01*
X129800000Y-97600000D02*
X126850000Y-97600000D01*
X130100000Y-97900000D02*
X129800000Y-97600000D01*
D27*
X155100000Y-78300000D02*
X155100000Y-79375000D01*
X155700000Y-77700000D02*
X155100000Y-78300000D01*
X155500000Y-78500000D02*
X155800000Y-78200000D01*
X166758400Y-81706010D02*
X165686010Y-81706010D01*
D30*
X129150000Y-109900000D02*
X129185356Y-109900000D01*
D27*
X155800000Y-78200000D02*
X162180000Y-78200000D01*
X165686010Y-81706010D02*
X162860000Y-78880000D01*
D30*
X131500000Y-107585356D02*
X131500000Y-106239644D01*
X125100000Y-79250000D02*
X125350000Y-79000000D01*
X131500000Y-106239644D02*
X130650000Y-105389644D01*
D27*
X162180000Y-78200000D02*
X162860000Y-78880000D01*
D30*
X126900000Y-97146446D02*
X126900000Y-91853554D01*
X129185356Y-109900000D02*
X131500000Y-107585356D01*
X130650000Y-105389644D02*
X130650000Y-101046446D01*
X129950000Y-97300000D02*
X127053554Y-97300000D01*
X127053554Y-97300000D02*
X126900000Y-97146446D01*
X126900000Y-91853554D02*
X130100000Y-88653554D01*
X130400000Y-97750000D02*
X129950000Y-97300000D01*
X130650000Y-101046446D02*
X130400000Y-100796446D01*
X130100000Y-88653554D02*
X130100000Y-87496447D01*
X125100000Y-82496447D02*
X125100000Y-79250000D01*
X130400000Y-100796446D02*
X130400000Y-97750000D01*
X130100000Y-87496447D02*
X125100000Y-82496447D01*
D27*
X155625000Y-79500000D02*
X155500000Y-79375000D01*
X155500000Y-79375000D02*
X155500000Y-78500000D01*
X107200000Y-84900000D02*
X107200000Y-85100000D01*
X107200000Y-85100000D02*
X107200000Y-85068300D01*
X107200000Y-83200000D02*
X107200000Y-84750000D01*
X107200000Y-85068300D02*
X107065850Y-84934150D01*
X109652000Y-92500000D02*
X109652000Y-92452000D01*
X104000000Y-80000000D02*
X107200000Y-83200000D01*
X107065850Y-84934150D02*
X107165850Y-84934150D01*
X103600000Y-80000000D02*
X104000000Y-80000000D01*
X107200000Y-90000000D02*
X107200000Y-85100000D01*
X109652000Y-92452000D02*
X107200000Y-90000000D01*
X98234150Y-84934150D02*
X107065850Y-84934150D01*
X107200000Y-84750000D02*
X107200000Y-84800000D01*
X97650000Y-84350000D02*
X98234150Y-84934150D01*
X107165850Y-84934150D02*
X107200000Y-84900000D01*
X107200000Y-84750000D02*
X107200000Y-84900000D01*
X107200000Y-84800000D02*
X107065850Y-84934150D01*
D31*
X133134479Y-78566987D02*
X132699028Y-78131541D01*
X119373651Y-103883965D02*
X119373651Y-115672125D01*
X132964480Y-79368670D02*
X133134479Y-79198671D01*
X116842500Y-79459026D02*
X116039131Y-80262395D01*
X116039131Y-100549445D02*
X119373651Y-103883965D01*
X116039131Y-80262395D02*
X116039131Y-100549445D01*
X132699028Y-78131541D02*
X117369985Y-78131541D01*
X122602420Y-118900894D02*
X122602420Y-119387500D01*
X122602420Y-119387500D02*
X122859920Y-119645000D01*
X117369985Y-78131541D02*
X116842500Y-78659026D01*
X116842500Y-78659026D02*
X116842500Y-79459026D01*
X133134479Y-79198671D02*
X133134479Y-78566987D01*
X119373651Y-115672125D02*
X122602420Y-118900894D01*
X115754120Y-80144354D02*
X115754120Y-100667500D01*
X133419490Y-78448930D02*
X132817080Y-77846530D01*
X115754120Y-100667500D02*
X119088640Y-104002020D01*
X119088640Y-115790166D02*
X122317420Y-119018946D01*
X122317420Y-119387500D02*
X122059920Y-119645000D01*
X117251944Y-77846530D02*
X116557500Y-78540974D01*
X132817080Y-77846530D02*
X117251944Y-77846530D01*
X133419490Y-79198670D02*
X133419490Y-78448930D01*
X122317420Y-119018946D02*
X122317420Y-119387500D01*
X133589480Y-79368670D02*
X133419490Y-79198670D01*
X116557500Y-79340974D02*
X115754120Y-80144354D01*
X116557500Y-78540974D02*
X116557500Y-79340974D01*
X119088640Y-104002020D02*
X119088640Y-115790166D01*
D32*
X114100000Y-75700000D02*
X114527270Y-76127270D01*
X101700000Y-75700000D02*
X114100000Y-75700000D01*
D27*
X101700000Y-75700000D02*
X101300000Y-76100000D01*
D32*
X114527270Y-76127270D02*
X114527270Y-76178930D01*
D31*
X121278572Y-103443700D02*
X120949534Y-103114684D01*
X122405000Y-103052090D02*
X122013390Y-103443700D01*
X118384490Y-87744230D02*
X118384490Y-98768052D01*
X120949534Y-103114676D02*
X120949540Y-103114670D01*
X118384490Y-98768052D02*
X120949540Y-101333102D01*
X122013390Y-103443700D02*
X121278572Y-103443700D01*
X118214490Y-87574230D02*
X118384490Y-87744230D01*
X122405000Y-102587570D02*
X122405000Y-103052090D01*
X122575000Y-102417570D02*
X122405000Y-102587570D01*
X120949540Y-101333102D02*
X120949540Y-103114670D01*
X120949534Y-103114684D02*
X120949534Y-103114676D01*
X120834745Y-100208647D02*
X120819850Y-100193752D01*
X121234540Y-102996620D02*
X121234540Y-101215050D01*
X119561951Y-99542461D02*
X118669490Y-98650000D01*
X121396630Y-103158700D02*
X121234540Y-102996620D01*
X119576845Y-99557355D02*
X119561951Y-99542461D01*
X122120000Y-102934030D02*
X121895330Y-103158700D01*
X118669490Y-98650000D02*
X118669490Y-87744230D01*
X118669490Y-87744230D02*
X118839490Y-87574230D01*
X120198347Y-99875555D02*
X120198348Y-99875554D01*
X121950000Y-102417570D02*
X122120000Y-102587570D01*
X120213242Y-100193752D02*
X120198348Y-100178858D01*
X121895330Y-103158700D02*
X121396630Y-103158700D01*
X122120000Y-102587570D02*
X122120000Y-102934030D01*
X120198348Y-99572250D02*
X120183453Y-99557355D01*
X121234540Y-101215050D02*
X120834745Y-100815255D01*
X120834744Y-100511952D02*
X120834745Y-100511951D01*
X120819850Y-100193752D02*
G75*
G03*
X120516546Y-100193752I-151652J-151653D01*
G01*
X120213242Y-100193752D02*
G75*
G03*
X120516546Y-100193752I151652J151653D01*
G01*
X120198346Y-99875552D02*
G75*
G03*
X120198348Y-99572250I-151646J151652D01*
G01*
X120198341Y-99875549D02*
G75*
G03*
X120198348Y-100178858I151659J-151651D01*
G01*
X120834741Y-100511949D02*
G75*
G03*
X120834745Y-100815255I151659J-151651D01*
G01*
X119576845Y-99557355D02*
G75*
G03*
X119880149Y-99557355I151652J151653D01*
G01*
X120834746Y-100511952D02*
G75*
G03*
X120834745Y-100208647I-151646J151652D01*
G01*
X120183453Y-99557355D02*
G75*
G03*
X119880149Y-99557355I-151652J-151653D01*
G01*
X117007500Y-100938550D02*
X117007500Y-86690974D01*
X119859320Y-103268720D02*
X119337670Y-103268720D01*
X117007500Y-86690974D02*
X117757500Y-85940974D01*
X119634490Y-79863984D02*
X119634490Y-79538670D01*
X117757500Y-85940974D02*
X117757500Y-80640974D01*
X120205000Y-102587570D02*
X120205000Y-102923040D01*
X120375000Y-102417570D02*
X120205000Y-102587570D01*
X117757500Y-80640974D02*
X118375255Y-80023219D01*
X120205000Y-102923040D02*
X119859320Y-103268720D01*
X119475255Y-80023219D02*
X119634490Y-79863984D01*
X119634490Y-79538670D02*
X119464490Y-79368670D01*
X118375255Y-80023219D02*
X119475255Y-80023219D01*
X119337670Y-103268720D02*
X117007500Y-100938550D01*
X120089490Y-79368670D02*
X119919490Y-79538670D01*
X118609528Y-101854684D02*
X118609527Y-101854685D01*
X119593307Y-80308219D02*
X118493307Y-80308219D01*
X118332202Y-101283483D02*
X118332202Y-101283482D01*
X118493307Y-80308219D02*
X118042500Y-80759026D01*
X119919490Y-79538670D02*
X119919490Y-79982036D01*
X117292500Y-86809026D02*
X117292500Y-100820500D01*
X118043842Y-101289000D02*
X118049360Y-101283483D01*
X118042500Y-80759026D02*
X118042500Y-86059026D01*
X118332202Y-101566324D02*
X118326685Y-101571842D01*
X118892370Y-102420369D02*
X119455720Y-102983720D01*
X119920000Y-102804990D02*
X119920000Y-102587570D01*
X118897887Y-102132009D02*
X118892370Y-102137527D01*
X118609527Y-101854685D02*
X118615045Y-101849168D01*
X119920000Y-102587570D02*
X119750000Y-102417570D01*
X117292500Y-100820500D02*
X117761000Y-101289000D01*
X118897886Y-102132010D02*
X118897887Y-102132009D01*
X119741270Y-102983720D02*
X119920000Y-102804990D01*
X118042500Y-86059026D02*
X117292500Y-86809026D01*
X118332201Y-101566325D02*
X118332202Y-101566324D01*
X118897887Y-101849168D02*
X118897887Y-101849167D01*
X118043843Y-101288999D02*
X118043842Y-101289000D01*
X118326685Y-101854684D02*
X118326684Y-101854684D01*
X118326684Y-101854684D02*
X118326685Y-101854685D01*
X119919490Y-79982036D02*
X119593307Y-80308219D01*
X119455720Y-102983720D02*
X119741270Y-102983720D01*
X117760979Y-101289021D02*
G75*
G03*
X118043843Y-101288999I141421J141421D01*
G01*
X118897887Y-101849168D02*
G75*
G03*
X118615045Y-101849168I-141421J-141419D01*
G01*
X118332197Y-101566321D02*
G75*
G03*
X118332201Y-101283483I-141397J141421D01*
G01*
X118332202Y-101283483D02*
G75*
G03*
X118049360Y-101283483I-141421J-141419D01*
G01*
X118897897Y-102132021D02*
G75*
G03*
X118897886Y-101849168I-141397J141421D01*
G01*
X118326679Y-101854691D02*
G75*
G03*
X118609528Y-101854684I141421J141391D01*
G01*
X118892323Y-102137480D02*
G75*
G03*
X118892371Y-102420368I141477J-141420D01*
G01*
X118326722Y-101571879D02*
G75*
G03*
X118326685Y-101854684I141378J-141421D01*
G01*
D27*
X150927000Y-94523810D02*
X152095400Y-93355410D01*
X152095400Y-93355410D02*
X167487800Y-93355410D01*
X167487800Y-93355410D02*
X168605400Y-94473010D01*
X153060600Y-93685610D02*
X166827000Y-93685610D01*
X166827000Y-93685610D02*
X168605000Y-95463610D01*
X152222400Y-94523810D02*
X153060600Y-93685610D01*
X129845000Y-93355410D02*
X129845000Y-93050610D01*
X129845000Y-93050610D02*
X130530800Y-92364810D01*
D30*
X131370000Y-91520000D02*
X132581590Y-91520000D01*
X130530800Y-92359200D02*
X131370000Y-91520000D01*
X130530800Y-92364810D02*
X130530800Y-92359200D01*
X132581590Y-91520000D02*
X133096200Y-92034610D01*
D29*
X128700000Y-92800000D02*
X133300000Y-88200000D01*
X128700000Y-93500000D02*
X128700000Y-92800000D01*
X135000000Y-88200000D02*
X133300000Y-88200000D01*
D27*
X123900000Y-75900000D02*
X126300000Y-75900000D01*
X90100000Y-78200000D02*
X91500000Y-76800000D01*
X90100000Y-86200000D02*
X90100000Y-78200000D01*
X91500000Y-76800000D02*
X123000000Y-76800000D01*
X86164494Y-91521304D02*
X86250000Y-91435798D01*
X126300000Y-75900000D02*
X126500000Y-76100000D01*
X123000000Y-76800000D02*
X123900000Y-75900000D01*
X126500000Y-76100000D02*
X126500000Y-76450500D01*
X86250000Y-91435798D02*
X86250000Y-90050000D01*
X86250000Y-90050000D02*
X90100000Y-86200000D01*
D30*
X111500000Y-77400000D02*
X123500000Y-77400000D01*
X110600000Y-91600000D02*
X110600000Y-86468719D01*
X123900000Y-77000000D02*
X129800000Y-77000000D01*
X110500000Y-98300000D02*
X114000000Y-98300000D01*
X111000000Y-86068719D02*
X111000000Y-77900000D01*
X111000000Y-77900000D02*
X111500000Y-77400000D01*
X114600000Y-97700000D02*
X114600000Y-95600000D01*
X114000000Y-98300000D02*
X114600000Y-97700000D01*
X114600000Y-95600000D02*
X110600000Y-91600000D01*
X123500000Y-77400000D02*
X123900000Y-77000000D01*
X110600000Y-86468719D02*
X111000000Y-86068719D01*
X129800000Y-77000000D02*
X130500000Y-76300000D01*
D27*
X86700000Y-91200000D02*
X86600000Y-91100000D01*
X91800000Y-77100000D02*
X123200000Y-77100000D01*
X90500000Y-78400000D02*
X91800000Y-77100000D01*
X86600000Y-90300000D02*
X90500000Y-86400000D01*
X86600000Y-91100000D02*
X86600000Y-90300000D01*
X123200000Y-77100000D02*
X123849500Y-76450500D01*
X123849500Y-76450500D02*
X124100000Y-76450500D01*
X90500000Y-86400000D02*
X90500000Y-78400000D01*
D30*
X140000000Y-76200000D02*
X135100000Y-81100000D01*
X135100000Y-83537000D02*
X131210000Y-87427000D01*
X135100000Y-81100000D02*
X135100000Y-83537000D01*
X140300000Y-76200000D02*
X140000000Y-76200000D01*
X131210000Y-87427000D02*
X131210000Y-88190000D01*
M02*
