G04 #@! TF.GenerationSoftware,KiCad,Pcbnew,7.0.1*
G04 #@! TF.CreationDate,2023-05-22T16:21:24+08:00*
G04 #@! TF.ProjectId,jetson-nano-baseboard,6a657473-6f6e-42d6-9e61-6e6f2d626173,1.6.1*
G04 #@! TF.SameCoordinates,Original*
G04 #@! TF.FileFunction,Paste,Top*
G04 #@! TF.FilePolarity,Positive*
%FSLAX46Y46*%
G04 Gerber Fmt 4.6, Leading zero omitted, Abs format (unit mm)*
G04 Created by KiCad (PCBNEW 7.0.1) date 2023-05-22 16:21:24*
%MOMM*%
%LPD*%
G01*
G04 APERTURE LIST*
G04 Aperture macros list*
%AMRoundRect*
0 Rectangle with rounded corners*
0 $1 Rounding radius*
0 $2 $3 $4 $5 $6 $7 $8 $9 X,Y pos of 4 corners*
0 Add a 4 corners polygon primitive as box body*
4,1,4,$2,$3,$4,$5,$6,$7,$8,$9,$2,$3,0*
0 Add four circle primitives for the rounded corners*
1,1,$1+$1,$2,$3*
1,1,$1+$1,$4,$5*
1,1,$1+$1,$6,$7*
1,1,$1+$1,$8,$9*
0 Add four rect primitives between the rounded corners*
20,1,$1+$1,$2,$3,$4,$5,0*
20,1,$1+$1,$4,$5,$6,$7,0*
20,1,$1+$1,$6,$7,$8,$9,0*
20,1,$1+$1,$8,$9,$2,$3,0*%
G04 Aperture macros list end*
%ADD10C,0.010000*%
%ADD11C,0.100000*%
%ADD12RoundRect,0.147500X-0.172500X0.147500X-0.172500X-0.147500X0.172500X-0.147500X0.172500X0.147500X0*%
%ADD13O,1.600000X0.750000*%
%ADD14O,1.800000X0.600000*%
%ADD15O,0.700000X1.300000*%
%ADD16R,0.960000X0.970000*%
%ADD17R,0.970000X0.960000*%
%ADD18R,1.800000X0.750000*%
%ADD19R,0.762000X0.762000*%
%ADD20RoundRect,0.147500X0.147500X0.172500X-0.147500X0.172500X-0.147500X-0.172500X0.147500X-0.172500X0*%
%ADD21RoundRect,0.147500X0.172500X-0.147500X0.172500X0.147500X-0.172500X0.147500X-0.172500X-0.147500X0*%
%ADD22R,1.700000X1.016000*%
%ADD23R,0.800000X0.800000*%
%ADD24R,0.300000X0.550000*%
%ADD25R,0.400000X0.550000*%
%ADD26R,0.550000X1.000000*%
%ADD27R,0.300000X1.450000*%
%ADD28O,0.450000X1.600000*%
%ADD29R,0.200000X0.450000*%
%ADD30R,0.200000X0.500000*%
%ADD31R,0.450000X0.200000*%
%ADD32R,0.500000X0.200000*%
%ADD33R,3.200000X1.200000*%
%ADD34O,0.350000X1.700000*%
%ADD35R,0.200000X1.000000*%
%ADD36R,0.300000X1.200000*%
%ADD37RoundRect,0.147500X-0.147500X-0.172500X0.147500X-0.172500X0.147500X0.172500X-0.147500X0.172500X0*%
%ADD38R,0.570000X0.620000*%
%ADD39R,0.400000X0.500000*%
%ADD40R,0.500000X0.400000*%
%ADD41R,1.200000X2.200000*%
%ADD42R,0.400000X0.900000*%
%ADD43R,1.200000X1.200000*%
%ADD44R,0.450000X1.380000*%
%ADD45R,2.370000X1.900000*%
%ADD46R,1.400000X2.100000*%
%ADD47R,1.175000X1.900000*%
%ADD48R,0.230000X0.850000*%
%ADD49R,0.230000X1.000000*%
%ADD50R,0.240000X0.900000*%
%ADD51R,0.900000X0.240000*%
%ADD52R,2.100000X2.100000*%
%ADD53R,1.500000X1.800000*%
%ADD54R,1.000000X3.400000*%
%ADD55R,0.620000X0.570000*%
%ADD56RoundRect,0.015000X0.335000X0.110000X-0.335000X0.110000X-0.335000X-0.110000X0.335000X-0.110000X0*%
%ADD57RoundRect,0.021000X0.329000X0.129000X-0.329000X0.129000X-0.329000X-0.129000X0.329000X-0.129000X0*%
%ADD58RoundRect,0.015000X0.110000X0.335000X-0.110000X0.335000X-0.110000X-0.335000X0.110000X-0.335000X0*%
%ADD59RoundRect,0.040000X0.160000X0.460000X-0.160000X0.460000X-0.160000X-0.460000X0.160000X-0.460000X0*%
%ADD60R,0.750000X0.300000*%
%ADD61R,0.300000X0.750000*%
%ADD62R,3.200000X3.200000*%
%ADD63RoundRect,0.200000X-0.450000X0.200000X-0.450000X-0.200000X0.450000X-0.200000X0.450000X0.200000X0*%
%ADD64RoundRect,0.250001X-1.249999X0.799999X-1.249999X-0.799999X1.249999X-0.799999X1.249999X0.799999X0*%
%ADD65R,0.762000X1.090000*%
%ADD66R,1.090000X0.762000*%
%ADD67R,0.800000X0.600000*%
%ADD68R,1.200000X2.000000*%
%ADD69R,0.600000X0.800000*%
%ADD70R,2.000000X1.200000*%
%ADD71R,1.000000X0.550000*%
%ADD72R,5.335000X2.413000*%
%ADD73R,0.350000X0.950000*%
%ADD74R,0.950000X0.350000*%
%ADD75R,1.350000X0.300000*%
%ADD76RoundRect,0.125000X-0.175000X0.125000X-0.175000X-0.125000X0.175000X-0.125000X0.175000X0.125000X0*%
%ADD77R,0.210000X1.660000*%
%ADD78R,2.000000X3.500000*%
G04 APERTURE END LIST*
D10*
X157523912Y-115079993D02*
X157529912Y-115079993D01*
X157534912Y-115080993D01*
X157539912Y-115081993D01*
X157544912Y-115083993D01*
X157549912Y-115085993D01*
X157554912Y-115087993D01*
X157558912Y-115089993D01*
X157563912Y-115091993D01*
X157567912Y-115094993D01*
X157572912Y-115097993D01*
X157576912Y-115100993D01*
X157580912Y-115104993D01*
X157584912Y-115107993D01*
X157587912Y-115111993D01*
X157591912Y-115115993D01*
X157594912Y-115119993D01*
X157597912Y-115124993D01*
X157600912Y-115128993D01*
X157602912Y-115133993D01*
X157604912Y-115137993D01*
X157606912Y-115142993D01*
X157608912Y-115147993D01*
X157610912Y-115152993D01*
X157611912Y-115157993D01*
X157612912Y-115162993D01*
X157612912Y-115168993D01*
X157613912Y-115173993D01*
X157613912Y-115178993D01*
X157613912Y-115378993D01*
X157613912Y-115383993D01*
X157612912Y-115388993D01*
X157612912Y-115394993D01*
X157611912Y-115399993D01*
X157610912Y-115404993D01*
X157608912Y-115409993D01*
X157606912Y-115414993D01*
X157604912Y-115419993D01*
X157602912Y-115423993D01*
X157600912Y-115428993D01*
X157597912Y-115432993D01*
X157594912Y-115437993D01*
X157591912Y-115441993D01*
X157587912Y-115445993D01*
X157584912Y-115449993D01*
X157580912Y-115452993D01*
X157576912Y-115456993D01*
X157572912Y-115459993D01*
X157567912Y-115462993D01*
X157563912Y-115465993D01*
X157558912Y-115467993D01*
X157554912Y-115469993D01*
X157549912Y-115471993D01*
X157544912Y-115473993D01*
X157539912Y-115475993D01*
X157534912Y-115476993D01*
X157529912Y-115477993D01*
X157523912Y-115477993D01*
X157518912Y-115478993D01*
X157513912Y-115478993D01*
X156613912Y-115478993D01*
X156608912Y-115478993D01*
X156603912Y-115477993D01*
X156597912Y-115477993D01*
X156592912Y-115476993D01*
X156587912Y-115475993D01*
X156582912Y-115473993D01*
X156577912Y-115471993D01*
X156572912Y-115469993D01*
X156568912Y-115467993D01*
X156563912Y-115465993D01*
X156559912Y-115462993D01*
X156554912Y-115459993D01*
X156550912Y-115456993D01*
X156546912Y-115452993D01*
X156542912Y-115449993D01*
X156539912Y-115445993D01*
X156535912Y-115441993D01*
X156532912Y-115437993D01*
X156529912Y-115432993D01*
X156526912Y-115428993D01*
X156524912Y-115423993D01*
X156522912Y-115419993D01*
X156520912Y-115414993D01*
X156518912Y-115409993D01*
X156516912Y-115404993D01*
X156515912Y-115399993D01*
X156514912Y-115394993D01*
X156514912Y-115388993D01*
X156513912Y-115383993D01*
X156513912Y-115378993D01*
X156513912Y-115178993D01*
X156513912Y-115173993D01*
X156514912Y-115168993D01*
X156514912Y-115162993D01*
X156515912Y-115157993D01*
X156516912Y-115152993D01*
X156518912Y-115147993D01*
X156520912Y-115142993D01*
X156522912Y-115137993D01*
X156524912Y-115133993D01*
X156526912Y-115128993D01*
X156529912Y-115124993D01*
X156532912Y-115119993D01*
X156535912Y-115115993D01*
X156539912Y-115111993D01*
X156542912Y-115107993D01*
X156546912Y-115104993D01*
X156550912Y-115100993D01*
X156554912Y-115097993D01*
X156559912Y-115094993D01*
X156563912Y-115091993D01*
X156568912Y-115089993D01*
X156572912Y-115087993D01*
X156577912Y-115085993D01*
X156582912Y-115083993D01*
X156587912Y-115081993D01*
X156592912Y-115080993D01*
X156597912Y-115079993D01*
X156603912Y-115079993D01*
X156608912Y-115078993D01*
X156613912Y-115078993D01*
X157513912Y-115078993D01*
X157518912Y-115078993D01*
X157523912Y-115079993D01*
G36*
X157523912Y-115079993D02*
G01*
X157529912Y-115079993D01*
X157534912Y-115080993D01*
X157539912Y-115081993D01*
X157544912Y-115083993D01*
X157549912Y-115085993D01*
X157554912Y-115087993D01*
X157558912Y-115089993D01*
X157563912Y-115091993D01*
X157567912Y-115094993D01*
X157572912Y-115097993D01*
X157576912Y-115100993D01*
X157580912Y-115104993D01*
X157584912Y-115107993D01*
X157587912Y-115111993D01*
X157591912Y-115115993D01*
X157594912Y-115119993D01*
X157597912Y-115124993D01*
X157600912Y-115128993D01*
X157602912Y-115133993D01*
X157604912Y-115137993D01*
X157606912Y-115142993D01*
X157608912Y-115147993D01*
X157610912Y-115152993D01*
X157611912Y-115157993D01*
X157612912Y-115162993D01*
X157612912Y-115168993D01*
X157613912Y-115173993D01*
X157613912Y-115178993D01*
X157613912Y-115378993D01*
X157613912Y-115383993D01*
X157612912Y-115388993D01*
X157612912Y-115394993D01*
X157611912Y-115399993D01*
X157610912Y-115404993D01*
X157608912Y-115409993D01*
X157606912Y-115414993D01*
X157604912Y-115419993D01*
X157602912Y-115423993D01*
X157600912Y-115428993D01*
X157597912Y-115432993D01*
X157594912Y-115437993D01*
X157591912Y-115441993D01*
X157587912Y-115445993D01*
X157584912Y-115449993D01*
X157580912Y-115452993D01*
X157576912Y-115456993D01*
X157572912Y-115459993D01*
X157567912Y-115462993D01*
X157563912Y-115465993D01*
X157558912Y-115467993D01*
X157554912Y-115469993D01*
X157549912Y-115471993D01*
X157544912Y-115473993D01*
X157539912Y-115475993D01*
X157534912Y-115476993D01*
X157529912Y-115477993D01*
X157523912Y-115477993D01*
X157518912Y-115478993D01*
X157513912Y-115478993D01*
X156613912Y-115478993D01*
X156608912Y-115478993D01*
X156603912Y-115477993D01*
X156597912Y-115477993D01*
X156592912Y-115476993D01*
X156587912Y-115475993D01*
X156582912Y-115473993D01*
X156577912Y-115471993D01*
X156572912Y-115469993D01*
X156568912Y-115467993D01*
X156563912Y-115465993D01*
X156559912Y-115462993D01*
X156554912Y-115459993D01*
X156550912Y-115456993D01*
X156546912Y-115452993D01*
X156542912Y-115449993D01*
X156539912Y-115445993D01*
X156535912Y-115441993D01*
X156532912Y-115437993D01*
X156529912Y-115432993D01*
X156526912Y-115428993D01*
X156524912Y-115423993D01*
X156522912Y-115419993D01*
X156520912Y-115414993D01*
X156518912Y-115409993D01*
X156516912Y-115404993D01*
X156515912Y-115399993D01*
X156514912Y-115394993D01*
X156514912Y-115388993D01*
X156513912Y-115383993D01*
X156513912Y-115378993D01*
X156513912Y-115178993D01*
X156513912Y-115173993D01*
X156514912Y-115168993D01*
X156514912Y-115162993D01*
X156515912Y-115157993D01*
X156516912Y-115152993D01*
X156518912Y-115147993D01*
X156520912Y-115142993D01*
X156522912Y-115137993D01*
X156524912Y-115133993D01*
X156526912Y-115128993D01*
X156529912Y-115124993D01*
X156532912Y-115119993D01*
X156535912Y-115115993D01*
X156539912Y-115111993D01*
X156542912Y-115107993D01*
X156546912Y-115104993D01*
X156550912Y-115100993D01*
X156554912Y-115097993D01*
X156559912Y-115094993D01*
X156563912Y-115091993D01*
X156568912Y-115089993D01*
X156572912Y-115087993D01*
X156577912Y-115085993D01*
X156582912Y-115083993D01*
X156587912Y-115081993D01*
X156592912Y-115080993D01*
X156597912Y-115079993D01*
X156603912Y-115079993D01*
X156608912Y-115078993D01*
X156613912Y-115078993D01*
X157513912Y-115078993D01*
X157518912Y-115078993D01*
X157523912Y-115079993D01*
G37*
X160471912Y-113329993D02*
X160473912Y-113329993D01*
X160476912Y-113330993D01*
X160478912Y-113330993D01*
X160481912Y-113331993D01*
X160483912Y-113332993D01*
X160486912Y-113333993D01*
X160488912Y-113335993D01*
X160490912Y-113336993D01*
X160492912Y-113338993D01*
X160494912Y-113339993D01*
X160496912Y-113341993D01*
X160498912Y-113343993D01*
X160500912Y-113345993D01*
X160502912Y-113347993D01*
X160503912Y-113349993D01*
X160505912Y-113351993D01*
X160506912Y-113353993D01*
X160508912Y-113355993D01*
X160509912Y-113358993D01*
X160510912Y-113360993D01*
X160511912Y-113363993D01*
X160511912Y-113365993D01*
X160512912Y-113368993D01*
X160512912Y-113370993D01*
X160513912Y-113373993D01*
X160513912Y-113375993D01*
X160513912Y-113378993D01*
X160513912Y-113828993D01*
X160513912Y-113836993D01*
X160514912Y-113844993D01*
X160515912Y-113851993D01*
X160516912Y-113859993D01*
X160518912Y-113867993D01*
X160520912Y-113874993D01*
X160523912Y-113882993D01*
X160526912Y-113889993D01*
X160529912Y-113896993D01*
X160533912Y-113903993D01*
X160537912Y-113910993D01*
X160542912Y-113916993D01*
X160546912Y-113922993D01*
X160552912Y-113928993D01*
X160557912Y-113934993D01*
X160563912Y-113939993D01*
X160569912Y-113945993D01*
X160575912Y-113949993D01*
X160581912Y-113954993D01*
X160588912Y-113958993D01*
X160595912Y-113962993D01*
X160602912Y-113965993D01*
X160609912Y-113968993D01*
X160617912Y-113971993D01*
X160624912Y-113973993D01*
X160632912Y-113975993D01*
X160640912Y-113976993D01*
X160647912Y-113977993D01*
X160655912Y-113978993D01*
X160663912Y-113978993D01*
X160863912Y-113978993D01*
X160866912Y-113978993D01*
X160868912Y-113978993D01*
X160871912Y-113979993D01*
X160873912Y-113979993D01*
X160876912Y-113980993D01*
X160878912Y-113980993D01*
X160881912Y-113981993D01*
X160883912Y-113982993D01*
X160886912Y-113983993D01*
X160888912Y-113985993D01*
X160890912Y-113986993D01*
X160892912Y-113988993D01*
X160894912Y-113989993D01*
X160896912Y-113991993D01*
X160898912Y-113993993D01*
X160900912Y-113995993D01*
X160902912Y-113997993D01*
X160903912Y-113999993D01*
X160905912Y-114001993D01*
X160906912Y-114003993D01*
X160908912Y-114005993D01*
X160909912Y-114008993D01*
X160910912Y-114010993D01*
X160911912Y-114013993D01*
X160911912Y-114015993D01*
X160912912Y-114018993D01*
X160912912Y-114020993D01*
X160913912Y-114023993D01*
X160913912Y-114025993D01*
X160913912Y-114028993D01*
X160913912Y-114228993D01*
X160913912Y-114233993D01*
X160912912Y-114238993D01*
X160912912Y-114244993D01*
X160911912Y-114249993D01*
X160910912Y-114254993D01*
X160908912Y-114259993D01*
X160906912Y-114264993D01*
X160904912Y-114269993D01*
X160902912Y-114273993D01*
X160900912Y-114278993D01*
X160897912Y-114282993D01*
X160894912Y-114287993D01*
X160891912Y-114291993D01*
X160887912Y-114295993D01*
X160884912Y-114299993D01*
X160880912Y-114302993D01*
X160876912Y-114306993D01*
X160872912Y-114309993D01*
X160867912Y-114312993D01*
X160863912Y-114315993D01*
X160858912Y-114317993D01*
X160854912Y-114319993D01*
X160849912Y-114321993D01*
X160844912Y-114323993D01*
X160839912Y-114325993D01*
X160834912Y-114326993D01*
X160829912Y-114327993D01*
X160823912Y-114327993D01*
X160818912Y-114328993D01*
X160813912Y-114328993D01*
X160313912Y-114328993D01*
X160308912Y-114328993D01*
X160303912Y-114327993D01*
X160297912Y-114327993D01*
X160292912Y-114326993D01*
X160287912Y-114325993D01*
X160282912Y-114323993D01*
X160277912Y-114321993D01*
X160272912Y-114319993D01*
X160268912Y-114317993D01*
X160263912Y-114315993D01*
X160259912Y-114312993D01*
X160254912Y-114309993D01*
X160250912Y-114306993D01*
X160246912Y-114302993D01*
X160242912Y-114299993D01*
X160239912Y-114295993D01*
X160235912Y-114291993D01*
X160232912Y-114287993D01*
X160229912Y-114282993D01*
X160226912Y-114278993D01*
X160224912Y-114273993D01*
X160222912Y-114269993D01*
X160220912Y-114264993D01*
X160218912Y-114259993D01*
X160216912Y-114254993D01*
X160215912Y-114249993D01*
X160214912Y-114244993D01*
X160214912Y-114238993D01*
X160213912Y-114233993D01*
X160213912Y-114228993D01*
X160213912Y-113428993D01*
X160213912Y-113423993D01*
X160214912Y-113418993D01*
X160214912Y-113412993D01*
X160215912Y-113407993D01*
X160216912Y-113402993D01*
X160218912Y-113397993D01*
X160220912Y-113392993D01*
X160222912Y-113387993D01*
X160224912Y-113383993D01*
X160226912Y-113378993D01*
X160229912Y-113374993D01*
X160232912Y-113369993D01*
X160235912Y-113365993D01*
X160239912Y-113361993D01*
X160242912Y-113357993D01*
X160246912Y-113354993D01*
X160250912Y-113350993D01*
X160254912Y-113347993D01*
X160259912Y-113344993D01*
X160263912Y-113341993D01*
X160268912Y-113339993D01*
X160272912Y-113337993D01*
X160277912Y-113335993D01*
X160282912Y-113333993D01*
X160287912Y-113331993D01*
X160292912Y-113330993D01*
X160297912Y-113329993D01*
X160303912Y-113329993D01*
X160308912Y-113328993D01*
X160313912Y-113328993D01*
X160463912Y-113328993D01*
X160466912Y-113328993D01*
X160468912Y-113328993D01*
X160471912Y-113329993D01*
G36*
X160471912Y-113329993D02*
G01*
X160473912Y-113329993D01*
X160476912Y-113330993D01*
X160478912Y-113330993D01*
X160481912Y-113331993D01*
X160483912Y-113332993D01*
X160486912Y-113333993D01*
X160488912Y-113335993D01*
X160490912Y-113336993D01*
X160492912Y-113338993D01*
X160494912Y-113339993D01*
X160496912Y-113341993D01*
X160498912Y-113343993D01*
X160500912Y-113345993D01*
X160502912Y-113347993D01*
X160503912Y-113349993D01*
X160505912Y-113351993D01*
X160506912Y-113353993D01*
X160508912Y-113355993D01*
X160509912Y-113358993D01*
X160510912Y-113360993D01*
X160511912Y-113363993D01*
X160511912Y-113365993D01*
X160512912Y-113368993D01*
X160512912Y-113370993D01*
X160513912Y-113373993D01*
X160513912Y-113375993D01*
X160513912Y-113378993D01*
X160513912Y-113828993D01*
X160513912Y-113836993D01*
X160514912Y-113844993D01*
X160515912Y-113851993D01*
X160516912Y-113859993D01*
X160518912Y-113867993D01*
X160520912Y-113874993D01*
X160523912Y-113882993D01*
X160526912Y-113889993D01*
X160529912Y-113896993D01*
X160533912Y-113903993D01*
X160537912Y-113910993D01*
X160542912Y-113916993D01*
X160546912Y-113922993D01*
X160552912Y-113928993D01*
X160557912Y-113934993D01*
X160563912Y-113939993D01*
X160569912Y-113945993D01*
X160575912Y-113949993D01*
X160581912Y-113954993D01*
X160588912Y-113958993D01*
X160595912Y-113962993D01*
X160602912Y-113965993D01*
X160609912Y-113968993D01*
X160617912Y-113971993D01*
X160624912Y-113973993D01*
X160632912Y-113975993D01*
X160640912Y-113976993D01*
X160647912Y-113977993D01*
X160655912Y-113978993D01*
X160663912Y-113978993D01*
X160863912Y-113978993D01*
X160866912Y-113978993D01*
X160868912Y-113978993D01*
X160871912Y-113979993D01*
X160873912Y-113979993D01*
X160876912Y-113980993D01*
X160878912Y-113980993D01*
X160881912Y-113981993D01*
X160883912Y-113982993D01*
X160886912Y-113983993D01*
X160888912Y-113985993D01*
X160890912Y-113986993D01*
X160892912Y-113988993D01*
X160894912Y-113989993D01*
X160896912Y-113991993D01*
X160898912Y-113993993D01*
X160900912Y-113995993D01*
X160902912Y-113997993D01*
X160903912Y-113999993D01*
X160905912Y-114001993D01*
X160906912Y-114003993D01*
X160908912Y-114005993D01*
X160909912Y-114008993D01*
X160910912Y-114010993D01*
X160911912Y-114013993D01*
X160911912Y-114015993D01*
X160912912Y-114018993D01*
X160912912Y-114020993D01*
X160913912Y-114023993D01*
X160913912Y-114025993D01*
X160913912Y-114028993D01*
X160913912Y-114228993D01*
X160913912Y-114233993D01*
X160912912Y-114238993D01*
X160912912Y-114244993D01*
X160911912Y-114249993D01*
X160910912Y-114254993D01*
X160908912Y-114259993D01*
X160906912Y-114264993D01*
X160904912Y-114269993D01*
X160902912Y-114273993D01*
X160900912Y-114278993D01*
X160897912Y-114282993D01*
X160894912Y-114287993D01*
X160891912Y-114291993D01*
X160887912Y-114295993D01*
X160884912Y-114299993D01*
X160880912Y-114302993D01*
X160876912Y-114306993D01*
X160872912Y-114309993D01*
X160867912Y-114312993D01*
X160863912Y-114315993D01*
X160858912Y-114317993D01*
X160854912Y-114319993D01*
X160849912Y-114321993D01*
X160844912Y-114323993D01*
X160839912Y-114325993D01*
X160834912Y-114326993D01*
X160829912Y-114327993D01*
X160823912Y-114327993D01*
X160818912Y-114328993D01*
X160813912Y-114328993D01*
X160313912Y-114328993D01*
X160308912Y-114328993D01*
X160303912Y-114327993D01*
X160297912Y-114327993D01*
X160292912Y-114326993D01*
X160287912Y-114325993D01*
X160282912Y-114323993D01*
X160277912Y-114321993D01*
X160272912Y-114319993D01*
X160268912Y-114317993D01*
X160263912Y-114315993D01*
X160259912Y-114312993D01*
X160254912Y-114309993D01*
X160250912Y-114306993D01*
X160246912Y-114302993D01*
X160242912Y-114299993D01*
X160239912Y-114295993D01*
X160235912Y-114291993D01*
X160232912Y-114287993D01*
X160229912Y-114282993D01*
X160226912Y-114278993D01*
X160224912Y-114273993D01*
X160222912Y-114269993D01*
X160220912Y-114264993D01*
X160218912Y-114259993D01*
X160216912Y-114254993D01*
X160215912Y-114249993D01*
X160214912Y-114244993D01*
X160214912Y-114238993D01*
X160213912Y-114233993D01*
X160213912Y-114228993D01*
X160213912Y-113428993D01*
X160213912Y-113423993D01*
X160214912Y-113418993D01*
X160214912Y-113412993D01*
X160215912Y-113407993D01*
X160216912Y-113402993D01*
X160218912Y-113397993D01*
X160220912Y-113392993D01*
X160222912Y-113387993D01*
X160224912Y-113383993D01*
X160226912Y-113378993D01*
X160229912Y-113374993D01*
X160232912Y-113369993D01*
X160235912Y-113365993D01*
X160239912Y-113361993D01*
X160242912Y-113357993D01*
X160246912Y-113354993D01*
X160250912Y-113350993D01*
X160254912Y-113347993D01*
X160259912Y-113344993D01*
X160263912Y-113341993D01*
X160268912Y-113339993D01*
X160272912Y-113337993D01*
X160277912Y-113335993D01*
X160282912Y-113333993D01*
X160287912Y-113331993D01*
X160292912Y-113330993D01*
X160297912Y-113329993D01*
X160303912Y-113329993D01*
X160308912Y-113328993D01*
X160313912Y-113328993D01*
X160463912Y-113328993D01*
X160466912Y-113328993D01*
X160468912Y-113328993D01*
X160471912Y-113329993D01*
G37*
X157223912Y-113329993D02*
X157229912Y-113329993D01*
X157234912Y-113330993D01*
X157239912Y-113331993D01*
X157244912Y-113333993D01*
X157249912Y-113335993D01*
X157254912Y-113337993D01*
X157258912Y-113339993D01*
X157263912Y-113341993D01*
X157267912Y-113344993D01*
X157272912Y-113347993D01*
X157276912Y-113350993D01*
X157280912Y-113354993D01*
X157284912Y-113357993D01*
X157287912Y-113361993D01*
X157291912Y-113365993D01*
X157294912Y-113369993D01*
X157297912Y-113374993D01*
X157300912Y-113378993D01*
X157302912Y-113383993D01*
X157304912Y-113387993D01*
X157306912Y-113392993D01*
X157308912Y-113397993D01*
X157310912Y-113402993D01*
X157311912Y-113407993D01*
X157312912Y-113412993D01*
X157312912Y-113418993D01*
X157313912Y-113423993D01*
X157313912Y-113428993D01*
X157313912Y-114228993D01*
X157313912Y-114233993D01*
X157312912Y-114238993D01*
X157312912Y-114244993D01*
X157311912Y-114249993D01*
X157310912Y-114254993D01*
X157308912Y-114259993D01*
X157306912Y-114264993D01*
X157304912Y-114269993D01*
X157302912Y-114273993D01*
X157300912Y-114278993D01*
X157297912Y-114282993D01*
X157294912Y-114287993D01*
X157291912Y-114291993D01*
X157287912Y-114295993D01*
X157284912Y-114299993D01*
X157280912Y-114302993D01*
X157276912Y-114306993D01*
X157272912Y-114309993D01*
X157267912Y-114312993D01*
X157263912Y-114315993D01*
X157258912Y-114317993D01*
X157254912Y-114319993D01*
X157249912Y-114321993D01*
X157244912Y-114323993D01*
X157239912Y-114325993D01*
X157234912Y-114326993D01*
X157229912Y-114327993D01*
X157223912Y-114327993D01*
X157218912Y-114328993D01*
X157213912Y-114328993D01*
X156613912Y-114328993D01*
X156608912Y-114328993D01*
X156603912Y-114327993D01*
X156597912Y-114327993D01*
X156592912Y-114326993D01*
X156587912Y-114325993D01*
X156582912Y-114323993D01*
X156577912Y-114321993D01*
X156572912Y-114319993D01*
X156568912Y-114317993D01*
X156563912Y-114315993D01*
X156559912Y-114312993D01*
X156554912Y-114309993D01*
X156550912Y-114306993D01*
X156546912Y-114302993D01*
X156542912Y-114299993D01*
X156539912Y-114295993D01*
X156535912Y-114291993D01*
X156532912Y-114287993D01*
X156529912Y-114282993D01*
X156526912Y-114278993D01*
X156524912Y-114273993D01*
X156522912Y-114269993D01*
X156520912Y-114264993D01*
X156518912Y-114259993D01*
X156516912Y-114254993D01*
X156515912Y-114249993D01*
X156514912Y-114244993D01*
X156514912Y-114238993D01*
X156513912Y-114233993D01*
X156513912Y-114228993D01*
X156513912Y-114078993D01*
X156513912Y-114073993D01*
X156514912Y-114068993D01*
X156514912Y-114062993D01*
X156515912Y-114057993D01*
X156516912Y-114052993D01*
X156518912Y-114047993D01*
X156520912Y-114042993D01*
X156522912Y-114037993D01*
X156524912Y-114033993D01*
X156526912Y-114028993D01*
X156529912Y-114024993D01*
X156532912Y-114019993D01*
X156535912Y-114015993D01*
X156539912Y-114011993D01*
X156542912Y-114007993D01*
X156546912Y-114004993D01*
X156550912Y-114000993D01*
X156554912Y-113997993D01*
X156559912Y-113994993D01*
X156563912Y-113991993D01*
X156568912Y-113989993D01*
X156572912Y-113987993D01*
X156577912Y-113985993D01*
X156582912Y-113983993D01*
X156587912Y-113981993D01*
X156592912Y-113980993D01*
X156597912Y-113979993D01*
X156603912Y-113979993D01*
X156608912Y-113978993D01*
X156613912Y-113978993D01*
X156813912Y-113978993D01*
X156821912Y-113978993D01*
X156829912Y-113977993D01*
X156836912Y-113976993D01*
X156844912Y-113975993D01*
X156852912Y-113973993D01*
X156859912Y-113971993D01*
X156867912Y-113968993D01*
X156874912Y-113965993D01*
X156881912Y-113962993D01*
X156888912Y-113958993D01*
X156895912Y-113954993D01*
X156901912Y-113949993D01*
X156907912Y-113945993D01*
X156913912Y-113939993D01*
X156919912Y-113934993D01*
X156924912Y-113928993D01*
X156930912Y-113922993D01*
X156934912Y-113916993D01*
X156939912Y-113910993D01*
X156943912Y-113903993D01*
X156947912Y-113896993D01*
X156950912Y-113889993D01*
X156953912Y-113882993D01*
X156956912Y-113874993D01*
X156958912Y-113867993D01*
X156960912Y-113859993D01*
X156961912Y-113851993D01*
X156962912Y-113844993D01*
X156963912Y-113836993D01*
X156963912Y-113828993D01*
X156963912Y-113428993D01*
X156963912Y-113423993D01*
X156964912Y-113418993D01*
X156964912Y-113412993D01*
X156965912Y-113407993D01*
X156966912Y-113402993D01*
X156968912Y-113397993D01*
X156970912Y-113392993D01*
X156972912Y-113387993D01*
X156974912Y-113383993D01*
X156976912Y-113378993D01*
X156979912Y-113374993D01*
X156982912Y-113369993D01*
X156985912Y-113365993D01*
X156989912Y-113361993D01*
X156992912Y-113357993D01*
X156996912Y-113354993D01*
X157000912Y-113350993D01*
X157004912Y-113347993D01*
X157009912Y-113344993D01*
X157013912Y-113341993D01*
X157018912Y-113339993D01*
X157022912Y-113337993D01*
X157027912Y-113335993D01*
X157032912Y-113333993D01*
X157037912Y-113331993D01*
X157042912Y-113330993D01*
X157047912Y-113329993D01*
X157053912Y-113329993D01*
X157058912Y-113328993D01*
X157063912Y-113328993D01*
X157213912Y-113328993D01*
X157218912Y-113328993D01*
X157223912Y-113329993D01*
G36*
X157223912Y-113329993D02*
G01*
X157229912Y-113329993D01*
X157234912Y-113330993D01*
X157239912Y-113331993D01*
X157244912Y-113333993D01*
X157249912Y-113335993D01*
X157254912Y-113337993D01*
X157258912Y-113339993D01*
X157263912Y-113341993D01*
X157267912Y-113344993D01*
X157272912Y-113347993D01*
X157276912Y-113350993D01*
X157280912Y-113354993D01*
X157284912Y-113357993D01*
X157287912Y-113361993D01*
X157291912Y-113365993D01*
X157294912Y-113369993D01*
X157297912Y-113374993D01*
X157300912Y-113378993D01*
X157302912Y-113383993D01*
X157304912Y-113387993D01*
X157306912Y-113392993D01*
X157308912Y-113397993D01*
X157310912Y-113402993D01*
X157311912Y-113407993D01*
X157312912Y-113412993D01*
X157312912Y-113418993D01*
X157313912Y-113423993D01*
X157313912Y-113428993D01*
X157313912Y-114228993D01*
X157313912Y-114233993D01*
X157312912Y-114238993D01*
X157312912Y-114244993D01*
X157311912Y-114249993D01*
X157310912Y-114254993D01*
X157308912Y-114259993D01*
X157306912Y-114264993D01*
X157304912Y-114269993D01*
X157302912Y-114273993D01*
X157300912Y-114278993D01*
X157297912Y-114282993D01*
X157294912Y-114287993D01*
X157291912Y-114291993D01*
X157287912Y-114295993D01*
X157284912Y-114299993D01*
X157280912Y-114302993D01*
X157276912Y-114306993D01*
X157272912Y-114309993D01*
X157267912Y-114312993D01*
X157263912Y-114315993D01*
X157258912Y-114317993D01*
X157254912Y-114319993D01*
X157249912Y-114321993D01*
X157244912Y-114323993D01*
X157239912Y-114325993D01*
X157234912Y-114326993D01*
X157229912Y-114327993D01*
X157223912Y-114327993D01*
X157218912Y-114328993D01*
X157213912Y-114328993D01*
X156613912Y-114328993D01*
X156608912Y-114328993D01*
X156603912Y-114327993D01*
X156597912Y-114327993D01*
X156592912Y-114326993D01*
X156587912Y-114325993D01*
X156582912Y-114323993D01*
X156577912Y-114321993D01*
X156572912Y-114319993D01*
X156568912Y-114317993D01*
X156563912Y-114315993D01*
X156559912Y-114312993D01*
X156554912Y-114309993D01*
X156550912Y-114306993D01*
X156546912Y-114302993D01*
X156542912Y-114299993D01*
X156539912Y-114295993D01*
X156535912Y-114291993D01*
X156532912Y-114287993D01*
X156529912Y-114282993D01*
X156526912Y-114278993D01*
X156524912Y-114273993D01*
X156522912Y-114269993D01*
X156520912Y-114264993D01*
X156518912Y-114259993D01*
X156516912Y-114254993D01*
X156515912Y-114249993D01*
X156514912Y-114244993D01*
X156514912Y-114238993D01*
X156513912Y-114233993D01*
X156513912Y-114228993D01*
X156513912Y-114078993D01*
X156513912Y-114073993D01*
X156514912Y-114068993D01*
X156514912Y-114062993D01*
X156515912Y-114057993D01*
X156516912Y-114052993D01*
X156518912Y-114047993D01*
X156520912Y-114042993D01*
X156522912Y-114037993D01*
X156524912Y-114033993D01*
X156526912Y-114028993D01*
X156529912Y-114024993D01*
X156532912Y-114019993D01*
X156535912Y-114015993D01*
X156539912Y-114011993D01*
X156542912Y-114007993D01*
X156546912Y-114004993D01*
X156550912Y-114000993D01*
X156554912Y-113997993D01*
X156559912Y-113994993D01*
X156563912Y-113991993D01*
X156568912Y-113989993D01*
X156572912Y-113987993D01*
X156577912Y-113985993D01*
X156582912Y-113983993D01*
X156587912Y-113981993D01*
X156592912Y-113980993D01*
X156597912Y-113979993D01*
X156603912Y-113979993D01*
X156608912Y-113978993D01*
X156613912Y-113978993D01*
X156813912Y-113978993D01*
X156821912Y-113978993D01*
X156829912Y-113977993D01*
X156836912Y-113976993D01*
X156844912Y-113975993D01*
X156852912Y-113973993D01*
X156859912Y-113971993D01*
X156867912Y-113968993D01*
X156874912Y-113965993D01*
X156881912Y-113962993D01*
X156888912Y-113958993D01*
X156895912Y-113954993D01*
X156901912Y-113949993D01*
X156907912Y-113945993D01*
X156913912Y-113939993D01*
X156919912Y-113934993D01*
X156924912Y-113928993D01*
X156930912Y-113922993D01*
X156934912Y-113916993D01*
X156939912Y-113910993D01*
X156943912Y-113903993D01*
X156947912Y-113896993D01*
X156950912Y-113889993D01*
X156953912Y-113882993D01*
X156956912Y-113874993D01*
X156958912Y-113867993D01*
X156960912Y-113859993D01*
X156961912Y-113851993D01*
X156962912Y-113844993D01*
X156963912Y-113836993D01*
X156963912Y-113828993D01*
X156963912Y-113428993D01*
X156963912Y-113423993D01*
X156964912Y-113418993D01*
X156964912Y-113412993D01*
X156965912Y-113407993D01*
X156966912Y-113402993D01*
X156968912Y-113397993D01*
X156970912Y-113392993D01*
X156972912Y-113387993D01*
X156974912Y-113383993D01*
X156976912Y-113378993D01*
X156979912Y-113374993D01*
X156982912Y-113369993D01*
X156985912Y-113365993D01*
X156989912Y-113361993D01*
X156992912Y-113357993D01*
X156996912Y-113354993D01*
X157000912Y-113350993D01*
X157004912Y-113347993D01*
X157009912Y-113344993D01*
X157013912Y-113341993D01*
X157018912Y-113339993D01*
X157022912Y-113337993D01*
X157027912Y-113335993D01*
X157032912Y-113333993D01*
X157037912Y-113331993D01*
X157042912Y-113330993D01*
X157047912Y-113329993D01*
X157053912Y-113329993D01*
X157058912Y-113328993D01*
X157063912Y-113328993D01*
X157213912Y-113328993D01*
X157218912Y-113328993D01*
X157223912Y-113329993D01*
G37*
X157223912Y-116229993D02*
X157229912Y-116229993D01*
X157234912Y-116230993D01*
X157239912Y-116231993D01*
X157244912Y-116233993D01*
X157249912Y-116235993D01*
X157254912Y-116237993D01*
X157258912Y-116239993D01*
X157263912Y-116241993D01*
X157267912Y-116244993D01*
X157272912Y-116247993D01*
X157276912Y-116250993D01*
X157280912Y-116254993D01*
X157284912Y-116257993D01*
X157287912Y-116261993D01*
X157291912Y-116265993D01*
X157294912Y-116269993D01*
X157297912Y-116274993D01*
X157300912Y-116278993D01*
X157302912Y-116283993D01*
X157304912Y-116287993D01*
X157306912Y-116292993D01*
X157308912Y-116297993D01*
X157310912Y-116302993D01*
X157311912Y-116307993D01*
X157312912Y-116312993D01*
X157312912Y-116318993D01*
X157313912Y-116323993D01*
X157313912Y-116328993D01*
X157313912Y-117128993D01*
X157313912Y-117133993D01*
X157312912Y-117138993D01*
X157312912Y-117144993D01*
X157311912Y-117149993D01*
X157310912Y-117154993D01*
X157308912Y-117159993D01*
X157306912Y-117164993D01*
X157304912Y-117169993D01*
X157302912Y-117173993D01*
X157300912Y-117178993D01*
X157297912Y-117182993D01*
X157294912Y-117187993D01*
X157291912Y-117191993D01*
X157287912Y-117195993D01*
X157284912Y-117199993D01*
X157280912Y-117202993D01*
X157276912Y-117206993D01*
X157272912Y-117209993D01*
X157267912Y-117212993D01*
X157263912Y-117215993D01*
X157258912Y-117217993D01*
X157254912Y-117219993D01*
X157249912Y-117221993D01*
X157244912Y-117223993D01*
X157239912Y-117225993D01*
X157234912Y-117226993D01*
X157229912Y-117227993D01*
X157223912Y-117227993D01*
X157218912Y-117228993D01*
X157213912Y-117228993D01*
X157063912Y-117228993D01*
X157058912Y-117228993D01*
X157053912Y-117227993D01*
X157047912Y-117227993D01*
X157042912Y-117226993D01*
X157037912Y-117225993D01*
X157032912Y-117223993D01*
X157027912Y-117221993D01*
X157022912Y-117219993D01*
X157018912Y-117217993D01*
X157013912Y-117215993D01*
X157009912Y-117212993D01*
X157004912Y-117209993D01*
X157000912Y-117206993D01*
X156996912Y-117202993D01*
X156992912Y-117199993D01*
X156989912Y-117195993D01*
X156985912Y-117191993D01*
X156982912Y-117187993D01*
X156979912Y-117182993D01*
X156976912Y-117178993D01*
X156974912Y-117173993D01*
X156972912Y-117169993D01*
X156970912Y-117164993D01*
X156968912Y-117159993D01*
X156966912Y-117154993D01*
X156965912Y-117149993D01*
X156964912Y-117144993D01*
X156964912Y-117138993D01*
X156963912Y-117133993D01*
X156963912Y-117128993D01*
X156963912Y-116728993D01*
X156963912Y-116720993D01*
X156962912Y-116712993D01*
X156961912Y-116705993D01*
X156960912Y-116697993D01*
X156958912Y-116689993D01*
X156956912Y-116682993D01*
X156953912Y-116674993D01*
X156950912Y-116667993D01*
X156947912Y-116660993D01*
X156943912Y-116653993D01*
X156939912Y-116646993D01*
X156934912Y-116640993D01*
X156930912Y-116634993D01*
X156924912Y-116628993D01*
X156919912Y-116622993D01*
X156913912Y-116617993D01*
X156907912Y-116611993D01*
X156901912Y-116607993D01*
X156895912Y-116602993D01*
X156888912Y-116598993D01*
X156881912Y-116594993D01*
X156874912Y-116591993D01*
X156867912Y-116588993D01*
X156859912Y-116585993D01*
X156852912Y-116583993D01*
X156844912Y-116581993D01*
X156836912Y-116580993D01*
X156829912Y-116579993D01*
X156821912Y-116578993D01*
X156813912Y-116578993D01*
X156613912Y-116578993D01*
X156608912Y-116578993D01*
X156603912Y-116577993D01*
X156597912Y-116577993D01*
X156592912Y-116576993D01*
X156587912Y-116575993D01*
X156582912Y-116573993D01*
X156577912Y-116571993D01*
X156572912Y-116569993D01*
X156568912Y-116567993D01*
X156563912Y-116565993D01*
X156559912Y-116562993D01*
X156554912Y-116559993D01*
X156550912Y-116556993D01*
X156546912Y-116552993D01*
X156542912Y-116549993D01*
X156539912Y-116545993D01*
X156535912Y-116541993D01*
X156532912Y-116537993D01*
X156529912Y-116532993D01*
X156526912Y-116528993D01*
X156524912Y-116523993D01*
X156522912Y-116519993D01*
X156520912Y-116514993D01*
X156518912Y-116509993D01*
X156516912Y-116504993D01*
X156515912Y-116499993D01*
X156514912Y-116494993D01*
X156514912Y-116488993D01*
X156513912Y-116483993D01*
X156513912Y-116478993D01*
X156513912Y-116328993D01*
X156513912Y-116323993D01*
X156514912Y-116318993D01*
X156514912Y-116312993D01*
X156515912Y-116307993D01*
X156516912Y-116302993D01*
X156518912Y-116297993D01*
X156520912Y-116292993D01*
X156522912Y-116287993D01*
X156524912Y-116283993D01*
X156526912Y-116278993D01*
X156529912Y-116274993D01*
X156532912Y-116269993D01*
X156535912Y-116265993D01*
X156539912Y-116261993D01*
X156542912Y-116257993D01*
X156546912Y-116254993D01*
X156550912Y-116250993D01*
X156554912Y-116247993D01*
X156559912Y-116244993D01*
X156563912Y-116241993D01*
X156568912Y-116239993D01*
X156572912Y-116237993D01*
X156577912Y-116235993D01*
X156582912Y-116233993D01*
X156587912Y-116231993D01*
X156592912Y-116230993D01*
X156597912Y-116229993D01*
X156603912Y-116229993D01*
X156608912Y-116228993D01*
X156613912Y-116228993D01*
X157213912Y-116228993D01*
X157218912Y-116228993D01*
X157223912Y-116229993D01*
G36*
X157223912Y-116229993D02*
G01*
X157229912Y-116229993D01*
X157234912Y-116230993D01*
X157239912Y-116231993D01*
X157244912Y-116233993D01*
X157249912Y-116235993D01*
X157254912Y-116237993D01*
X157258912Y-116239993D01*
X157263912Y-116241993D01*
X157267912Y-116244993D01*
X157272912Y-116247993D01*
X157276912Y-116250993D01*
X157280912Y-116254993D01*
X157284912Y-116257993D01*
X157287912Y-116261993D01*
X157291912Y-116265993D01*
X157294912Y-116269993D01*
X157297912Y-116274993D01*
X157300912Y-116278993D01*
X157302912Y-116283993D01*
X157304912Y-116287993D01*
X157306912Y-116292993D01*
X157308912Y-116297993D01*
X157310912Y-116302993D01*
X157311912Y-116307993D01*
X157312912Y-116312993D01*
X157312912Y-116318993D01*
X157313912Y-116323993D01*
X157313912Y-116328993D01*
X157313912Y-117128993D01*
X157313912Y-117133993D01*
X157312912Y-117138993D01*
X157312912Y-117144993D01*
X157311912Y-117149993D01*
X157310912Y-117154993D01*
X157308912Y-117159993D01*
X157306912Y-117164993D01*
X157304912Y-117169993D01*
X157302912Y-117173993D01*
X157300912Y-117178993D01*
X157297912Y-117182993D01*
X157294912Y-117187993D01*
X157291912Y-117191993D01*
X157287912Y-117195993D01*
X157284912Y-117199993D01*
X157280912Y-117202993D01*
X157276912Y-117206993D01*
X157272912Y-117209993D01*
X157267912Y-117212993D01*
X157263912Y-117215993D01*
X157258912Y-117217993D01*
X157254912Y-117219993D01*
X157249912Y-117221993D01*
X157244912Y-117223993D01*
X157239912Y-117225993D01*
X157234912Y-117226993D01*
X157229912Y-117227993D01*
X157223912Y-117227993D01*
X157218912Y-117228993D01*
X157213912Y-117228993D01*
X157063912Y-117228993D01*
X157058912Y-117228993D01*
X157053912Y-117227993D01*
X157047912Y-117227993D01*
X157042912Y-117226993D01*
X157037912Y-117225993D01*
X157032912Y-117223993D01*
X157027912Y-117221993D01*
X157022912Y-117219993D01*
X157018912Y-117217993D01*
X157013912Y-117215993D01*
X157009912Y-117212993D01*
X157004912Y-117209993D01*
X157000912Y-117206993D01*
X156996912Y-117202993D01*
X156992912Y-117199993D01*
X156989912Y-117195993D01*
X156985912Y-117191993D01*
X156982912Y-117187993D01*
X156979912Y-117182993D01*
X156976912Y-117178993D01*
X156974912Y-117173993D01*
X156972912Y-117169993D01*
X156970912Y-117164993D01*
X156968912Y-117159993D01*
X156966912Y-117154993D01*
X156965912Y-117149993D01*
X156964912Y-117144993D01*
X156964912Y-117138993D01*
X156963912Y-117133993D01*
X156963912Y-117128993D01*
X156963912Y-116728993D01*
X156963912Y-116720993D01*
X156962912Y-116712993D01*
X156961912Y-116705993D01*
X156960912Y-116697993D01*
X156958912Y-116689993D01*
X156956912Y-116682993D01*
X156953912Y-116674993D01*
X156950912Y-116667993D01*
X156947912Y-116660993D01*
X156943912Y-116653993D01*
X156939912Y-116646993D01*
X156934912Y-116640993D01*
X156930912Y-116634993D01*
X156924912Y-116628993D01*
X156919912Y-116622993D01*
X156913912Y-116617993D01*
X156907912Y-116611993D01*
X156901912Y-116607993D01*
X156895912Y-116602993D01*
X156888912Y-116598993D01*
X156881912Y-116594993D01*
X156874912Y-116591993D01*
X156867912Y-116588993D01*
X156859912Y-116585993D01*
X156852912Y-116583993D01*
X156844912Y-116581993D01*
X156836912Y-116580993D01*
X156829912Y-116579993D01*
X156821912Y-116578993D01*
X156813912Y-116578993D01*
X156613912Y-116578993D01*
X156608912Y-116578993D01*
X156603912Y-116577993D01*
X156597912Y-116577993D01*
X156592912Y-116576993D01*
X156587912Y-116575993D01*
X156582912Y-116573993D01*
X156577912Y-116571993D01*
X156572912Y-116569993D01*
X156568912Y-116567993D01*
X156563912Y-116565993D01*
X156559912Y-116562993D01*
X156554912Y-116559993D01*
X156550912Y-116556993D01*
X156546912Y-116552993D01*
X156542912Y-116549993D01*
X156539912Y-116545993D01*
X156535912Y-116541993D01*
X156532912Y-116537993D01*
X156529912Y-116532993D01*
X156526912Y-116528993D01*
X156524912Y-116523993D01*
X156522912Y-116519993D01*
X156520912Y-116514993D01*
X156518912Y-116509993D01*
X156516912Y-116504993D01*
X156515912Y-116499993D01*
X156514912Y-116494993D01*
X156514912Y-116488993D01*
X156513912Y-116483993D01*
X156513912Y-116478993D01*
X156513912Y-116328993D01*
X156513912Y-116323993D01*
X156514912Y-116318993D01*
X156514912Y-116312993D01*
X156515912Y-116307993D01*
X156516912Y-116302993D01*
X156518912Y-116297993D01*
X156520912Y-116292993D01*
X156522912Y-116287993D01*
X156524912Y-116283993D01*
X156526912Y-116278993D01*
X156529912Y-116274993D01*
X156532912Y-116269993D01*
X156535912Y-116265993D01*
X156539912Y-116261993D01*
X156542912Y-116257993D01*
X156546912Y-116254993D01*
X156550912Y-116250993D01*
X156554912Y-116247993D01*
X156559912Y-116244993D01*
X156563912Y-116241993D01*
X156568912Y-116239993D01*
X156572912Y-116237993D01*
X156577912Y-116235993D01*
X156582912Y-116233993D01*
X156587912Y-116231993D01*
X156592912Y-116230993D01*
X156597912Y-116229993D01*
X156603912Y-116229993D01*
X156608912Y-116228993D01*
X156613912Y-116228993D01*
X157213912Y-116228993D01*
X157218912Y-116228993D01*
X157223912Y-116229993D01*
G37*
X158823912Y-115079993D02*
X158829912Y-115079993D01*
X158834912Y-115080993D01*
X158839912Y-115081993D01*
X158844912Y-115083993D01*
X158849912Y-115085993D01*
X158854912Y-115087993D01*
X158858912Y-115089993D01*
X158863912Y-115091993D01*
X158867912Y-115094993D01*
X158872912Y-115097993D01*
X158876912Y-115100993D01*
X158880912Y-115104993D01*
X158884912Y-115107993D01*
X158887912Y-115111993D01*
X158891912Y-115115993D01*
X158894912Y-115119993D01*
X158897912Y-115124993D01*
X158900912Y-115128993D01*
X158902912Y-115133993D01*
X158904912Y-115137993D01*
X158906912Y-115142993D01*
X158908912Y-115147993D01*
X158910912Y-115152993D01*
X158911912Y-115157993D01*
X158912912Y-115162993D01*
X158912912Y-115168993D01*
X158913912Y-115173993D01*
X158913912Y-115178993D01*
X158913912Y-115378993D01*
X158913912Y-115383993D01*
X158912912Y-115388993D01*
X158912912Y-115394993D01*
X158911912Y-115399993D01*
X158910912Y-115404993D01*
X158908912Y-115409993D01*
X158906912Y-115414993D01*
X158904912Y-115419993D01*
X158902912Y-115423993D01*
X158900912Y-115428993D01*
X158897912Y-115432993D01*
X158894912Y-115437993D01*
X158891912Y-115441993D01*
X158887912Y-115445993D01*
X158884912Y-115449993D01*
X158880912Y-115452993D01*
X158876912Y-115456993D01*
X158872912Y-115459993D01*
X158867912Y-115462993D01*
X158863912Y-115465993D01*
X158858912Y-115467993D01*
X158854912Y-115469993D01*
X158849912Y-115471993D01*
X158844912Y-115473993D01*
X158839912Y-115475993D01*
X158834912Y-115476993D01*
X158829912Y-115477993D01*
X158823912Y-115477993D01*
X158818912Y-115478993D01*
X158813912Y-115478993D01*
X157913912Y-115478993D01*
X157908912Y-115478993D01*
X157903912Y-115477993D01*
X157897912Y-115477993D01*
X157892912Y-115476993D01*
X157887912Y-115475993D01*
X157882912Y-115473993D01*
X157877912Y-115471993D01*
X157872912Y-115469993D01*
X157868912Y-115467993D01*
X157863912Y-115465993D01*
X157859912Y-115462993D01*
X157854912Y-115459993D01*
X157850912Y-115456993D01*
X157846912Y-115452993D01*
X157842912Y-115449993D01*
X157839912Y-115445993D01*
X157835912Y-115441993D01*
X157832912Y-115437993D01*
X157829912Y-115432993D01*
X157826912Y-115428993D01*
X157824912Y-115423993D01*
X157822912Y-115419993D01*
X157820912Y-115414993D01*
X157818912Y-115409993D01*
X157816912Y-115404993D01*
X157815912Y-115399993D01*
X157814912Y-115394993D01*
X157814912Y-115388993D01*
X157813912Y-115383993D01*
X157813912Y-115378993D01*
X157813912Y-115178993D01*
X157813912Y-115173993D01*
X157814912Y-115168993D01*
X157814912Y-115162993D01*
X157815912Y-115157993D01*
X157816912Y-115152993D01*
X157818912Y-115147993D01*
X157820912Y-115142993D01*
X157822912Y-115137993D01*
X157824912Y-115133993D01*
X157826912Y-115128993D01*
X157829912Y-115124993D01*
X157832912Y-115119993D01*
X157835912Y-115115993D01*
X157839912Y-115111993D01*
X157842912Y-115107993D01*
X157846912Y-115104993D01*
X157850912Y-115100993D01*
X157854912Y-115097993D01*
X157859912Y-115094993D01*
X157863912Y-115091993D01*
X157868912Y-115089993D01*
X157872912Y-115087993D01*
X157877912Y-115085993D01*
X157882912Y-115083993D01*
X157887912Y-115081993D01*
X157892912Y-115080993D01*
X157897912Y-115079993D01*
X157903912Y-115079993D01*
X157908912Y-115078993D01*
X157913912Y-115078993D01*
X158813912Y-115078993D01*
X158818912Y-115078993D01*
X158823912Y-115079993D01*
G36*
X158823912Y-115079993D02*
G01*
X158829912Y-115079993D01*
X158834912Y-115080993D01*
X158839912Y-115081993D01*
X158844912Y-115083993D01*
X158849912Y-115085993D01*
X158854912Y-115087993D01*
X158858912Y-115089993D01*
X158863912Y-115091993D01*
X158867912Y-115094993D01*
X158872912Y-115097993D01*
X158876912Y-115100993D01*
X158880912Y-115104993D01*
X158884912Y-115107993D01*
X158887912Y-115111993D01*
X158891912Y-115115993D01*
X158894912Y-115119993D01*
X158897912Y-115124993D01*
X158900912Y-115128993D01*
X158902912Y-115133993D01*
X158904912Y-115137993D01*
X158906912Y-115142993D01*
X158908912Y-115147993D01*
X158910912Y-115152993D01*
X158911912Y-115157993D01*
X158912912Y-115162993D01*
X158912912Y-115168993D01*
X158913912Y-115173993D01*
X158913912Y-115178993D01*
X158913912Y-115378993D01*
X158913912Y-115383993D01*
X158912912Y-115388993D01*
X158912912Y-115394993D01*
X158911912Y-115399993D01*
X158910912Y-115404993D01*
X158908912Y-115409993D01*
X158906912Y-115414993D01*
X158904912Y-115419993D01*
X158902912Y-115423993D01*
X158900912Y-115428993D01*
X158897912Y-115432993D01*
X158894912Y-115437993D01*
X158891912Y-115441993D01*
X158887912Y-115445993D01*
X158884912Y-115449993D01*
X158880912Y-115452993D01*
X158876912Y-115456993D01*
X158872912Y-115459993D01*
X158867912Y-115462993D01*
X158863912Y-115465993D01*
X158858912Y-115467993D01*
X158854912Y-115469993D01*
X158849912Y-115471993D01*
X158844912Y-115473993D01*
X158839912Y-115475993D01*
X158834912Y-115476993D01*
X158829912Y-115477993D01*
X158823912Y-115477993D01*
X158818912Y-115478993D01*
X158813912Y-115478993D01*
X157913912Y-115478993D01*
X157908912Y-115478993D01*
X157903912Y-115477993D01*
X157897912Y-115477993D01*
X157892912Y-115476993D01*
X157887912Y-115475993D01*
X157882912Y-115473993D01*
X157877912Y-115471993D01*
X157872912Y-115469993D01*
X157868912Y-115467993D01*
X157863912Y-115465993D01*
X157859912Y-115462993D01*
X157854912Y-115459993D01*
X157850912Y-115456993D01*
X157846912Y-115452993D01*
X157842912Y-115449993D01*
X157839912Y-115445993D01*
X157835912Y-115441993D01*
X157832912Y-115437993D01*
X157829912Y-115432993D01*
X157826912Y-115428993D01*
X157824912Y-115423993D01*
X157822912Y-115419993D01*
X157820912Y-115414993D01*
X157818912Y-115409993D01*
X157816912Y-115404993D01*
X157815912Y-115399993D01*
X157814912Y-115394993D01*
X157814912Y-115388993D01*
X157813912Y-115383993D01*
X157813912Y-115378993D01*
X157813912Y-115178993D01*
X157813912Y-115173993D01*
X157814912Y-115168993D01*
X157814912Y-115162993D01*
X157815912Y-115157993D01*
X157816912Y-115152993D01*
X157818912Y-115147993D01*
X157820912Y-115142993D01*
X157822912Y-115137993D01*
X157824912Y-115133993D01*
X157826912Y-115128993D01*
X157829912Y-115124993D01*
X157832912Y-115119993D01*
X157835912Y-115115993D01*
X157839912Y-115111993D01*
X157842912Y-115107993D01*
X157846912Y-115104993D01*
X157850912Y-115100993D01*
X157854912Y-115097993D01*
X157859912Y-115094993D01*
X157863912Y-115091993D01*
X157868912Y-115089993D01*
X157872912Y-115087993D01*
X157877912Y-115085993D01*
X157882912Y-115083993D01*
X157887912Y-115081993D01*
X157892912Y-115080993D01*
X157897912Y-115079993D01*
X157903912Y-115079993D01*
X157908912Y-115078993D01*
X157913912Y-115078993D01*
X158813912Y-115078993D01*
X158818912Y-115078993D01*
X158823912Y-115079993D01*
G37*
X160823912Y-116229993D02*
X160829912Y-116229993D01*
X160834912Y-116230993D01*
X160839912Y-116231993D01*
X160844912Y-116233993D01*
X160849912Y-116235993D01*
X160854912Y-116237993D01*
X160858912Y-116239993D01*
X160863912Y-116241993D01*
X160867912Y-116244993D01*
X160872912Y-116247993D01*
X160876912Y-116250993D01*
X160880912Y-116254993D01*
X160884912Y-116257993D01*
X160887912Y-116261993D01*
X160891912Y-116265993D01*
X160894912Y-116269993D01*
X160897912Y-116274993D01*
X160900912Y-116278993D01*
X160902912Y-116283993D01*
X160904912Y-116287993D01*
X160906912Y-116292993D01*
X160908912Y-116297993D01*
X160910912Y-116302993D01*
X160911912Y-116307993D01*
X160912912Y-116312993D01*
X160912912Y-116318993D01*
X160913912Y-116323993D01*
X160913912Y-116328993D01*
X160913912Y-116528993D01*
X160913912Y-116531993D01*
X160913912Y-116533993D01*
X160912912Y-116536993D01*
X160912912Y-116538993D01*
X160911912Y-116541993D01*
X160911912Y-116543993D01*
X160910912Y-116546993D01*
X160909912Y-116548993D01*
X160908912Y-116551993D01*
X160906912Y-116553993D01*
X160905912Y-116555993D01*
X160903912Y-116557993D01*
X160902912Y-116559993D01*
X160900912Y-116561993D01*
X160898912Y-116563993D01*
X160896912Y-116565993D01*
X160894912Y-116567993D01*
X160892912Y-116568993D01*
X160890912Y-116570993D01*
X160888912Y-116571993D01*
X160886912Y-116573993D01*
X160883912Y-116574993D01*
X160881912Y-116575993D01*
X160878912Y-116576993D01*
X160876912Y-116576993D01*
X160873912Y-116577993D01*
X160871912Y-116577993D01*
X160868912Y-116578993D01*
X160866912Y-116578993D01*
X160863912Y-116578993D01*
X160663912Y-116578993D01*
X160655912Y-116578993D01*
X160647912Y-116579993D01*
X160640912Y-116580993D01*
X160632912Y-116581993D01*
X160624912Y-116583993D01*
X160617912Y-116585993D01*
X160609912Y-116588993D01*
X160602912Y-116591993D01*
X160595912Y-116594993D01*
X160588912Y-116598993D01*
X160581912Y-116602993D01*
X160575912Y-116607993D01*
X160569912Y-116611993D01*
X160563912Y-116617993D01*
X160557912Y-116622993D01*
X160552912Y-116628993D01*
X160546912Y-116634993D01*
X160542912Y-116640993D01*
X160537912Y-116646993D01*
X160533912Y-116653993D01*
X160529912Y-116660993D01*
X160526912Y-116667993D01*
X160523912Y-116674993D01*
X160520912Y-116682993D01*
X160518912Y-116689993D01*
X160516912Y-116697993D01*
X160515912Y-116705993D01*
X160514912Y-116712993D01*
X160513912Y-116720993D01*
X160513912Y-116728993D01*
X160513912Y-117178993D01*
X160513912Y-117181993D01*
X160513912Y-117183993D01*
X160512912Y-117186993D01*
X160512912Y-117188993D01*
X160511912Y-117191993D01*
X160511912Y-117193993D01*
X160510912Y-117196993D01*
X160509912Y-117198993D01*
X160508912Y-117201993D01*
X160506912Y-117203993D01*
X160505912Y-117205993D01*
X160503912Y-117207993D01*
X160502912Y-117209993D01*
X160500912Y-117211993D01*
X160498912Y-117213993D01*
X160496912Y-117215993D01*
X160494912Y-117217993D01*
X160492912Y-117218993D01*
X160490912Y-117220993D01*
X160488912Y-117221993D01*
X160486912Y-117223993D01*
X160483912Y-117224993D01*
X160481912Y-117225993D01*
X160478912Y-117226993D01*
X160476912Y-117226993D01*
X160473912Y-117227993D01*
X160471912Y-117227993D01*
X160468912Y-117228993D01*
X160466912Y-117228993D01*
X160463912Y-117228993D01*
X160313912Y-117228993D01*
X160308912Y-117228993D01*
X160303912Y-117227993D01*
X160297912Y-117227993D01*
X160292912Y-117226993D01*
X160287912Y-117225993D01*
X160282912Y-117223993D01*
X160277912Y-117221993D01*
X160272912Y-117219993D01*
X160268912Y-117217993D01*
X160263912Y-117215993D01*
X160259912Y-117212993D01*
X160254912Y-117209993D01*
X160250912Y-117206993D01*
X160246912Y-117202993D01*
X160242912Y-117199993D01*
X160239912Y-117195993D01*
X160235912Y-117191993D01*
X160232912Y-117187993D01*
X160229912Y-117182993D01*
X160226912Y-117178993D01*
X160224912Y-117173993D01*
X160222912Y-117169993D01*
X160220912Y-117164993D01*
X160218912Y-117159993D01*
X160216912Y-117154993D01*
X160215912Y-117149993D01*
X160214912Y-117144993D01*
X160214912Y-117138993D01*
X160213912Y-117133993D01*
X160213912Y-117128993D01*
X160213912Y-116328993D01*
X160213912Y-116323993D01*
X160214912Y-116318993D01*
X160214912Y-116312993D01*
X160215912Y-116307993D01*
X160216912Y-116302993D01*
X160218912Y-116297993D01*
X160220912Y-116292993D01*
X160222912Y-116287993D01*
X160224912Y-116283993D01*
X160226912Y-116278993D01*
X160229912Y-116274993D01*
X160232912Y-116269993D01*
X160235912Y-116265993D01*
X160239912Y-116261993D01*
X160242912Y-116257993D01*
X160246912Y-116254993D01*
X160250912Y-116250993D01*
X160254912Y-116247993D01*
X160259912Y-116244993D01*
X160263912Y-116241993D01*
X160268912Y-116239993D01*
X160272912Y-116237993D01*
X160277912Y-116235993D01*
X160282912Y-116233993D01*
X160287912Y-116231993D01*
X160292912Y-116230993D01*
X160297912Y-116229993D01*
X160303912Y-116229993D01*
X160308912Y-116228993D01*
X160313912Y-116228993D01*
X160813912Y-116228993D01*
X160818912Y-116228993D01*
X160823912Y-116229993D01*
G36*
X160823912Y-116229993D02*
G01*
X160829912Y-116229993D01*
X160834912Y-116230993D01*
X160839912Y-116231993D01*
X160844912Y-116233993D01*
X160849912Y-116235993D01*
X160854912Y-116237993D01*
X160858912Y-116239993D01*
X160863912Y-116241993D01*
X160867912Y-116244993D01*
X160872912Y-116247993D01*
X160876912Y-116250993D01*
X160880912Y-116254993D01*
X160884912Y-116257993D01*
X160887912Y-116261993D01*
X160891912Y-116265993D01*
X160894912Y-116269993D01*
X160897912Y-116274993D01*
X160900912Y-116278993D01*
X160902912Y-116283993D01*
X160904912Y-116287993D01*
X160906912Y-116292993D01*
X160908912Y-116297993D01*
X160910912Y-116302993D01*
X160911912Y-116307993D01*
X160912912Y-116312993D01*
X160912912Y-116318993D01*
X160913912Y-116323993D01*
X160913912Y-116328993D01*
X160913912Y-116528993D01*
X160913912Y-116531993D01*
X160913912Y-116533993D01*
X160912912Y-116536993D01*
X160912912Y-116538993D01*
X160911912Y-116541993D01*
X160911912Y-116543993D01*
X160910912Y-116546993D01*
X160909912Y-116548993D01*
X160908912Y-116551993D01*
X160906912Y-116553993D01*
X160905912Y-116555993D01*
X160903912Y-116557993D01*
X160902912Y-116559993D01*
X160900912Y-116561993D01*
X160898912Y-116563993D01*
X160896912Y-116565993D01*
X160894912Y-116567993D01*
X160892912Y-116568993D01*
X160890912Y-116570993D01*
X160888912Y-116571993D01*
X160886912Y-116573993D01*
X160883912Y-116574993D01*
X160881912Y-116575993D01*
X160878912Y-116576993D01*
X160876912Y-116576993D01*
X160873912Y-116577993D01*
X160871912Y-116577993D01*
X160868912Y-116578993D01*
X160866912Y-116578993D01*
X160863912Y-116578993D01*
X160663912Y-116578993D01*
X160655912Y-116578993D01*
X160647912Y-116579993D01*
X160640912Y-116580993D01*
X160632912Y-116581993D01*
X160624912Y-116583993D01*
X160617912Y-116585993D01*
X160609912Y-116588993D01*
X160602912Y-116591993D01*
X160595912Y-116594993D01*
X160588912Y-116598993D01*
X160581912Y-116602993D01*
X160575912Y-116607993D01*
X160569912Y-116611993D01*
X160563912Y-116617993D01*
X160557912Y-116622993D01*
X160552912Y-116628993D01*
X160546912Y-116634993D01*
X160542912Y-116640993D01*
X160537912Y-116646993D01*
X160533912Y-116653993D01*
X160529912Y-116660993D01*
X160526912Y-116667993D01*
X160523912Y-116674993D01*
X160520912Y-116682993D01*
X160518912Y-116689993D01*
X160516912Y-116697993D01*
X160515912Y-116705993D01*
X160514912Y-116712993D01*
X160513912Y-116720993D01*
X160513912Y-116728993D01*
X160513912Y-117178993D01*
X160513912Y-117181993D01*
X160513912Y-117183993D01*
X160512912Y-117186993D01*
X160512912Y-117188993D01*
X160511912Y-117191993D01*
X160511912Y-117193993D01*
X160510912Y-117196993D01*
X160509912Y-117198993D01*
X160508912Y-117201993D01*
X160506912Y-117203993D01*
X160505912Y-117205993D01*
X160503912Y-117207993D01*
X160502912Y-117209993D01*
X160500912Y-117211993D01*
X160498912Y-117213993D01*
X160496912Y-117215993D01*
X160494912Y-117217993D01*
X160492912Y-117218993D01*
X160490912Y-117220993D01*
X160488912Y-117221993D01*
X160486912Y-117223993D01*
X160483912Y-117224993D01*
X160481912Y-117225993D01*
X160478912Y-117226993D01*
X160476912Y-117226993D01*
X160473912Y-117227993D01*
X160471912Y-117227993D01*
X160468912Y-117228993D01*
X160466912Y-117228993D01*
X160463912Y-117228993D01*
X160313912Y-117228993D01*
X160308912Y-117228993D01*
X160303912Y-117227993D01*
X160297912Y-117227993D01*
X160292912Y-117226993D01*
X160287912Y-117225993D01*
X160282912Y-117223993D01*
X160277912Y-117221993D01*
X160272912Y-117219993D01*
X160268912Y-117217993D01*
X160263912Y-117215993D01*
X160259912Y-117212993D01*
X160254912Y-117209993D01*
X160250912Y-117206993D01*
X160246912Y-117202993D01*
X160242912Y-117199993D01*
X160239912Y-117195993D01*
X160235912Y-117191993D01*
X160232912Y-117187993D01*
X160229912Y-117182993D01*
X160226912Y-117178993D01*
X160224912Y-117173993D01*
X160222912Y-117169993D01*
X160220912Y-117164993D01*
X160218912Y-117159993D01*
X160216912Y-117154993D01*
X160215912Y-117149993D01*
X160214912Y-117144993D01*
X160214912Y-117138993D01*
X160213912Y-117133993D01*
X160213912Y-117128993D01*
X160213912Y-116328993D01*
X160213912Y-116323993D01*
X160214912Y-116318993D01*
X160214912Y-116312993D01*
X160215912Y-116307993D01*
X160216912Y-116302993D01*
X160218912Y-116297993D01*
X160220912Y-116292993D01*
X160222912Y-116287993D01*
X160224912Y-116283993D01*
X160226912Y-116278993D01*
X160229912Y-116274993D01*
X160232912Y-116269993D01*
X160235912Y-116265993D01*
X160239912Y-116261993D01*
X160242912Y-116257993D01*
X160246912Y-116254993D01*
X160250912Y-116250993D01*
X160254912Y-116247993D01*
X160259912Y-116244993D01*
X160263912Y-116241993D01*
X160268912Y-116239993D01*
X160272912Y-116237993D01*
X160277912Y-116235993D01*
X160282912Y-116233993D01*
X160287912Y-116231993D01*
X160292912Y-116230993D01*
X160297912Y-116229993D01*
X160303912Y-116229993D01*
X160308912Y-116228993D01*
X160313912Y-116228993D01*
X160813912Y-116228993D01*
X160818912Y-116228993D01*
X160823912Y-116229993D01*
G37*
D11*
X85000000Y-85050000D02*
X84350000Y-85050000D01*
X84350000Y-83150000D01*
X85000000Y-83150000D01*
X85000000Y-85050000D01*
G36*
X85000000Y-85050000D02*
G01*
X84350000Y-85050000D01*
X84350000Y-83150000D01*
X85000000Y-83150000D01*
X85000000Y-85050000D01*
G37*
X86600000Y-82600000D02*
X84300000Y-82600000D01*
X84300000Y-81800000D01*
X86600000Y-81800000D01*
X86600000Y-82600000D01*
G36*
X86600000Y-82600000D02*
G01*
X84300000Y-82600000D01*
X84300000Y-81800000D01*
X86600000Y-81800000D01*
X86600000Y-82600000D01*
G37*
X88050000Y-85000000D02*
X87150000Y-85000000D01*
X87150000Y-83850000D01*
X88050000Y-83850000D01*
X88050000Y-85000000D01*
G36*
X88050000Y-85000000D02*
G01*
X87150000Y-85000000D01*
X87150000Y-83850000D01*
X88050000Y-83850000D01*
X88050000Y-85000000D01*
G37*
X86650000Y-84500000D02*
X85800000Y-84500000D01*
X85800000Y-83150000D01*
X86650000Y-83150000D01*
X86650000Y-84500000D01*
G36*
X86650000Y-84500000D02*
G01*
X85800000Y-84500000D01*
X85800000Y-83150000D01*
X86650000Y-83150000D01*
X86650000Y-84500000D01*
G37*
X88050000Y-82950000D02*
X87150000Y-82950000D01*
X87150000Y-81800000D01*
X88050000Y-81800000D01*
X88050000Y-82950000D01*
G36*
X88050000Y-82950000D02*
G01*
X87150000Y-82950000D01*
X87150000Y-81800000D01*
X88050000Y-81800000D01*
X88050000Y-82950000D01*
G37*
D12*
X117776550Y-114776100D03*
X117776550Y-115746100D03*
D13*
X171224330Y-114201010D03*
D14*
X171224330Y-112976010D03*
D13*
X171224330Y-111751020D03*
D15*
X173474330Y-111126020D03*
X173474330Y-114826010D03*
D13*
X171224330Y-107623920D03*
D14*
X171224330Y-106398920D03*
D13*
X171224330Y-105173930D03*
D15*
X173474330Y-104548930D03*
X173474330Y-108248920D03*
D16*
X143434000Y-109939410D03*
X143434000Y-111569410D03*
X101803400Y-114536810D03*
X101803400Y-116166810D03*
D17*
X101385000Y-127400000D03*
X103015000Y-127400000D03*
D18*
X93000000Y-98750000D03*
X93000000Y-100250000D03*
D19*
X145800000Y-127473600D03*
X145800000Y-128870600D03*
D20*
X144604800Y-117663210D03*
X143634800Y-117663210D03*
X144604800Y-116520210D03*
X143634800Y-116520210D03*
D12*
X129950000Y-127515000D03*
X129950000Y-128485000D03*
X139900000Y-106960860D03*
X139900000Y-107930860D03*
X140900000Y-106960860D03*
X140900000Y-107930860D03*
X141900000Y-106960860D03*
X141900000Y-107930860D03*
X142900000Y-106960860D03*
X142900000Y-107930860D03*
X94350000Y-118115000D03*
X94350000Y-119085000D03*
D21*
X116814800Y-115735210D03*
X116814800Y-114765210D03*
X112750000Y-120612010D03*
X112750000Y-119642010D03*
D22*
X113481360Y-112600000D03*
X113481360Y-109400010D03*
D21*
X117068800Y-106885000D03*
X117068800Y-105915000D03*
D12*
X118364200Y-105951410D03*
X118364200Y-106921410D03*
X135900000Y-106960860D03*
X135900000Y-107930860D03*
X136900000Y-106960860D03*
X136900000Y-107930860D03*
X137900000Y-106960860D03*
X137900000Y-107930860D03*
X138900000Y-106960860D03*
X138900000Y-107930860D03*
X132900000Y-108349780D03*
X132900000Y-109319780D03*
X133900000Y-108354420D03*
X133900000Y-109324420D03*
D21*
X120702180Y-112865010D03*
X120702180Y-111895010D03*
X121714640Y-112865010D03*
X121714640Y-111895010D03*
X125764580Y-112865010D03*
X125764580Y-111895010D03*
X126800000Y-112865010D03*
X126800000Y-111895010D03*
D12*
X111600000Y-111136960D03*
X111600000Y-112106960D03*
X110600000Y-111136960D03*
X110600000Y-112106960D03*
X109600000Y-111136960D03*
X109600000Y-112106960D03*
X107575410Y-111136960D03*
X107575410Y-112106960D03*
X105550000Y-111115000D03*
X105550000Y-112085000D03*
X106550000Y-111115000D03*
X106550000Y-112085000D03*
D23*
X143053000Y-112779010D03*
X143053000Y-115029010D03*
X99200000Y-117975000D03*
X99200000Y-120225000D03*
D24*
X126209930Y-116335000D03*
X126209930Y-115565000D03*
X125709930Y-115565000D03*
X125709930Y-116335000D03*
D25*
X125209930Y-115565000D03*
D24*
X124709930Y-116335000D03*
X124709930Y-115565000D03*
X124209930Y-116335000D03*
X124209930Y-115565000D03*
D25*
X125209930Y-116335000D03*
D26*
X101350000Y-119984810D03*
X103249990Y-119984810D03*
X102300000Y-118084810D03*
D27*
X134801980Y-114331010D03*
X135301980Y-114331010D03*
X135801980Y-114331010D03*
X136301980Y-114331010D03*
X136801990Y-114331010D03*
X137301980Y-114331010D03*
X137801980Y-114331010D03*
X138301980Y-114331010D03*
X138801980Y-114331010D03*
X139301990Y-114331010D03*
X139801980Y-114331010D03*
X140301980Y-114331010D03*
X139051980Y-112481010D03*
X137551980Y-112481010D03*
X136051980Y-112481010D03*
D28*
X116215000Y-117265410D03*
X115565000Y-117265410D03*
X114915000Y-117265410D03*
X114265000Y-117265410D03*
X114265000Y-121515410D03*
X114915000Y-121515410D03*
X115565000Y-121515410D03*
X116215000Y-121515410D03*
D29*
X125051990Y-106876020D03*
D30*
X124651990Y-106906010D03*
X124251990Y-106906010D03*
X123851990Y-106906010D03*
X123451990Y-106906010D03*
X123051990Y-106906010D03*
X122651990Y-106906010D03*
X122251990Y-106906010D03*
X121851990Y-106906010D03*
D29*
X121451990Y-106876020D03*
D31*
X121051990Y-107306010D03*
D32*
X121051990Y-107706010D03*
X121051990Y-108106010D03*
X121051990Y-108506010D03*
D31*
X121051990Y-108906010D03*
D29*
X121451990Y-109331020D03*
D30*
X121851990Y-109306010D03*
X122251990Y-109306010D03*
X122651990Y-109306010D03*
X123051990Y-109306010D03*
X123451990Y-109306010D03*
X123851990Y-109306010D03*
X124251990Y-109306010D03*
X124651990Y-109306010D03*
D29*
X125051990Y-109331020D03*
D31*
X125451990Y-108906010D03*
D32*
X125451990Y-108506010D03*
X125451990Y-108106010D03*
X125451990Y-107706010D03*
D31*
X125451990Y-107306010D03*
D33*
X123251990Y-108106010D03*
D34*
X135757400Y-95077410D03*
X135107400Y-95077410D03*
X134457400Y-95077410D03*
X133807400Y-95077410D03*
X133157400Y-95077410D03*
X132507400Y-95077410D03*
X131857400Y-95077410D03*
X131857400Y-100777410D03*
X132507400Y-100777410D03*
X133157400Y-100777410D03*
X133807400Y-100777410D03*
X134457400Y-100777410D03*
X135107400Y-100777410D03*
X135757400Y-100777410D03*
D27*
X110902000Y-114381010D03*
X110402000Y-114381010D03*
X109902000Y-114381010D03*
X109402000Y-114381010D03*
X108901990Y-114381010D03*
X108402000Y-114381010D03*
X107902000Y-114381010D03*
X107402000Y-114381010D03*
X106902000Y-114381010D03*
X106401990Y-114381010D03*
X105902000Y-114381010D03*
X105402000Y-114381010D03*
X106652000Y-116231010D03*
X108152000Y-116231010D03*
X109652000Y-116231010D03*
D35*
X122459920Y-122975000D03*
X122459920Y-126075000D03*
D36*
X119709920Y-118395000D03*
X120209920Y-118395000D03*
X120709920Y-118395000D03*
X121209920Y-118395000D03*
X121709930Y-118395000D03*
X122209920Y-118395000D03*
X122709920Y-118395000D03*
X123209920Y-118395000D03*
X123709920Y-118395000D03*
X124209930Y-118395000D03*
X124709920Y-118395000D03*
X125209920Y-118395000D03*
D19*
X116448500Y-128950000D03*
X115051500Y-128950000D03*
X144300000Y-127473600D03*
X144300000Y-128870600D03*
X157032570Y-127574490D03*
X157032570Y-128971490D03*
D12*
X110800000Y-118615000D03*
X110800000Y-119585000D03*
X109800000Y-118621010D03*
X109800000Y-119591010D03*
X108800000Y-118621010D03*
X108800000Y-119591010D03*
X115773400Y-123102610D03*
X115773400Y-124072610D03*
X114351000Y-123102610D03*
X114351000Y-124072610D03*
X107800000Y-118621010D03*
X107800000Y-119591010D03*
X106800000Y-118621010D03*
X106800000Y-119591010D03*
X105800000Y-118621010D03*
X105800000Y-119591010D03*
X104800000Y-118621010D03*
X104800000Y-119591010D03*
X114770100Y-114765210D03*
X114770100Y-115735210D03*
X103149600Y-115298610D03*
X103149600Y-116268610D03*
D21*
X113493610Y-103183710D03*
X113493610Y-102213710D03*
X114493610Y-103183710D03*
X114493610Y-102213710D03*
X115493610Y-103183710D03*
X115493610Y-102213710D03*
X126126440Y-89700210D03*
X126126440Y-88730210D03*
X117493610Y-103183710D03*
X117493610Y-102213710D03*
X116493610Y-103183710D03*
X116493610Y-102213710D03*
X125100280Y-89700210D03*
X125100280Y-88730210D03*
X122021800Y-89700210D03*
X122021800Y-88730210D03*
X124074120Y-89700210D03*
X124074120Y-88730210D03*
X123047960Y-89700210D03*
X123047960Y-88730210D03*
X134900000Y-109319780D03*
X134900000Y-108349780D03*
D12*
X123047960Y-90660610D03*
X123047960Y-91630610D03*
X124079200Y-90660610D03*
X124079200Y-91630610D03*
X126126000Y-90660610D03*
X126126000Y-91630610D03*
X131900000Y-108368350D03*
X131900000Y-109338350D03*
D37*
X128365000Y-117000000D03*
X129335000Y-117000000D03*
X128394800Y-115936010D03*
X129364800Y-115936010D03*
D12*
X125095200Y-90660610D03*
X125095200Y-91630610D03*
X112319000Y-94140410D03*
X112319000Y-95110410D03*
D21*
X104140200Y-116268610D03*
X104140200Y-115298610D03*
X94539000Y-104737010D03*
X94539000Y-103767010D03*
D12*
X95656600Y-103767010D03*
X95656600Y-104737010D03*
D21*
X116789400Y-124072610D03*
X116789400Y-123102610D03*
D12*
X130149800Y-106053010D03*
X130149800Y-107023010D03*
D20*
X128552000Y-105953810D03*
X127582000Y-105953810D03*
D37*
X118336400Y-107884210D03*
X119306400Y-107884210D03*
D21*
X111303000Y-97320210D03*
X111303000Y-96350210D03*
X118500000Y-103185000D03*
X118500000Y-102215000D03*
D12*
X119900000Y-96715000D03*
X119900000Y-97685000D03*
D21*
X112319000Y-97320210D03*
X112319000Y-96350210D03*
D12*
X118900000Y-96715000D03*
X118900000Y-97685000D03*
D20*
X128535000Y-106950000D03*
X127565000Y-106950000D03*
D37*
X128114230Y-110900000D03*
X129084230Y-110900000D03*
D20*
X128535000Y-107950000D03*
X127565000Y-107950000D03*
D21*
X127152600Y-89700210D03*
X127152600Y-88730210D03*
D12*
X122021800Y-90660610D03*
X122021800Y-91630610D03*
X127152600Y-90660610D03*
X127152600Y-91630610D03*
D21*
X112725400Y-115735210D03*
X112725400Y-114765210D03*
X113747750Y-115735210D03*
X113747750Y-114765210D03*
D12*
X118237200Y-111895010D03*
X118237200Y-112865010D03*
X119250000Y-111895010D03*
X119250000Y-112865010D03*
X120600000Y-103415000D03*
X120600000Y-104385000D03*
X119532600Y-103421010D03*
X119532600Y-104391010D03*
X123241000Y-111895010D03*
X123241000Y-112865010D03*
D21*
X167386200Y-89751010D03*
X167386200Y-88781010D03*
X115367000Y-95110410D03*
X115367000Y-94140410D03*
D38*
X173403400Y-96860610D03*
X172443400Y-96860610D03*
D12*
X116332200Y-94089610D03*
X116332200Y-95059610D03*
X113335000Y-94140410D03*
X113335000Y-95110410D03*
X114351000Y-94140410D03*
X114351000Y-95110410D03*
D21*
X144504000Y-125881010D03*
X144504000Y-124911010D03*
D13*
X171224000Y-92113010D03*
D14*
X171224000Y-90888010D03*
D13*
X171224000Y-89663020D03*
D15*
X173474000Y-89038020D03*
X173474000Y-92738010D03*
D19*
X168757800Y-89228710D03*
X168757800Y-90625710D03*
D39*
X97750000Y-116450000D03*
X99050000Y-116450000D03*
X98400000Y-114550000D03*
D40*
X171550000Y-94250000D03*
X171550000Y-95550000D03*
X173450000Y-94900000D03*
D41*
X96205080Y-93000000D03*
X99300000Y-93000000D03*
X96205080Y-89500000D03*
X99300000Y-89500000D03*
D37*
X129165000Y-100150000D03*
X130135000Y-100150000D03*
D12*
X111303000Y-94140410D03*
X111303000Y-95110410D03*
D21*
X100000000Y-116185000D03*
X100000000Y-115215000D03*
X96545600Y-116268610D03*
X96545600Y-115298610D03*
D12*
X111800000Y-118615000D03*
X111800000Y-119585000D03*
X115750000Y-114765000D03*
X115750000Y-115735000D03*
D21*
X119354800Y-106921410D03*
X119354800Y-105951410D03*
D42*
X130215600Y-95910610D03*
X129565600Y-95910610D03*
X128915600Y-95910610D03*
X128915600Y-97810610D03*
X130215600Y-97810610D03*
D12*
X124250000Y-111895010D03*
X124250000Y-112865010D03*
D43*
X129300000Y-104450000D03*
X131400000Y-104450000D03*
D44*
X150358400Y-124643010D03*
X151008400Y-124643010D03*
X151658400Y-124643010D03*
X152308400Y-124643010D03*
X152958400Y-124643010D03*
D45*
X154568400Y-127303010D03*
D46*
X148864400Y-125003010D03*
X154198400Y-125003010D03*
D45*
X148748400Y-127303010D03*
D47*
X152495900Y-127303010D03*
X150820900Y-127303010D03*
D16*
X115646400Y-110172410D03*
X115646400Y-108542410D03*
D12*
X112319000Y-98636210D03*
X112319000Y-99606210D03*
D48*
X110008400Y-122631010D03*
D49*
X109808400Y-123856010D03*
D48*
X109608400Y-122631010D03*
D49*
X109408400Y-123856010D03*
D48*
X109208400Y-122631010D03*
D49*
X109008400Y-123856010D03*
D48*
X108808400Y-122631010D03*
D49*
X108608400Y-123856010D03*
D48*
X108408400Y-122631010D03*
D49*
X108208400Y-123856010D03*
D48*
X108008400Y-122631010D03*
D49*
X107808400Y-123856010D03*
D48*
X107608400Y-122631010D03*
D49*
X107408400Y-123856010D03*
D48*
X107208400Y-122631010D03*
D49*
X107008400Y-123856010D03*
D48*
X106808400Y-122631010D03*
D49*
X106608400Y-123856010D03*
D48*
X106408400Y-122631010D03*
D20*
X109093400Y-96606010D03*
X108123400Y-96606010D03*
D21*
X107108400Y-96641010D03*
X107108400Y-95671010D03*
D26*
X129908400Y-123156010D03*
X128958400Y-123156010D03*
X128008400Y-123156010D03*
X128008400Y-125856010D03*
X129908400Y-125856010D03*
D21*
X128958400Y-128476010D03*
X128958400Y-127506010D03*
X105658400Y-100491010D03*
X105658400Y-99521010D03*
D24*
X118709920Y-115565000D03*
X118709920Y-116335000D03*
X119209920Y-115565000D03*
X119209920Y-116335000D03*
D25*
X119709920Y-116335000D03*
D24*
X120209920Y-116335000D03*
X120209920Y-115565000D03*
X120709920Y-115565000D03*
X120709920Y-116335000D03*
D25*
X119709920Y-115565000D03*
D50*
X114358400Y-101006010D03*
X114858400Y-101006010D03*
X115358400Y-101006010D03*
X115858400Y-101006010D03*
X116358400Y-101006010D03*
X116858400Y-101006010D03*
D51*
X117658400Y-100206010D03*
X117658400Y-99706010D03*
X117658400Y-99206010D03*
X117658400Y-98706010D03*
X117658400Y-98206010D03*
X117658400Y-97706010D03*
D50*
X116858400Y-96906010D03*
X116358400Y-96906010D03*
X115858400Y-96906010D03*
X115358400Y-96906010D03*
X114858400Y-96906010D03*
X114358400Y-96906010D03*
D51*
X113558400Y-97706010D03*
X113558400Y-98206010D03*
X113558400Y-98706010D03*
X113558400Y-99206010D03*
X113558400Y-99706010D03*
X113558400Y-100206010D03*
D52*
X115608400Y-98956010D03*
D43*
X151157901Y-118678993D03*
X153257901Y-118678993D03*
D53*
X158813912Y-111678993D03*
X155213912Y-111678993D03*
X158813912Y-118878993D03*
X155213912Y-118878993D03*
D43*
X151157902Y-111920593D03*
X153257902Y-111920593D03*
D12*
X161713912Y-113335593D03*
X161713912Y-114305593D03*
X161713912Y-111335592D03*
X161713912Y-112305592D03*
D54*
X152628912Y-115278993D03*
X154998912Y-115278993D03*
D55*
X162807902Y-112340593D03*
X162807902Y-113300593D03*
D21*
X161713911Y-116305593D03*
X161713911Y-115335593D03*
D56*
X160563912Y-115803993D03*
D57*
X160563912Y-115278993D03*
D56*
X160563912Y-114753993D03*
D58*
X159838912Y-113678993D03*
X159338912Y-113678993D03*
D59*
X158263912Y-113828993D03*
X158263912Y-116728993D03*
D58*
X159338912Y-116878993D03*
X159838912Y-116878993D03*
D21*
X149000000Y-113385000D03*
X149000000Y-112415000D03*
X161250000Y-119085000D03*
X161250000Y-118115000D03*
X147497600Y-104385790D03*
X147497600Y-103415790D03*
X146354600Y-104360390D03*
X146354600Y-103390390D03*
X145300000Y-119610000D03*
X145300000Y-118640000D03*
D12*
X145300000Y-120815000D03*
X145300000Y-121785000D03*
D17*
X149022600Y-122971810D03*
X147392600Y-122971810D03*
D60*
X144625000Y-107050000D03*
X144625000Y-107550000D03*
X144625000Y-108050010D03*
X144625000Y-108550000D03*
X144625000Y-109050010D03*
X144625000Y-109550000D03*
X144625000Y-110050000D03*
X144625000Y-110550010D03*
D61*
X145350000Y-111275000D03*
X145850000Y-111275000D03*
X146350000Y-111275000D03*
X146850000Y-111275000D03*
X147350000Y-111275000D03*
X147850000Y-111275000D03*
X148350000Y-111275000D03*
X148850000Y-111275000D03*
D60*
X149575000Y-110550010D03*
X149575000Y-110050000D03*
X149575000Y-109550000D03*
X149575000Y-109050010D03*
X149575000Y-108550000D03*
X149575000Y-108050010D03*
X149575000Y-107550000D03*
X149575000Y-107050000D03*
D61*
X148850000Y-106325000D03*
X148350000Y-106325000D03*
X147850000Y-106325000D03*
X147350000Y-106325000D03*
X146850000Y-106325000D03*
X146350000Y-106325000D03*
X145850000Y-106325000D03*
X145350000Y-106325000D03*
D62*
X147100000Y-108800000D03*
D26*
X150550000Y-122640000D03*
X152449990Y-122640000D03*
X151500000Y-120740000D03*
D12*
X149000000Y-114415000D03*
X149000000Y-115385000D03*
X147200000Y-114415000D03*
X147200000Y-115385000D03*
X150700000Y-108800000D03*
X150700000Y-109770000D03*
D63*
X167850000Y-107125000D03*
X167850000Y-108375000D03*
X167850000Y-109625000D03*
X167850000Y-110875000D03*
D64*
X165100000Y-113425000D03*
X165100000Y-104575000D03*
D26*
X104150000Y-90850000D03*
X103200000Y-90850000D03*
X102250000Y-90850000D03*
X102250000Y-93550000D03*
X103200000Y-93550000D03*
X104150000Y-93550000D03*
D20*
X114585000Y-108300000D03*
X113615000Y-108300000D03*
D12*
X106600000Y-90715000D03*
X106600000Y-91685000D03*
D40*
X107550000Y-90450000D03*
X107550000Y-91750000D03*
X109450000Y-91100000D03*
D12*
X91450000Y-84615000D03*
X91450000Y-85585000D03*
D37*
X89815000Y-86575000D03*
X90785000Y-86575000D03*
D21*
X105600000Y-91685000D03*
X105600000Y-90715000D03*
D12*
X105600000Y-92715000D03*
X105600000Y-93685000D03*
D53*
X80600000Y-82200000D03*
X77000000Y-82200000D03*
D20*
X108585000Y-92900000D03*
X107615000Y-92900000D03*
D37*
X162715000Y-116720000D03*
X163685000Y-116720000D03*
D65*
X172609000Y-86800000D03*
X174391000Y-86800000D03*
D66*
X127200000Y-95491000D03*
X127200000Y-93709000D03*
D21*
X121900000Y-99285000D03*
X121900000Y-98315000D03*
D67*
X126900000Y-96800000D03*
X126900000Y-98200000D03*
D21*
X126700000Y-100285000D03*
X126700000Y-99315000D03*
D26*
X123350000Y-99650000D03*
X124300000Y-99650000D03*
X125250000Y-99650000D03*
X125250000Y-96950000D03*
X123350000Y-96950000D03*
D68*
X123050000Y-94400000D03*
X125550000Y-94400000D03*
D21*
X145524000Y-125891010D03*
X145524000Y-124921010D03*
X88800000Y-79585000D03*
X88800000Y-78615000D03*
D12*
X87800000Y-78615000D03*
X87800000Y-79585000D03*
D21*
X89800000Y-79585000D03*
X89800000Y-78615000D03*
X90800000Y-79585000D03*
X90800000Y-78615000D03*
D23*
X143770000Y-120085000D03*
X143770000Y-122335000D03*
D26*
X146750000Y-121550000D03*
X147700000Y-121550000D03*
X148650000Y-121550000D03*
X148650000Y-118850000D03*
X146750000Y-118850000D03*
D12*
X166700000Y-82815000D03*
X166700000Y-83785000D03*
D20*
X138085000Y-94550000D03*
X137115000Y-94550000D03*
D69*
X170900000Y-86400000D03*
X169500000Y-86400000D03*
X135800000Y-102700000D03*
X134400000Y-102700000D03*
D21*
X137150000Y-102485000D03*
X137150000Y-101515000D03*
D67*
X84425000Y-93900000D03*
X84425000Y-92500000D03*
D23*
X138725000Y-102025000D03*
X138725000Y-99775000D03*
D26*
X109010000Y-97910000D03*
X108060000Y-97910000D03*
X107110000Y-97910000D03*
X107110000Y-100610000D03*
X109010000Y-100610000D03*
D70*
X173300000Y-82650000D03*
X173300000Y-85150000D03*
D20*
X138085000Y-98550000D03*
X137115000Y-98550000D03*
D21*
X160700000Y-112300000D03*
X160700000Y-111330000D03*
D20*
X166785000Y-84800000D03*
X165815000Y-84800000D03*
D37*
X137115000Y-95550000D03*
X138085000Y-95550000D03*
D12*
X137150000Y-99565000D03*
X137150000Y-100535000D03*
D37*
X137115000Y-97550000D03*
X138085000Y-97550000D03*
X129165000Y-99150000D03*
X130135000Y-99150000D03*
D71*
X168050000Y-82850000D03*
X168050000Y-83800000D03*
X168050000Y-84750000D03*
X170750000Y-84750000D03*
X170750000Y-82850000D03*
D21*
X89200000Y-89160000D03*
X89200000Y-88190000D03*
D20*
X88135000Y-87200000D03*
X87165000Y-87200000D03*
D21*
X88200000Y-89160000D03*
X88200000Y-88190000D03*
D37*
X86215000Y-90200000D03*
X87185000Y-90200000D03*
D67*
X85950000Y-87275000D03*
X85950000Y-88675000D03*
D21*
X88200000Y-91110000D03*
X88200000Y-90140000D03*
X87200000Y-89160000D03*
X87200000Y-88190000D03*
D20*
X138085000Y-96550000D03*
X137115000Y-96550000D03*
D72*
X79400000Y-87080500D03*
X79400000Y-94319500D03*
D20*
X91385000Y-80600000D03*
X90415000Y-80600000D03*
D37*
X90415000Y-81600000D03*
X91385000Y-81600000D03*
X90415000Y-83600000D03*
X91385000Y-83600000D03*
D21*
X86800000Y-79585000D03*
X86800000Y-78615000D03*
D37*
X90415000Y-82600000D03*
X91385000Y-82600000D03*
D12*
X84800000Y-78615000D03*
X84800000Y-79585000D03*
D21*
X90450000Y-85585000D03*
X90450000Y-84615000D03*
X85800000Y-79585000D03*
X85800000Y-78615000D03*
D73*
X88100000Y-80875000D03*
X87450000Y-80875000D03*
X86800000Y-80875000D03*
X86150000Y-80875000D03*
X85150000Y-80875000D03*
X84650000Y-80875000D03*
D74*
X83875000Y-81880000D03*
X83875000Y-82530000D03*
X83875000Y-83660000D03*
X83875000Y-84160000D03*
X83875000Y-84660000D03*
D73*
X84500000Y-85925000D03*
X85000000Y-85925000D03*
D75*
X85000000Y-85600000D03*
D73*
X85500000Y-85925000D03*
X86150000Y-85925000D03*
X86650000Y-85925000D03*
X87150000Y-85925000D03*
X87650000Y-85925000D03*
X88150000Y-85925000D03*
D74*
X88925000Y-85150000D03*
X88925000Y-84650000D03*
X88925000Y-84150000D03*
X88925000Y-83650000D03*
X88925000Y-83150000D03*
X88925000Y-82650000D03*
X88925000Y-82150000D03*
X88925000Y-81650000D03*
D43*
X86150000Y-94875000D03*
X86150000Y-92775000D03*
X88075000Y-94875000D03*
X88075000Y-92775000D03*
D12*
X104550000Y-111115000D03*
X104550000Y-112085000D03*
X108590850Y-111136960D03*
X108590850Y-112106960D03*
D20*
X97635000Y-117850000D03*
X96665000Y-117850000D03*
D37*
X96665000Y-118881610D03*
X97635000Y-118881610D03*
X96665000Y-119897610D03*
X97635000Y-119897610D03*
D20*
X163685000Y-115720000D03*
X162715000Y-115720000D03*
D12*
X127914600Y-103411410D03*
X127914600Y-104381410D03*
X122664760Y-103425950D03*
X122664760Y-104395950D03*
D21*
X123851990Y-104391010D03*
X123851990Y-103421010D03*
X126898940Y-104391010D03*
X126898940Y-103421010D03*
D12*
X121717000Y-103436810D03*
X121717000Y-104406810D03*
D21*
X124867640Y-104391010D03*
X124867640Y-103421010D03*
D12*
X125883290Y-103421010D03*
X125883290Y-104391010D03*
D21*
X112319000Y-101526200D03*
X112319000Y-100556200D03*
D37*
X166155000Y-90730000D03*
X167125000Y-90730000D03*
D71*
X115781060Y-106888930D03*
X115781060Y-105938930D03*
X115781060Y-104988930D03*
X113081060Y-104988930D03*
X113081060Y-105938930D03*
X113081060Y-106888930D03*
D21*
X108750000Y-103735000D03*
X108750000Y-102765000D03*
D20*
X128535000Y-108950000D03*
X127565000Y-108950000D03*
D76*
X89800000Y-92949000D03*
X89800000Y-94349000D03*
D19*
X94700000Y-129148500D03*
X94700000Y-127751500D03*
D77*
X162027020Y-77706010D03*
X161777020Y-85906010D03*
X161527020Y-77706010D03*
X161277020Y-85906010D03*
X161027030Y-77706010D03*
X160777030Y-85906010D03*
X160527030Y-77706010D03*
X160277030Y-85906010D03*
X160027030Y-77706010D03*
X159777030Y-85906010D03*
X159527030Y-77706010D03*
X159277030Y-85906010D03*
X159027030Y-77706010D03*
X158777030Y-85906010D03*
X158527040Y-77706010D03*
X158277040Y-85906010D03*
X158027040Y-77706010D03*
X157777040Y-85906010D03*
X157527040Y-77706010D03*
X157277040Y-85906010D03*
X157027040Y-77706010D03*
X156777040Y-85906010D03*
X156527040Y-77706010D03*
X156277040Y-85906010D03*
X156027030Y-77706010D03*
X155777030Y-85906010D03*
X155527030Y-77706010D03*
X155277030Y-85906010D03*
X155027000Y-77706010D03*
X154777000Y-85906010D03*
X154527000Y-77706010D03*
X154277000Y-85906010D03*
X154027010Y-77706010D03*
X153777010Y-85906010D03*
X153527010Y-77706010D03*
X153277010Y-85906010D03*
X153027010Y-77706010D03*
X152777010Y-85906010D03*
X152527010Y-77706010D03*
X152277010Y-85906010D03*
X152027010Y-77706010D03*
X151777010Y-85906010D03*
X151527000Y-77706010D03*
X151277000Y-85906010D03*
X151027000Y-77706010D03*
X150777000Y-85906010D03*
X150527000Y-77706010D03*
X150277010Y-85906010D03*
X150027010Y-77706010D03*
X149777010Y-85906010D03*
X149527000Y-77706010D03*
X149277000Y-85906010D03*
X149027010Y-77706010D03*
X148777010Y-85906010D03*
X148527010Y-77706010D03*
X148277010Y-85906010D03*
X148026990Y-77706010D03*
X147777010Y-85906010D03*
X147527000Y-77706010D03*
X147277010Y-85906010D03*
X147027000Y-77706010D03*
X146777000Y-85906010D03*
X146527010Y-77706010D03*
X146277010Y-85906010D03*
X146027000Y-77706010D03*
X145777000Y-85906010D03*
X145527000Y-77706010D03*
X145277010Y-85906010D03*
X145027000Y-77706010D03*
X144777000Y-85906010D03*
X144526990Y-77706010D03*
X144277000Y-85906010D03*
X144027000Y-77706010D03*
X143777000Y-85906010D03*
X143527000Y-77706010D03*
X143277000Y-85906010D03*
X143027000Y-77706010D03*
X142777000Y-85906010D03*
X142527000Y-77706010D03*
X142277000Y-85906010D03*
X142027000Y-77706010D03*
X141777000Y-85906010D03*
X141527000Y-77706010D03*
X141277000Y-85906010D03*
X141027000Y-77706010D03*
X140777000Y-85906010D03*
X140527000Y-77706010D03*
X140277000Y-85906010D03*
X140027000Y-77706010D03*
X139777000Y-85906010D03*
X139527000Y-77706010D03*
X139277000Y-85906010D03*
X139027000Y-77706010D03*
X138777000Y-85906010D03*
X138527000Y-77706010D03*
X138277000Y-85906010D03*
X138027000Y-77706010D03*
X137777000Y-85906010D03*
X137527000Y-77706010D03*
X137277000Y-85906010D03*
X137027000Y-77706010D03*
X136777000Y-85906010D03*
X136527000Y-77706010D03*
X136277000Y-85906010D03*
X136027000Y-77706010D03*
X135777000Y-85906010D03*
X135527000Y-77706010D03*
X135277000Y-85906010D03*
X135027000Y-77706010D03*
X134777000Y-85906010D03*
X134527000Y-77706010D03*
X134277000Y-85906010D03*
X134027000Y-77706010D03*
X133777000Y-85906010D03*
X133527000Y-77706010D03*
X133277000Y-85906010D03*
X133027000Y-77706010D03*
X132777000Y-85906010D03*
X132527000Y-77706010D03*
X132277000Y-85906010D03*
X132027000Y-77706010D03*
X131777000Y-85906010D03*
X131527000Y-77706010D03*
X131277000Y-85906010D03*
X131027000Y-77706010D03*
X130777000Y-85906010D03*
X130527000Y-77706010D03*
X130277000Y-85906010D03*
X130027000Y-77706010D03*
X129777000Y-85906010D03*
X129527000Y-77706010D03*
X129277000Y-85906010D03*
X129026990Y-77706010D03*
X128777000Y-85906010D03*
X128527000Y-77706010D03*
X128277000Y-85906010D03*
X128026990Y-77706010D03*
X127776990Y-85906010D03*
X127527000Y-77706010D03*
X127277000Y-85906010D03*
X127026990Y-77706010D03*
X126776990Y-85906010D03*
X126526990Y-77706010D03*
X126277000Y-85906010D03*
X124027000Y-77706010D03*
X123777010Y-85906010D03*
X123527000Y-77706010D03*
X123277000Y-85906010D03*
X123027010Y-77706010D03*
X122777010Y-85906010D03*
X122527010Y-77706010D03*
X122277010Y-85906010D03*
X122027010Y-77706010D03*
X121777010Y-85906010D03*
X121527010Y-77706010D03*
X121277010Y-85906010D03*
X121027010Y-77706010D03*
X120777010Y-85906010D03*
X120527000Y-77706010D03*
X120277000Y-85906010D03*
X120027000Y-77706010D03*
X119777000Y-85906010D03*
X119527010Y-77706010D03*
X119277010Y-85906010D03*
X119027010Y-77706010D03*
X118777010Y-85906010D03*
X118527010Y-77706010D03*
X118277010Y-85906010D03*
X118027010Y-77706010D03*
X117777010Y-85906010D03*
X117527010Y-77706010D03*
X117277010Y-85906010D03*
X117027000Y-77706010D03*
X116777010Y-85906010D03*
X116527000Y-77706010D03*
X116277010Y-85906010D03*
X116027010Y-77706010D03*
X115777010Y-85906010D03*
X115527010Y-77706010D03*
X115277010Y-85906010D03*
X115027000Y-77706010D03*
X114777010Y-85906010D03*
X114527010Y-77706010D03*
X114277010Y-85906010D03*
X114027000Y-77706010D03*
X113777000Y-85906010D03*
X113527000Y-77706010D03*
X113277010Y-85906010D03*
X113027000Y-77706010D03*
X112777000Y-85906010D03*
X112527000Y-77706010D03*
X112277010Y-85906010D03*
X112027000Y-77706010D03*
X111777000Y-85906010D03*
X111527000Y-77706010D03*
X111277000Y-85906010D03*
X111027000Y-77706010D03*
X110777000Y-85906010D03*
X110527000Y-77706010D03*
X110277000Y-85906010D03*
X110027000Y-77706010D03*
X109777000Y-85906010D03*
X109527000Y-77706010D03*
X109277000Y-85906010D03*
X109027000Y-77706010D03*
X108777000Y-85906010D03*
X108527000Y-77706010D03*
X108277000Y-85906010D03*
X108027000Y-77706010D03*
X107777000Y-85906010D03*
X107527000Y-77706010D03*
X107277000Y-85906010D03*
X107027000Y-77706010D03*
X106777000Y-85906010D03*
X106527000Y-77706010D03*
X106277000Y-85906010D03*
X106027000Y-77706010D03*
X105777000Y-85906010D03*
X105527000Y-77706010D03*
X105277000Y-85906010D03*
X105027000Y-77706010D03*
X104777000Y-85906010D03*
X104527000Y-77706010D03*
X104277000Y-85906010D03*
X104027000Y-77706010D03*
X103777000Y-85906010D03*
X103527000Y-77706010D03*
X103277000Y-85906010D03*
X103027000Y-77706010D03*
X102777000Y-85906010D03*
X102527000Y-77706010D03*
X102277000Y-85906010D03*
X102027000Y-77706010D03*
X101777000Y-85906010D03*
X101527000Y-77706010D03*
X101277000Y-85906010D03*
X101027000Y-77706010D03*
X100777000Y-85906010D03*
X100527000Y-77706010D03*
X100277000Y-85906010D03*
X100027000Y-77706010D03*
X99777000Y-85906010D03*
X99527000Y-77706010D03*
X99277000Y-85906010D03*
X99027000Y-77706010D03*
X98777000Y-85906010D03*
X98527000Y-77706010D03*
X98277000Y-85906010D03*
X98027000Y-77706010D03*
X97777000Y-85906010D03*
X97527000Y-77706010D03*
X97277000Y-85906010D03*
X97027000Y-77706010D03*
X96777000Y-85906010D03*
X96527000Y-77706010D03*
X96277000Y-85906010D03*
X96026990Y-77706010D03*
X95777000Y-85906010D03*
X95527000Y-77706010D03*
X95277000Y-85906010D03*
D78*
X90927000Y-89806020D03*
X166427000Y-93806020D03*
D20*
X128535000Y-109900000D03*
X127565000Y-109900000D03*
D40*
X109700000Y-102600000D03*
X109700000Y-103900000D03*
X111600000Y-103250000D03*
D21*
X93400000Y-129185000D03*
X93400000Y-128215000D03*
D12*
X160300000Y-118115000D03*
X160300000Y-119085000D03*
X111497420Y-105940290D03*
X111497420Y-106910290D03*
D53*
X91600000Y-95950000D03*
X95200000Y-95950000D03*
M02*
