M48
; DRILL file {KiCad 7.0.1} date Mon May 22 16:21:38 2023
; FORMAT={-:-/ absolute / inch / decimal}
; #@! TF.CreationDate,2023-05-22T16:21:38+08:00
; #@! TF.GenerationSoftware,Kicad,Pcbnew,7.0.1
; #@! TF.FileFunction,Plated,1,8,PTH
FMAT,2
INCH
; #@! TA.AperFunction,Plated,PTH,ViaDrill
T1C0.0059
; #@! TA.AperFunction,Plated,PTH,ComponentDrill
T2C0.0157
; #@! TA.AperFunction,Plated,PTH,ComponentDrill
T3C0.0177
; #@! TA.AperFunction,Plated,PTH,ComponentDrill
T4C0.0236
; #@! TA.AperFunction,Plated,PTH,ComponentDrill
T5C0.0256
; #@! TA.AperFunction,Plated,PTH,ComponentDrill
T6C0.0276
; #@! TA.AperFunction,Plated,PTH,ComponentDrill
T7C0.0350
; #@! TA.AperFunction,Plated,PTH,ComponentDrill
T8C0.0354
; #@! TA.AperFunction,Plated,PTH,ComponentDrill
T9C0.0394
; #@! TA.AperFunction,Plated,PTH,ComponentDrill
T10C0.0402
; #@! TA.AperFunction,Plated,PTH,ComponentDrill
T11C0.0669
; #@! TA.AperFunction,Plated,PTH,ComponentDrill
T12C0.1457
%
G90
G05
T1
X3.0079Y-3.2835
X3.0079Y-3.3071
X3.0315Y-3.2835
X3.0315Y-3.3071
X3.0551Y-3.2835
X3.0551Y-3.3071
X3.063Y-3.9974
X3.1102Y-3.2835
X3.1102Y-3.3228
X3.1535Y-3.5669
X3.2008Y-4.815
X3.2205Y-3.2283
X3.2205Y-3.252
X3.2205Y-3.2913
X3.2205Y-3.315
X3.2205Y-3.3386
X3.2441Y-3.2283
X3.2441Y-3.252
X3.2441Y-3.2913
X3.2441Y-3.315
X3.2441Y-3.3386
X3.2677Y-3.2283
X3.2677Y-3.252
X3.2677Y-3.2913
X3.2677Y-3.315
X3.2677Y-3.3386
X3.2687Y-3.9971
X3.2701Y-4.7907
X3.3031Y-3.0157
X3.3031Y-3.0394
X3.3209Y-3.5965
X3.3228Y-4.6654
X3.3238Y-4.7913
X3.3268Y-3.0157
X3.3268Y-3.0394
X3.3346Y-3.4134
X3.3504Y-3.0157
X3.3504Y-3.0394
X3.3504Y-3.4646
X3.3701Y-3.8661
X3.374Y-3.4646
X3.376Y-3.0472
X3.3819Y-3.8425
X3.3923Y-3.6032
X3.3937Y-3.8661
X3.4016Y-3.0157
X3.4016Y-3.0394
X3.4055Y-3.8425
X3.4134Y-3.5906
X3.4173Y-3.1535
X3.4173Y-3.8661
X3.4252Y-3.0157
X3.4252Y-3.0394
X3.4291Y-3.8425
X3.4301Y-4.8907
X3.4409Y-3.8661
X3.4429Y-3.1516
X3.4488Y-3.0157
X3.4488Y-3.0394
X3.4488Y-3.5866
X3.4528Y-3.8425
X3.4646Y-3.8661
X3.4772Y-4.8854
X3.4843Y-3.065
X3.4921Y-3.1693
X3.4921Y-3.9685
X3.4921Y-3.9921
X3.4921Y-4.0157
X3.5157Y-3.9567
X3.5157Y-3.9803
X3.5157Y-4.0039
X3.5157Y-4.0276
X3.5433Y-2.9961
X3.546Y-4.7886
X3.546Y-4.8132
X3.5512Y-3.6378
X3.5591Y-4.8819
X3.5709Y-3.6181
X3.5715Y-3.6565
X3.5906Y-3.6378
X3.6102Y-3.0945
X3.6102Y-3.1319
X3.6102Y-3.6181
X3.6102Y-3.6557
X3.6299Y-3.2126
X3.6299Y-3.3701
X3.6299Y-3.6378
X3.6495Y-3.6575
X3.6496Y-3.6181
X3.6496Y-4.8622
X3.6811Y-3.4921
X3.685Y-3.9173
X3.6929Y-5.0157
X3.7123Y-3.1041
X3.7244Y-5.0
X3.7312Y-3.8906
X3.733Y-4.7514
X3.748Y-4.4016
X3.7598Y-4.3625
X3.767Y-4.7444
X3.7787Y-4.7204
X3.7797Y-4.6804
X3.7913Y-5.0394
X3.801Y-4.5104
X3.8228Y-4.4911
X3.8445Y-3.2874
X3.8445Y-3.3209
X3.8504Y-4.4911
X3.8697Y-3.0
X3.8701Y-3.2677
X3.8708Y-3.311
X3.874Y-4.3626
X3.875Y-4.5864
X3.8799Y-3.2244
X3.8976Y-3.248
X3.8976Y-3.2913
X3.9082Y-3.1263
X3.9249Y-3.0
X3.9252Y-3.2244
X3.9252Y-3.2677
X3.9252Y-3.311
X3.9291Y-4.3937
X3.9328Y-3.1263
X3.939Y-4.6054
X3.9508Y-4.8878
X3.9547Y-5.0768
X3.9567Y-2.9921
X3.9567Y-5.0157
X3.9611Y-3.1168
X3.9646Y-3.4724
X3.9646Y-3.4961
X3.9646Y-3.5197
X3.9646Y-3.5433
X3.9646Y-3.5669
X3.9646Y-3.5906
X3.9646Y-3.6142
X3.9646Y-3.6378
X3.9665Y-3.4409
X3.9679Y-3.3152
X3.97Y-4.5614
X3.9721Y-4.5194
X3.9785Y-3.1342
X3.9864Y-3.2306
X3.9882Y-2.9961
X3.9882Y-4.689
X3.99Y-4.6504
X3.9921Y-3.7244
X3.9926Y-3.4405
X4.0118Y-4.8132
X4.0153Y-3.2244
X4.0157Y-4.8504
X4.02Y-3.2896
X4.0276Y-4.6181
X4.0348Y-2.9981
X4.0433Y-3.1746
X4.0512Y-3.7205
X4.062Y-4.5124
X4.063Y-3.2913
X4.0728Y-3.4882
X4.0787Y-3.1496
X4.0787Y-3.1929
X4.083Y-4.8132
X4.101Y-4.5114
X4.122Y-3.3031
X4.1409Y-4.3181
X4.1491Y-4.7688
X4.1583Y-4.3355
X4.1665Y-4.7514
X4.1692Y-4.8058
X4.1695Y-3.1277
X4.17Y-4.464
X4.1738Y-3.0033
X4.1932Y-4.9254
X4.194Y-3.1914
X4.1941Y-4.626
X4.212Y-3.1354
X4.2216Y-4.3161
X4.2242Y-4.9589
X4.229Y-4.464
X4.2346Y-4.7916
X4.239Y-4.3335
X4.241Y-3.1354
X4.2489Y-4.9589
X4.2624Y-3.1151
X4.27Y-4.9353
X4.2785Y-3.2136
X4.2858Y-4.7935
X4.2881Y-3.7087
X4.2881Y-4.464
X4.2894Y-4.9588
X4.2908Y-4.75
X4.2913Y-3.7638
X4.2936Y-3.8939
X4.2936Y-3.9176
X4.2992Y-3.1145
X4.3023Y-4.3181
X4.311Y-3.6967
X4.314Y-4.9588
X4.3161Y-4.7494
X4.317Y-3.6417
X4.3181Y-3.4575
X4.3189Y-3.7717
X4.3197Y-4.3355
X4.3212Y-3.7994
X4.3212Y-3.8309
X4.3212Y-3.8585
X4.3212Y-3.8939
X4.3212Y-3.9176
X4.3212Y-3.9609
X4.3212Y-3.9845
X4.3236Y-4.9134
X4.3314Y-3.0024
X4.3315Y-4.628
X4.3355Y-3.4401
X4.3425Y-3.3327
X4.3461Y-4.0925
X4.3471Y-4.464
X4.3504Y-3.8701
X4.3684Y-3.9701
X4.3684Y-3.9963
X4.3684Y-4.0213
X4.3684Y-4.0568
X4.3684Y-4.0804
X4.3748Y-3.4661
X4.378Y-3.563
X4.3811Y-4.3181
X4.382Y-3.7684
X4.3897Y-4.2368
X4.3922Y-3.4487
X4.3985Y-4.3355
X4.401Y-4.1314
X4.4016Y-3.3327
X4.4055Y-3.563
X4.4094Y-4.7874
X4.4188Y-3.2113
X4.421Y-3.7684
X4.4213Y-3.6417
X4.424Y-4.236
X4.4252Y-3.0002
X4.4283Y-3.4661
X4.432Y-4.6774
X4.437Y-4.0827
X4.4409Y-4.7756
X4.4412Y-4.9215
X4.4457Y-3.4487
X4.4508Y-4.3976
X4.4539Y-3.9172
X4.4547Y-3.0002
X4.455Y-3.8114
X4.458Y-4.4754
X4.4606Y-3.3339
X4.4629Y-3.768
X4.4646Y-3.1161
X4.4675Y-4.0847
X4.47Y-3.6174
X4.473Y-4.6144
X4.4744Y-4.3976
X4.4769Y-3.453
X4.4815Y-3.2109
X4.4862Y-3.5236
X4.487Y-4.4754
X4.489Y-3.8104
X4.4921Y-3.1201
X4.5Y-4.189
X4.5Y-4.3976
X4.5016Y-3.453
X4.5037Y-3.9154
X4.5069Y-4.0847
X4.5089Y-2.9992
X4.515Y-3.5644
X4.5177Y-3.1204
X4.525Y-3.5164
X4.525Y-3.5414
X4.529Y-5.0454
X4.5353Y-4.1101
X4.5394Y-3.5921
X4.5433Y-3.122
X4.5531Y-4.0847
X4.5679Y-3.1066
X4.5776Y-4.0869
X4.5796Y-4.4993
X4.5852Y-2.9992
X4.5864Y-3.5002
X4.5886Y-4.2874
X4.6004Y-4.2402
X4.6018Y-4.2683
X4.603Y-4.5954
X4.6098Y-2.9992
X4.6102Y-3.2096
X4.622Y-4.1535
X4.624Y-4.8622
X4.626Y-4.2402
X4.627Y-3.1066
X4.6335Y-4.1047
X4.6364Y-4.615
X4.6387Y-3.4284
X4.6393Y-3.5061
X4.6407Y-3.48
X4.6417Y-3.7992
X4.6443Y-3.0003
X4.651Y-4.0874
X4.6541Y-3.4478
X4.6589Y-4.2738
X4.6689Y-3.0003
X4.6752Y-3.2067
X4.6787Y-3.4478
X4.6861Y-3.1066
X4.689Y-3.9843
X4.696Y-3.4295
X4.696Y-3.5934
X4.6969Y-3.4843
X4.6969Y-3.5118
X4.7028Y-4.0098
X4.7033Y-3.1248
X4.7132Y-3.4474
X4.7146Y-4.0322
X4.7225Y-4.4806
X4.723Y-3.5934
X4.7244Y-3.4843
X4.7244Y-3.5118
X4.7279Y-3.2096
X4.7279Y-3.1248
X4.7306Y-4.2483
X4.735Y-4.1834
X4.7378Y-3.4474
X4.7383Y-4.0076
X4.7392Y-4.0322
X4.7451Y-3.8619
X4.7451Y-3.1066
X4.75Y-3.5934
X4.75Y-3.6194
X4.752Y-3.4843
X4.752Y-3.5118
X4.755Y-3.4294
X4.7624Y-3.1248
X4.7677Y-3.6929
X4.7722Y-3.4474
X4.787Y-3.1248
X4.7873Y-3.2096
X4.7913Y-4.0079
X4.7968Y-3.4474
X4.8012Y-4.0322
X4.8031Y-3.9488
X4.8042Y-3.1066
X4.8073Y-4.6245
X4.8082Y-4.176
X4.8091Y-4.2561
X4.811Y-3.9843
X4.814Y-3.4294
X4.8214Y-3.1248
X4.825Y-3.6324
X4.8258Y-4.0322
X4.8313Y-3.4474
X4.832Y-4.6262
X4.8356Y-3.9508
X4.8366Y-4.0079
X4.846Y-3.1248
X4.85Y-3.6364
X4.8524Y-4.2561
X4.854Y-4.528
X4.8559Y-3.4474
X4.8583Y-3.9508
X4.8632Y-3.1066
X4.87Y-4.602
X4.8731Y-3.4294
X4.882Y-3.6364
X4.8858Y-3.0099
X4.8858Y-3.9646
X4.8898Y-4.0492
X4.892Y-3.4644
X4.8957Y-4.2561
X4.8972Y-4.1769
X4.8998Y-4.1478
X4.9038Y-3.429
X4.9055Y-3.1102
X4.9055Y-3.9843
X4.9114Y-3.6841
X4.917Y-3.4644
X4.918Y-4.0494
X4.931Y-4.4894
X4.935Y-3.1102
X4.942Y-3.4644
X4.945Y-3.6324
X4.958Y-4.0464
X4.964Y-3.4514
X4.9646Y-3.2032
X4.9685Y-3.9921
X4.9685Y-4.0157
X4.97Y-4.2034
X4.977Y-4.2595
X4.9803Y-3.0099
X4.9888Y-3.4506
X4.9921Y-4.0157
X4.9942Y-4.3267
X4.997Y-4.0464
X5.0001Y-4.373
X5.001Y-3.1066
X5.0134Y-3.4506
X5.0151Y-4.142
X5.0183Y-3.1248
X5.0236Y-3.9764
X5.0236Y-4.0157
X5.024Y-3.2014
X5.028Y-4.5644
X5.028Y-4.6064
X5.0299Y-4.8939
X5.035Y-3.4744
X5.036Y-4.0464
X5.0377Y-5.0042
X5.04Y-4.472
X5.0429Y-3.1248
X5.0433Y-3.8819
X5.0478Y-3.4506
X5.0601Y-3.1066
X5.0669Y-3.6811
X5.0709Y-3.7087
X5.0724Y-3.4506
X5.0748Y-3.7362
X5.0773Y-3.1248
X5.079Y-4.0684
X5.084Y-3.2114
X5.0846Y-4.2894
X5.0846Y-4.3268
X5.0866Y-4.2087
X5.0868Y-4.2491
X5.0896Y-3.4699
X5.0945Y-3.7087
X5.1004Y-3.9665
X5.1019Y-3.1248
X5.104Y-3.8657
X5.107Y-4.0684
X5.1073Y-4.7365
X5.112Y-3.6754
X5.1165Y-5.0042
X5.1165Y-5.0593
X5.1181Y-3.7087
X5.1191Y-3.1066
X5.128Y-4.5914
X5.1322Y-4.9097
X5.1378Y-3.0039
X5.1393Y-3.4685
X5.1398Y-4.3775
X5.143Y-4.5434
X5.1496Y-4.2087
X5.1555Y-3.8661
X5.1585Y-3.1066
X5.164Y-3.2114
X5.1657Y-3.472
X5.169Y-4.0744
X5.1713Y-4.4803
X5.177Y-3.6754
X5.177Y-3.7004
X5.19Y-3.6244
X5.191Y-3.2114
X5.1959Y-4.2421
X5.2067Y-4.1024
X5.215Y-3.6244
X5.216Y-3.2114
X5.2176Y-3.1066
X5.2215Y-4.5404
X5.2225Y-4.7994
X5.223Y-4.7384
X5.2348Y-3.1248
X5.2353Y-4.7139
X5.2374Y-4.3473
X5.2394Y-4.2336
X5.24Y-3.6234
X5.241Y-3.2114
X5.2594Y-3.1248
X5.262Y-4.3473
X5.264Y-4.2336
X5.266Y-3.2114
X5.2766Y-3.1066
X5.2913Y-4.2283
X5.2939Y-3.1248
X5.294Y-3.6374
X5.3122Y-4.2421
X5.313Y-3.6574
X5.315Y-3.4724
X5.3185Y-3.1248
X5.326Y-3.8664
X5.3265Y-4.5395
X5.331Y-4.0804
X5.332Y-3.6754
X5.3357Y-3.1066
X5.3425Y-3.2087
X5.349Y-3.6944
X5.3571Y-4.1741
X5.366Y-3.2087
X5.368Y-4.7319
X5.3689Y-4.3555
X5.371Y-3.9954
X5.3818Y-4.1741
X5.3851Y-4.5392
X5.3927Y-4.7319
X5.393Y-3.2074
X5.42Y-3.2074
X5.4388Y-4.1733
X5.4441Y-4.5429
X5.4634Y-4.1733
X5.4683Y-3.84
X5.469Y-3.8804
X5.4795Y-4.3909
X5.4809Y-3.4539
X5.4917Y-4.5745
X5.4943Y-4.7002
X5.5028Y-4.6344
X5.5044Y-4.5407
X5.5055Y-3.4539
X5.5157Y-4.1741
X5.5163Y-4.5745
X5.5217Y-4.7994
X5.5236Y-3.0
X5.527Y-3.4904
X5.5275Y-4.6344
X5.5398Y-3.5382
X5.54Y-3.5134
X5.5403Y-4.1741
X5.553Y-3.0064
X5.5669Y-3.9213
X5.5695Y-3.1248
X5.5925Y-3.4547
X5.5926Y-4.1741
X5.594Y-3.4794
X5.5941Y-3.1248
X5.603Y-4.3924
X5.6113Y-3.1066
X5.6172Y-4.1741
X5.6181Y-3.8612
X5.6181Y-4.3268
X5.622Y-5.0748
X5.6285Y-3.1248
X5.6516Y-4.6919
X5.6531Y-3.1248
X5.6555Y-4.2736
X5.6633Y-3.5015
X5.6634Y-3.4755
X5.664Y-3.4344
X5.6654Y-3.5433
X5.6703Y-3.1066
X5.6811Y-4.8898
X5.686Y-4.7034
X5.6876Y-3.1248
X5.6929Y-4.1575
X5.7122Y-3.1248
X5.7124Y-4.8876
X5.72Y-4.5864
X5.72Y-4.6314
X5.7203Y-3.4344
X5.7294Y-3.1066
X5.7368Y-3.4925
X5.7462Y-3.5171
X5.7466Y-3.1248
X5.752Y-4.6535
X5.762Y-3.4924
X5.7677Y-4.5039
X5.7708Y-3.5171
X5.7712Y-3.1248
X5.7717Y-4.0394
X5.7794Y-3.4344
X5.7829Y-4.7434
X5.7884Y-3.1066
X5.7958Y-3.5325
X5.7992Y-4.0394
X5.801Y-4.8954
X5.804Y-3.2344
X5.8149Y-4.7434
X5.8205Y-3.5325
X5.8303Y-3.2347
X5.8307Y-4.1417
X5.8346Y-3.9646
X5.8346Y-3.9921
X5.8384Y-3.4344
X5.841Y-4.6433
X5.8425Y-4.7402
X5.8475Y-3.1066
X5.8549Y-3.4845
X5.8647Y-3.1858
X5.8795Y-3.4845
X5.8898Y-3.1858
X5.8898Y-4.4843
X5.8957Y-4.689
X5.8975Y-3.4344
X5.9065Y-3.1066
X5.914Y-3.5113
X5.9238Y-3.1549
X5.9262Y-4.4764
X5.9262Y-4.5157
X5.9262Y-4.5541
X5.9262Y-4.5935
X5.9386Y-3.5113
X5.942Y-3.7214
X5.9449Y-4.4584
X5.9449Y-4.4961
X5.9449Y-4.5738
X5.9455Y-4.5344
X5.9455Y-4.6122
X5.9484Y-3.1549
X5.9539Y-3.2552
X5.9565Y-3.4344
X5.962Y-4.3228
X5.9626Y-4.2835
X5.9656Y-3.1066
X5.9785Y-3.2552
X5.9829Y-3.1273
X5.9882Y-4.7559
X5.993Y-3.7214
X5.9961Y-5.0709
X6.0075Y-3.1273
X6.0116Y-3.4632
X6.0217Y-4.1142
X6.0217Y-4.1417
X6.0246Y-3.1066
X6.0362Y-3.2741
X6.0404Y-4.7362
X6.0404Y-4.7723
X6.0443Y-4.3071
X6.0443Y-4.3432
X6.0591Y-4.7559
X6.0591Y-4.8622
X6.0608Y-3.2741
X6.063Y-4.3268
X6.0689Y-4.1043
X6.0771Y-3.3035
X6.0787Y-4.1811
X6.0787Y-4.7362
X6.0787Y-4.7717
X6.0827Y-4.3071
X6.0827Y-4.3425
X6.0827Y-4.8622
X6.0837Y-3.1066
X6.0911Y-3.1589
X6.0945Y-4.0945
X6.0945Y-4.1181
X6.0984Y-4.7559
X6.1004Y-3.1309
X6.1024Y-4.3268
X6.1157Y-3.1589
X6.1164Y-4.7717
X6.1181Y-4.7363
X6.1203Y-4.3425
X6.122Y-4.3072
X6.127Y-3.1299
X6.133Y-3.3331
X6.1337Y-3.1781
X6.1378Y-5.0787
X6.1427Y-3.1066
X6.1535Y-4.9213
X6.1583Y-3.1781
X6.1654Y-4.378
X6.1693Y-4.6969
X6.18Y-3.2046
X6.185Y-4.3976
X6.189Y-4.6772
X6.1921Y-3.3331
X6.2018Y-3.1066
X6.2046Y-3.2046
X6.2047Y-4.378
X6.2047Y-4.4173
X6.2047Y-4.6575
X6.2047Y-4.6969
X6.2092Y-3.4298
X6.2165Y-5.0236
X6.2191Y-3.1274
X6.2338Y-3.4298
X6.2437Y-3.1274
X6.2511Y-3.3331
X6.252Y-3.1694
X6.2582Y-3.2739
X6.2609Y-3.1066
X6.2683Y-3.3146
X6.2835Y-4.563
X6.2874Y-3.5906
X6.2929Y-3.3146
X6.3Y-3.1704
X6.3004Y-4.3878
X6.304Y-4.3074
X6.3101Y-3.4272
X6.3199Y-3.1066
X6.3273Y-3.3339
X6.3372Y-3.1555
X6.341Y-3.5554
X6.341Y-3.5824
X6.349Y-3.5274
X6.3519Y-3.3339
X6.3618Y-3.1555
X6.3643Y-3.0018
X6.3691Y-3.4272
X6.379Y-3.1066
X6.3819Y-3.5984
X6.3858Y-4.6142
X6.3858Y-4.6535
X6.39Y-4.5396
X6.396Y-3.731
X6.396Y-3.7557
X6.396Y-3.8492
X6.396Y-3.8738
X6.396Y-3.9673
X6.396Y-3.9919
X6.396Y-4.0854
X6.396Y-4.11
X6.396Y-4.2035
X6.396Y-4.2281
X6.4094Y-4.3858
X6.4118Y-3.1055
X6.4138Y-3.7734
X6.4138Y-3.8917
X6.414Y-3.7133
X6.414Y-3.8314
X6.414Y-4.0676
X6.4145Y-4.1272
X6.4158Y-3.9495
X6.4158Y-4.0098
X6.4181Y-3.274
X6.439Y-3.3583
X6.4551Y-3.327
X6.4606Y-3.3583
X6.4646Y-4.4016
X6.4764Y-4.8819
X6.4921Y-2.9921
X6.4961Y-4.4016
X6.5024Y-4.1865
X6.5079Y-3.1102
X6.5118Y-3.5945
X6.5236Y-4.3583
X6.5276Y-4.4016
X6.5305Y-4.2452
X6.5374Y-4.6693
X6.5374Y-4.6929
X6.5374Y-4.7165
X6.5472Y-4.2323
X6.5591Y-4.3701
X6.561Y-4.6693
X6.561Y-4.6929
X6.561Y-4.7165
X6.562Y-4.2175
X6.5653Y-3.2168
X6.574Y-3.6054
X6.5846Y-4.6693
X6.5846Y-4.6929
X6.5846Y-4.7165
X6.6071Y-3.7902
X6.6071Y-3.8148
X6.6071Y-3.9091
X6.6071Y-3.9337
X6.6071Y-4.0298
X6.6071Y-4.0544
X6.6071Y-4.1447
X6.6071Y-4.1693
X6.622Y-4.5039
X6.627Y-3.4184
X6.6362Y-3.2338
X6.638Y-3.7584
X6.638Y-3.4665
X6.638Y-3.6834
X6.638Y-3.7194
X6.641Y-3.6294
X6.6457Y-3.2992
X6.648Y-4.2535
X6.6486Y-4.2287
X6.6502Y-4.1696
X6.6502Y-4.1942
X6.657Y-4.4484
X6.6693Y-3.2992
X6.6732Y-3.3228
X6.7235Y-3.8564
X6.7254Y-4.268
X6.7254Y-4.2927
X6.7264Y-4.3452
X6.7264Y-4.3698
X6.7315Y-3.9137
X6.7315Y-3.9383
X6.732Y-4.0344
X6.732Y-4.0924
X6.754Y-3.8153
X6.754Y-3.8399
X6.754Y-3.8743
X6.754Y-3.899
X6.7546Y-4.3074
X6.7546Y-4.332
X6.7861Y-3.9531
X6.7861Y-3.9777
X6.7891Y-3.7775
X6.8042Y-4.1407
X6.8042Y-4.2372
X6.8268Y-3.4055
X6.8268Y-3.4331
X6.8294Y-4.5577
X6.83Y-4.3354
X6.844Y-4.0171
X6.8465Y-3.3071
X6.8493Y-3.9924
X6.858Y-3.5044
X6.858Y-3.6504
T2
X4.711Y-4.7104
X4.7268Y-4.738
X4.7425Y-4.7104
X4.7583Y-4.738
X4.774Y-4.7104
X4.7898Y-4.738
X4.8055Y-4.7104
X4.837Y-4.7104
X4.8528Y-4.738
X4.8685Y-4.7104
X4.8842Y-4.738
X4.9Y-4.7104
X4.9157Y-4.738
X4.9315Y-4.7104
T3
X5.274Y-4.6695
X5.274Y-4.8014
X5.2917Y-4.639
X5.2917Y-4.7709
X5.3272Y-4.639
X5.3272Y-4.7709
X5.3449Y-4.6695
X5.3449Y-4.8014
X5.3626Y-4.639
X5.3626Y-4.7709
X5.398Y-4.639
X5.398Y-4.7709
X5.4161Y-4.6695
X5.4161Y-4.8014
X5.4335Y-4.639
X5.4335Y-4.7709
X5.4689Y-4.639
X5.4689Y-4.7709
X5.4866Y-4.6695
X5.4866Y-4.8014
T7
X3.0988Y-4.3492
X3.1488Y-4.4492
X3.1988Y-4.3492
X3.2488Y-4.4492
X3.2988Y-4.3492
X3.3488Y-4.4492
X3.3988Y-4.3492
X3.4488Y-4.4492
X3.4988Y-4.3492
X3.5488Y-4.4492
T10
X3.1088Y-4.1591
X3.2088Y-4.1591
X3.4391Y-4.1591
X3.5391Y-4.1591
T11
X3.0137Y-4.5791
X3.634Y-4.5791
T12
X3.148Y-4.9569
X3.148Y-3.1065
X3.1657Y-3.8944
X3.8114Y-4.8791
X6.3173Y-4.8791
X6.7002Y-4.9569
X6.7011Y-3.1075
T4
G00X4.6531Y-4.7439
M15
G01X4.6531Y-4.7675
M16
G05
G00X4.6531Y-4.9301
M15
G01X4.6531Y-4.9537
M16
G05
G00X4.9894Y-4.7439
M15
G01X4.9894Y-4.7675
M16
G05
G00X4.9894Y-4.9301
M15
G01X4.9894Y-4.9537
M16
G05
T5
G00X4.1381Y-4.863
M15
G01X4.1381Y-4.9044
M16
G05
G00X4.1381Y-4.9953
M15
G01X4.1381Y-5.0367
M16
G05
G00X4.3822Y-4.863
M15
G01X4.3822Y-4.9044
M16
G05
G00X4.3822Y-4.9953
M15
G01X4.3822Y-5.0367
M16
G05
T6
G00X5.1756Y-4.999
M15
G01X5.1756Y-4.9581
M16
G05
G00X5.585Y-4.999
M15
G01X5.585Y-4.9581
M16
G05
T8
G00X5.1638Y-4.7906
M15
G01X5.1638Y-4.7335
M16
G05
G00X5.5969Y-4.7906
M15
G01X5.5969Y-4.7335
M16
G05
T9
G00X6.705Y-4.5681
M15
G01X6.6066Y-4.5681
M16
G05
G00X6.6164Y-4.8043
M15
G01X6.6952Y-4.8043
M16
G05
G00X6.8479Y-4.7236
M15
G01X6.8479Y-4.6449
M16
G05
T0
M30
